<svg width="179" height="42" viewBox="0 0 179 42" fill="none" xmlns="http://www.w3.org/2000/svg">
<g id="logo_adtraction" clip-path="url(#clip0_1703_37967)">
<g id="Page-1">
<g id="adtraction-advertisers">
<g id="Logo-Copy">
<g id="Icon">
<path id="Combined-Shape" fill-rule="evenodd" clip-rule="evenodd" d="M21.0073 0C32.6094 0 42.0147 9.40202 42.0147 21C42.0147 32.598 32.6094 42 21.0073 42C9.4053 42 0 32.598 0 21C0 9.40202 9.4053 0 21.0073 0ZM24.3478 24.0776C23.2601 25.9609 23.9056 28.3691 25.7895 29.4564C27.6735 30.5437 30.0824 29.8984 31.1701 28.0151C32.2578 26.1319 31.6123 23.7237 29.7284 22.6364C27.8445 21.5491 25.4355 22.1944 24.3478 24.0776ZM22.7639 11.0391C20.8862 9.95542 18.4875 10.5995 17.4021 12.4788L10.8343 23.8505C10.8329 23.8529 10.8315 23.8553 10.8302 23.8577C9.74742 25.7416 10.3937 28.1484 12.2736 29.2334L12.2871 29.2412C14.1647 30.3249 16.5635 29.6808 17.6489 27.8015L24.2166 16.4298C25.3035 14.5387 24.6573 12.1319 22.7773 11.0469L22.7639 11.0391Z" fill="black"/>
</g>
<path id="Adtraction" fill-rule="evenodd" clip-rule="evenodd" d="M65.9803 27.6956L65.3726 25.7864H60.1382L59.5306 27.6956C59.4728 27.877 59.3046 28.0001 59.1146 28.0001H56.5206C56.2795 28.0001 56.084 27.8042 56.084 27.5626C56.084 27.5146 56.0919 27.4669 56.1073 27.4215L60.6011 14.209C60.6614 14.0317 60.8276 13.9126 61.0144 13.9126H64.4964C64.6833 13.9126 64.8494 14.0317 64.9097 14.209L69.4035 27.4215C69.4813 27.6502 69.3593 27.8988 69.1311 27.9767C69.0857 27.9922 69.0382 28.0001 68.9903 28.0001H66.3962C66.2062 28.0001 66.038 27.877 65.9803 27.6956ZM61.1033 22.7676H64.4049L62.7541 17.5955L61.1033 22.7676ZM76.3177 13.9126C80.2032 13.9126 83.1626 16.9716 83.1626 20.9564C83.1626 24.9411 80.2032 28.0001 76.3177 28.0001H71.1174C70.8762 28.0001 70.6808 27.8042 70.6808 27.5626V14.3501C70.6808 14.1085 70.8762 13.9126 71.1174 13.9126H76.3177ZM76.0989 24.9009C78.3134 24.9009 79.8435 23.3714 79.8435 20.9564C79.8435 18.5414 78.3134 17.0119 76.0989 17.0119H73.6831V24.9009H76.0989ZM94.0952 14.3501V16.5744C94.0952 16.816 93.8997 17.0119 93.6586 17.0119H90.4593V27.5626C90.4593 27.8042 90.2638 28.0001 90.0227 28.0001H87.664C87.4229 28.0001 87.2274 27.8042 87.2274 27.5626V17.0119H84.0281C83.787 17.0119 83.5915 16.816 83.5915 16.5744V14.3501C83.5915 14.1085 83.787 13.9126 84.0281 13.9126H93.6586C93.8997 13.9126 94.0952 14.1085 94.0952 14.3501ZM102.691 27.7808L100.16 23.3714H98.6298V27.5626C98.6298 27.8042 98.4343 28.0001 98.1932 28.0001H95.8453C95.6041 28.0001 95.4087 27.8042 95.4087 27.5626V14.3501C95.4087 14.1085 95.6041 13.9126 95.8453 13.9126H101.046C103.723 13.9126 105.877 16.066 105.877 18.7426C105.877 20.4734 104.83 22.0431 103.28 22.828L105.899 27.3428C106.02 27.5517 105.949 27.8195 105.741 27.9409C105.674 27.9797 105.598 28.0001 105.521 28.0001H103.07C102.914 28.0001 102.769 27.9165 102.691 27.7808ZM98.527 16.9314V20.5539H100.943C101.829 20.5539 102.553 19.769 102.553 18.7426C102.553 17.7162 101.829 16.9314 100.943 16.9314H98.527ZM117.076 27.6956L116.468 25.7864H111.234L110.626 27.6956C110.568 27.877 110.4 28.0001 110.21 28.0001H107.616C107.375 28.0001 107.179 27.8042 107.179 27.5626C107.179 27.5146 107.187 27.4669 107.203 27.4215L111.697 14.209C111.757 14.0317 111.923 13.9126 112.11 13.9126H115.592C115.779 13.9126 115.945 14.0317 116.005 14.209L120.499 27.4215C120.577 27.6502 120.455 27.8988 120.227 27.9767C120.181 27.9922 120.134 28.0001 120.086 28.0001H117.492C117.302 28.0001 117.133 27.877 117.076 27.6956ZM112.2 22.7676H115.502L113.851 17.5955L112.2 22.7676ZM128.052 28.2819C123.804 28.2819 120.724 25.1021 120.724 20.9564C120.724 16.8106 123.804 13.6309 128.052 13.6309C130.507 13.7245 132.424 14.677 133.804 16.4884C133.95 16.6805 133.913 16.9551 133.721 17.1017C133.707 17.113 133.691 17.1233 133.675 17.1326L131.657 18.3019C131.469 18.4111 131.229 18.3647 131.095 18.1932C130.387 17.2889 129.373 16.8146 128.052 16.7704C125.556 16.7704 123.945 18.4407 123.945 20.9564C123.945 23.472 125.556 25.1424 128.052 25.1424C129.374 25.1424 130.389 24.6716 131.097 23.7302C131.23 23.5536 131.473 23.504 131.664 23.6147L133.682 24.784C133.891 24.905 133.962 25.1726 133.841 25.3817C133.833 25.3956 133.824 25.409 133.815 25.4219C132.416 27.3285 130.495 28.2819 128.052 28.2819ZM145.52 14.3501V16.5744C145.52 16.816 145.324 17.0119 145.083 17.0119H141.884V27.5626C141.884 27.8042 141.689 28.0001 141.447 28.0001H139.089C138.848 28.0001 138.652 27.8042 138.652 27.5626V17.0119H135.453C135.212 17.0119 135.016 16.816 135.016 16.5744V14.3501C135.016 14.1085 135.212 13.9126 135.453 13.9126H145.083C145.324 13.9126 145.52 14.1085 145.52 14.3501ZM147.269 13.9126H149.679C149.92 13.9126 150.115 14.1085 150.115 14.3501V27.5626C150.115 27.8042 149.92 28.0001 149.679 28.0001H147.269C147.028 28.0001 146.833 27.8042 146.833 27.5626V14.3501C146.833 14.1085 147.028 13.9126 147.269 13.9126ZM159.009 28.2819C154.963 28.2819 151.681 25.1021 151.681 20.9564C151.681 16.8106 154.963 13.6309 159.009 13.6309C163.056 13.6309 166.337 16.8106 166.337 20.9564C166.337 25.1021 163.056 28.2819 159.009 28.2819ZM159.009 25.1424C161.304 25.1424 163.116 23.472 163.116 20.9564C163.116 18.4407 161.304 16.7704 159.009 16.7704C156.714 16.7704 154.902 18.4407 154.902 20.9564C154.902 23.472 156.714 25.1424 159.009 25.1424ZM176.128 13.8496H178.476C178.717 13.8496 178.913 14.0455 178.913 14.2871V27.4996C178.913 27.7412 178.717 27.9371 178.476 27.9371H176.722C176.581 27.9371 176.448 27.8687 176.366 27.7534L171.061 20.2896V27.4996C171.061 27.7412 170.866 27.9371 170.625 27.9371H168.277C168.036 27.9371 167.84 27.7412 167.84 27.4996V14.2871C167.84 14.0455 168.036 13.8496 168.277 13.8496H170.031C170.172 13.8496 170.305 13.918 170.387 14.0333L175.692 21.4971V14.2871C175.692 14.0455 175.887 13.8496 176.128 13.8496Z" fill="black"/>
</g>
</g>
</g>
</g>
<defs>
<clipPath id="clip0_1703_37967">
<rect width="179" height="42" fill="white"/>
</clipPath>
</defs>
</svg>
