<svg width="49" height="48" viewBox="0 0 49 48" fill="none" xmlns="http://www.w3.org/2000/svg">
<path fill-rule="evenodd" clip-rule="evenodd" d="M0.287598 7.5C0.287598 3.35786 3.64546 0 7.7876 0H40.7876C44.9297 0 48.2876 3.35786 48.2876 7.5V40.5C48.2876 44.6421 44.9297 48 40.7876 48H7.7876C3.64546 48 0.287598 44.6421 0.287598 40.5V7.5ZM33.4376 17.25C34.4876 17.1 35.3876 16.95 36.2876 16.5C35.6876 17.55 34.7876 18.45 33.7376 19.05C34.0376 26.1 28.9376 33.75 19.7876 33.75C17.0876 33.75 14.5376 32.85 12.2876 31.5C14.8376 31.8 17.5376 31.05 19.3376 29.7C17.0876 29.7 15.2876 28.2 14.6876 26.25C15.4376 26.4 16.1876 26.25 16.9376 26.1C14.6876 25.5 13.0376 23.4 13.0376 21.15C13.7876 21.45 14.5376 21.75 15.2876 21.75C13.1876 20.25 12.4376 17.4 13.7876 15.15C16.3376 18.15 19.9376 20.1 23.9876 20.25C23.2376 17.25 25.6376 14.25 28.7876 14.25C30.1376 14.25 31.4876 14.85 32.3876 15.75C33.5876 15.45 34.6376 15.15 35.5376 14.55C35.2376 15.75 34.4876 16.65 33.4376 17.25Z" fill="#577590"/>
</svg>
