<svg width="49" height="48" viewBox="0 0 49 48" fill="none" xmlns="http://www.w3.org/2000/svg">
<path fill-rule="evenodd" clip-rule="evenodd" d="M0.56958 7.5C0.56958 3.35786 3.92744 0 8.06958 0H41.0696C45.2117 0 48.5696 3.35786 48.5696 7.5V40.5C48.5696 44.6421 45.2117 48 41.0696 48H8.06958C3.92744 48 0.56958 44.6421 0.56958 40.5V7.5ZM12.8696 19.95V36H17.9696V19.95H12.8696ZM12.5696 14.85C12.5696 16.5 13.7696 17.7 15.4196 17.7C17.0696 17.7 18.2696 16.5 18.2696 14.85C18.2696 13.2 17.0696 12 15.4196 12C13.9196 12 12.5696 13.2 12.5696 14.85ZM31.4696 36H36.2696V26.1C36.2696 21.15 33.2696 19.5 30.4196 19.5C27.8696 19.5 26.0696 21.15 25.6196 22.2V19.95H20.8196V36H25.9196V27.45C25.9196 25.2 27.4196 24 28.9196 24C30.4196 24 31.4696 24.75 31.4696 27.3V36Z" fill="#577590"/>
</svg>
