<svg width="49" height="48" viewBox="0 0 49 48" fill="none" xmlns="http://www.w3.org/2000/svg">
<path fill-rule="evenodd" clip-rule="evenodd" d="M7.64478 0H40.6448C44.7869 0 48.1448 3.35786 48.1448 7.5V40.5C48.1448 44.6421 44.7869 48 40.6448 48H7.64478C3.50264 48 0.144775 44.6421 0.144775 40.5V7.5C0.144775 3.35786 3.50264 0 7.64478 0ZM25.1826 18.0111C23.0331 18.9051 18.7371 20.7556 12.2947 23.5624C11.2485 23.9785 10.7005 24.3854 10.6506 24.7834C10.5663 25.456 11.4085 25.7208 12.5554 26.0814C12.7114 26.1305 12.873 26.1813 13.0387 26.2352C14.1671 26.602 15.6849 27.0311 16.474 27.0481C17.1898 27.0636 17.9886 26.7685 18.8706 26.1628C24.89 22.0996 27.9972 20.0458 28.1923 20.0016C28.3299 19.9703 28.5206 19.9311 28.6498 20.0459C28.7791 20.1608 28.7664 20.3783 28.7527 20.4366C28.6692 20.7923 25.3632 23.8659 23.6523 25.4565C23.119 25.9523 22.7407 26.3041 22.6633 26.3844C22.4901 26.5643 22.3135 26.7345 22.1438 26.8981C21.0955 27.9087 20.3094 28.6665 22.1873 29.904C23.0898 30.4987 23.8119 30.9905 24.5323 31.4811C25.3191 32.0169 26.1038 32.5513 27.1192 33.2169C27.3779 33.3864 27.6249 33.5626 27.8655 33.7341C28.7812 34.3869 29.6038 34.9733 30.62 34.8798C31.2106 34.8254 31.8206 34.2702 32.1303 32.6141C32.8625 28.7002 34.3015 20.2201 34.6341 16.7257C34.6632 16.4195 34.6266 16.0277 34.5972 15.8557C34.5677 15.6837 34.5062 15.4386 34.2826 15.2572C34.0178 15.0424 33.6091 14.9971 33.4263 15.0001C32.5951 15.0149 31.3198 15.4584 25.1826 18.0111Z" fill="#577590"/>
</svg>
