<svg width="49" height="48" viewBox="0 0 49 48" fill="none" xmlns="http://www.w3.org/2000/svg">
<path fill-rule="evenodd" clip-rule="evenodd" d="M19.7591 32.55C21.2591 33.45 23.0591 33.9 24.8591 33.9C30.4091 33.9 34.7591 29.4 34.7591 24.15C34.7591 21.45 33.8592 19.05 31.9091 17.1C29.9591 15.3 27.5591 14.25 24.8591 14.25C19.4591 14.25 14.9591 18.75 14.9591 24.15C14.9591 25.95 15.4091 27.75 16.4591 29.4L16.7591 29.85L15.7091 33.45L19.4591 32.4L19.7591 32.55ZM28.1591 25.5C28.4591 25.5 29.9591 26.25 30.2591 26.4C30.3059 26.4234 30.3526 26.4431 30.3987 26.4626C30.6489 26.5682 30.8825 26.6668 31.0091 27.3C31.1591 27.3 31.1591 27.9 30.8591 28.65C30.7091 29.25 29.5092 30 28.9091 30C28.8075 30 28.7101 30.0086 28.6062 30.0178C28.0964 30.0629 27.4271 30.1221 25.3091 29.25C22.6804 28.1985 20.8579 25.6499 20.3461 24.9342C20.2738 24.8331 20.2277 24.7686 20.2091 24.75C20.1836 24.6989 20.1319 24.6174 20.0639 24.5099C19.732 23.9859 19.0091 22.8446 19.0091 21.6C19.0091 20.1 19.7591 19.35 20.0591 19.05C20.3591 18.75 20.6591 18.75 20.8091 18.75H21.4091C21.5591 18.75 21.8591 18.75 22.0091 19.2C22.3091 19.8 22.9091 21.3 22.9091 21.45C22.9091 21.5 22.9258 21.55 22.9425 21.6C22.9758 21.7 23.0091 21.8 22.9091 21.9C22.8341 21.975 22.7966 22.05 22.7591 22.125C22.7216 22.2 22.6841 22.275 22.6091 22.35L22.1591 22.8C22.0092 22.95 21.8591 23.1 22.0091 23.4C22.1591 23.7 22.7592 24.75 23.6591 25.5C24.6718 26.3861 25.4708 26.738 25.8759 26.9165C25.9508 26.9495 26.0123 26.9766 26.0591 27C26.3591 27 26.5092 27 26.6591 26.85C26.7342 26.7 26.9216 26.475 27.1091 26.25C27.2966 26.025 27.4841 25.8 27.5591 25.65C27.7091 25.35 27.8592 25.35 28.1591 25.5Z" fill="#577590"/>
<path fill-rule="evenodd" clip-rule="evenodd" d="M0.859131 7.5C0.859131 3.35786 4.217 0 8.35913 0H41.3591C45.5013 0 48.8591 3.35786 48.8591 7.5V40.5C48.8591 44.6421 45.5013 48 41.3591 48H8.35913C4.217 48 0.859131 44.6421 0.859131 40.5V7.5ZM24.8591 12C28.0091 12 31.0091 13.2 33.2591 15.45C35.5091 17.7 36.8591 20.7 36.8591 23.85C36.8591 30.45 31.4591 35.85 24.8591 35.85C22.9091 35.85 20.9591 35.25 19.1591 34.35L12.8591 36L14.5091 30C13.4591 28.2 12.8591 26.1 12.8591 24C12.8591 17.4 18.2591 12 24.8591 12Z" fill="#577590"/>
</svg>
