<svg width="228" height="180" viewBox="0 0 228 180" fill="none" xmlns="http://www.w3.org/2000/svg">
<g id="Frame 69571">
<rect x="1" y="1" width="226" height="178" rx="17" fill="white" fill-opacity="0.9"/>
<rect x="1" y="1" width="226" height="178" rx="17" stroke="white" stroke-width="2"/>
<g id="XMLID_2_">
<path id="XMLID_21_" d="M67.0234 73.6399L47.6653 50.2041C47.2729 49.8118 46.5338 50.0079 46.5338 50.5965L48.1557 73.2931L34.1047 61.2564C33.7124 60.8641 32.9732 61.2564 33.0713 61.845L38.6728 84.2473L25.1157 76.2918C24.6253 75.9975 23.9842 76.488 24.1839 77.1255L47.914 130.678C48.1102 131.168 48.9474 131.07 49.0455 130.579L54.2546 103.115L67.4718 80.7127C68.8906 78.5022 68.6454 75.6542 67.0234 73.6399Z" fill="#FF6600"/>
<path id="XMLID_22_" d="M48.1113 73.346L33.9622 61.3093C33.5699 60.917 32.8307 61.3093 32.9288 61.8978L38.5303 84.3002L49.2393 90.5883L48.1113 73.346Z" fill="#E74030"/>
<path id="XMLID_23_" d="M48.307 118.838C48.1108 119.426 47.2736 119.328 47.1755 118.74L38.6279 84.3498L24.9693 76.2926C24.4788 75.9983 23.8378 76.4888 24.0374 77.1264L47.7675 130.678C47.9637 131.169 48.8009 131.071 48.899 130.58L54.1081 103.067L54.01 103.165L48.307 118.838Z" fill="#FAB418"/>
<path id="XMLID_24_" d="M48.3063 118.837L54.202 103.164L51.5501 107.536C51.2559 108.026 50.4186 107.83 50.4186 107.241L49.2871 90.6367L38.5781 84.3486L47.1257 118.739C47.2728 119.331 48.1101 119.429 48.3063 118.837Z" fill="#DE0732"/>
<path id="XMLID_25_" d="M66.8271 73.6401L47.469 50.2043C47.1747 49.8119 46.4355 50.1062 46.4355 50.5966L48.0575 73.2933L57.8347 81.7428C59.7509 83.3647 60.4865 86.1147 59.5547 88.5703L54.1494 102.817V103.014L67.3666 80.6113C68.7924 78.5024 68.4491 75.6544 66.8271 73.6401Z" fill="#FF6600"/>
<path id="XMLID_26_" d="M52.0909 92.3576C54.3504 93.6853 55.4328 96.2391 55.037 98.7928L54.2032 102.969L59.6085 88.7214C60.5404 86.2657 59.8047 83.6104 57.8885 81.8938L48.1113 73.4443L49.3409 90.7392L52.0909 92.3576Z" fill="#DE0733"/>
<path id="XMLID_27_" d="M54.1055 103.266L54.2036 103.066V102.87" fill="black"/>
<path id="XMLID_28_" d="M54.1055 103.266L54.2036 103.066V102.87" fill="black"/>
<path id="XMLID_29_" d="M52.0883 92.3567L49.2402 90.6367L50.3227 107.241C50.3227 107.83 51.1564 108.075 51.4542 107.536L54.008 103.164L54.1061 102.87L54.9398 98.6939C55.5248 96.2382 54.2987 93.6844 52.0883 92.3567Z" fill="#CC1D46"/>
<path id="XMLID_32_" d="M81.7151 103.56H93.3104L87.5128 88.0832L81.7151 103.56ZM87.215 82.1875H88.1468C89.3764 82.1875 90.5044 82.9232 90.8968 84.1037L104.555 118.935H100.429C99.6931 118.935 99.003 118.445 98.8068 117.804L95.0235 108.026H80.0407L76.3554 117.804C76.0611 118.539 75.4236 118.935 74.7334 118.935H70.7539L84.3144 84.1037C84.8574 82.9722 85.9889 82.1875 87.215 82.1875Z" fill="#23282C"/>
<path id="XMLID_36_" d="M160.52 118.935H165.533V82.2856H160.52M179.434 90.3427V118.935H174.866V82.2856H177.812C178.744 82.2856 179.63 82.776 180.268 83.5152L198.788 109.554V82.1875H203.357V118.935H201.097C200.064 118.935 199.181 118.445 198.641 117.706L179.434 90.3427ZM142.49 118.935H138.314L128.439 89.2112L118.564 118.935H114.388L103.385 82.2856H107.364C108.198 82.2856 108.888 82.776 109.084 83.6133L116.7 110.881L125.542 83.7113C125.836 82.7795 126.673 82.1875 127.703 82.1875H129.423C130.457 82.1875 131.241 82.776 131.585 83.7113L140.427 110.881L148.042 83.5152C148.239 82.6814 148.974 82.1875 149.762 82.1875H153.644L142.49 118.935Z" fill="#23282C"/>
<path id="XMLID_37_" d="M63.8813 102.968L63.7832 103.364L63.8813 103.167V102.968Z" fill="#3F3F3F"/>
</g>
</g>
</svg>
