<svg width="86" height="114" viewBox="0 0 86 114" fill="none" xmlns="http://www.w3.org/2000/svg">
<path d="M64.4083 79.8452C67.2923 78.0705 68.1797 73.1898 70.62 70.5277C73.2821 68.0874 78.1628 67.4218 79.9375 64.316C81.7123 61.2101 79.9375 56.5514 80.8249 53.0018C81.7123 49.6741 85.4837 46.5683 85.4837 42.7969C85.4837 39.2474 81.4904 36.1415 80.6031 32.8138C79.7157 29.2643 81.4904 24.6055 79.7157 21.4996C77.9409 18.3938 73.0603 17.7283 70.62 15.2879C67.9578 12.6258 67.2923 7.74517 64.1864 5.9704C61.0806 4.19563 56.4218 5.9704 52.8723 5.08301C49.7664 4.19563 46.6606 0.202393 43.111 0.202393C39.3396 0.202393 36.2338 4.19563 32.9061 5.08301C29.3566 5.9704 24.6978 4.19563 21.5919 5.9704C18.7079 7.74517 17.8205 12.6258 15.3802 15.2879C12.7181 17.7283 7.83745 18.3938 6.06268 21.4996C4.28791 24.6055 6.06268 29.2643 5.17529 32.8138C4.28791 36.1415 0.516521 39.2474 0.516521 42.7969C0.516521 46.5683 4.28791 49.6741 5.17529 53.0018C6.06268 56.5514 4.28791 61.2101 6.06268 64.316C7.83745 67.2 12.7181 68.0874 15.3802 70.5277C17.8205 73.1898 18.4861 78.0705 21.5919 79.8452C24.6978 81.62 29.3566 79.8452 32.9061 80.7326C36.2338 81.62 39.3396 85.3914 43.111 85.3914C46.6606 85.3914 49.7664 81.62 53.0941 80.7326C56.6437 79.8452 61.3024 81.62 64.4083 79.8452ZM42.8892 78.2923C41.1144 77.4049 38.2304 74.9646 34.459 73.8554C30.6876 72.968 27.1381 73.6335 25.1415 73.4117C24.0322 71.8588 22.7012 68.3092 20.039 65.6471C17.3768 62.9849 13.8273 61.6538 12.2744 60.5446C12.2744 58.548 12.9399 54.9984 12.0525 51.2271C10.9433 47.4557 8.50299 44.7935 7.61561 43.0187C8.50299 41.0221 10.9433 38.36 12.0525 34.5886C12.9399 30.8172 12.2744 27.2677 12.2744 25.271C14.0492 24.1618 17.5987 22.8307 20.2608 20.1686C22.923 17.5064 24.2541 13.9569 25.3633 12.1821C27.3599 12.1821 30.9095 12.8476 34.6809 11.9603C38.4523 10.851 41.1144 8.41071 42.8892 7.52332C44.8858 8.41071 47.548 10.851 51.3193 11.9603C55.0907 12.8476 58.6403 12.1821 60.6369 12.1821C61.7461 13.9569 63.0772 17.5064 65.7394 20.1686C68.4015 22.8307 71.9511 24.1618 73.7258 25.271C73.7258 27.2677 73.0603 30.8172 73.9477 34.5886C75.0569 38.36 77.4972 41.0221 78.3846 43.0187C77.4972 44.7935 75.0569 47.4557 73.9477 51.2271C73.0603 54.7766 73.7258 58.3261 73.7258 60.5446C71.9511 61.6538 68.4015 62.9849 65.7394 65.6471C63.0772 68.3092 61.7461 71.8588 60.6369 73.6335C58.6403 73.6335 55.0907 72.968 51.3193 73.8554C47.548 74.9646 44.8858 77.4049 42.8892 78.2923ZM62.4117 42.7969C62.4117 32.1483 53.5378 23.2744 43.111 23.2744C32.4624 23.2744 23.5885 32.1483 23.5885 42.7969C23.5885 53.6674 32.2406 62.3194 42.8892 62.3194C53.316 62.3194 62.4117 53.6674 62.4117 42.7969ZM43.111 55.2203C36.2338 55.2203 30.6876 49.6741 30.6876 42.7969C30.6876 36.1415 36.2338 30.3735 42.8892 30.3735C49.5446 30.3735 55.3126 36.1415 55.3126 42.7969C55.3126 49.6741 49.7664 55.2203 43.111 55.2203ZM79.7157 82.5074C79.0501 80.5108 76.8317 79.6234 75.0569 80.5108C73.2821 81.1763 72.3947 83.1729 73.0603 84.9477L78.3846 98.7022L67.9578 97.1493L62.4117 106.467L56.8655 92.9342C56.2 91.1594 54.2033 90.272 52.2067 90.9376C50.432 91.825 49.5446 93.8216 50.432 95.5963L55.9781 109.129C57.0873 112.013 59.5277 113.788 62.8554 113.788C65.7394 113.788 68.1797 112.235 69.5107 109.795L71.7292 105.136L76.6098 106.245C79.272 106.689 82.156 105.801 83.9308 103.583C85.7055 101.586 86.1492 98.4803 85.04 96.04L79.7157 82.5074ZM33.7935 90.9376C31.7969 90.272 29.8002 91.1594 29.1347 92.9342L23.5885 106.467L18.0424 97.1493L7.61561 98.7022L12.9399 84.9477C13.6055 83.1729 12.7181 81.1763 10.9433 80.5108C9.16853 79.6234 6.95007 80.5108 6.28453 82.5074L0.960214 96.04C-0.149018 98.4803 0.294675 101.586 2.06945 103.583C3.84422 105.801 6.72822 106.689 9.39038 106.245L14.271 105.136L16.4895 109.795C17.8205 112.235 20.2608 113.788 23.3667 113.788C26.4725 113.788 28.9129 112.013 30.0221 109.129L35.5682 95.5963C36.4556 93.8216 35.5682 91.825 33.7935 90.9376Z" fill="white"/>
</svg>
