<svg width="130" height="115" viewBox="0 0 130 115" fill="none" xmlns="http://www.w3.org/2000/svg">
<path d="M108.469 67.0557C106.946 65.5327 104.154 65.5327 102.631 67.0557C101.108 68.5787 101.108 71.3709 102.631 72.8939L116.084 86.0931H85.3701C84.1009 86.0931 82.8318 85.5855 82.0703 84.5701L72.1708 71.6247C70.9016 69.8479 68.3633 69.3402 66.5865 70.8632C64.8097 72.1324 64.302 74.6707 65.825 76.4475L75.4706 89.393C77.7551 92.4389 81.3088 94.2158 85.3701 94.2158H116.084L102.631 107.669C101.108 109.192 101.108 111.984 102.631 113.507C103.392 114.269 104.408 114.522 105.677 114.522C106.692 114.522 107.707 114.269 108.469 113.507L128.775 93.2004C130.298 91.6775 130.298 88.8853 128.775 87.3623L108.469 67.0557ZM85.3701 29.2347H116.084L102.631 42.6878C101.108 44.2108 101.108 47.003 102.631 48.5259C103.392 49.2874 104.408 49.5413 105.677 49.5413C106.692 49.5413 107.707 49.2874 108.469 48.5259L128.775 28.2194C130.298 26.6964 130.298 23.9042 128.775 22.3812L108.469 2.07462C106.946 0.551624 104.154 0.551624 102.631 2.07462C101.108 3.59761 101.108 6.38977 102.631 7.91276L116.084 21.112H85.3701C81.3088 21.112 77.7551 23.1427 75.4706 26.1887L31.5576 84.5701C30.7961 85.5855 29.7808 86.0931 28.5116 86.0931H4.14372C1.85922 86.0931 0.0823975 88.1238 0.0823975 90.1545C0.0823975 92.4389 1.85922 94.2158 4.14372 94.2158H28.5116C32.3191 94.2158 35.8728 92.4389 38.1573 89.393L82.0703 31.0115C82.8318 29.9962 84.1009 29.2347 85.3701 29.2347ZM4.14372 29.2347H28.5116C29.7808 29.2347 30.7961 29.9962 31.5576 31.0115L41.4571 43.957C42.2186 44.9723 43.4877 45.48 44.7569 45.48C45.5184 45.48 46.2799 45.2261 47.0414 44.7185C48.8182 43.4493 49.3259 40.911 47.8029 39.1341L38.1573 26.1887C35.8728 23.1427 32.3191 21.112 28.5116 21.112H4.14372C1.85922 21.112 0.0823975 23.1427 0.0823975 25.1734C0.0823975 27.4579 1.85922 29.2347 4.14372 29.2347Z" fill="white"/>
</svg>
