<svg width="114" height="114" viewBox="0 0 114 114" fill="none" xmlns="http://www.w3.org/2000/svg">
<path d="M57 106.689C84.2871 106.689 106.694 84.504 106.694 56.9951C106.694 55.2203 108.246 53.4455 110.243 53.4455C112.018 53.4455 113.793 55.2203 113.793 56.9951C113.793 88.4973 88.2803 113.788 57 113.788C25.4978 113.788 0.207275 88.4973 0.207275 56.9951C0.207275 25.7147 25.4978 0.202393 57 0.202393C71.1981 0.202393 84.5089 5.74855 94.492 14.6224L104.031 4.86117C105.362 3.53009 107.803 3.53009 109.134 4.86117C110.465 6.19225 110.465 8.63256 109.134 9.96363L59.4403 59.6572C58.1092 60.9883 55.6689 60.9883 54.3378 59.6572C53.0067 58.3261 53.0067 55.8858 54.3378 54.5548L64.099 44.7935C61.8806 43.6843 59.4403 42.7969 57 42.7969C49.0135 42.7969 42.8018 49.2304 42.8018 56.9951C42.8018 64.9815 49.0135 71.1932 57 71.1932C64.7646 71.1932 71.1981 64.9815 71.1981 56.9951C71.1981 55.2203 72.751 53.4455 74.7477 53.4455C76.5224 53.4455 78.2972 55.2203 78.2972 56.9951C78.2972 68.7529 68.7578 78.2923 57 78.2923C45.0202 78.2923 35.7027 68.7529 35.7027 56.9951C35.7027 45.2372 45.0202 35.6978 57 35.6978C61.4369 35.6978 65.652 37.2507 69.2015 39.691L76.7443 32.1483C71.42 27.7113 64.5427 25.0492 57 25.0492C43.6892 25.0492 32.5968 33.0357 27.4944 44.3498C26.8288 46.1246 24.8322 47.012 22.8356 46.1246C21.0608 45.4591 20.3953 43.2406 21.0608 41.4658C27.0507 27.7113 40.8052 17.9501 57 17.9501C66.3175 17.9501 75.1914 21.4996 81.8467 27.0458L89.3895 19.503C80.7375 11.9603 69.4233 7.30148 57 7.30148C29.491 7.30148 7.30636 29.708 7.30636 56.9951C7.30636 84.504 29.491 106.689 57 106.689ZM92.4954 53.4455C94.2701 53.4455 96.0449 55.2203 96.0449 56.9951C96.0449 73.1898 86.2837 86.9443 72.5292 92.9342C70.7544 93.5997 68.536 92.9342 67.8704 91.1594C66.983 89.1628 67.8704 87.1662 69.6452 86.2788C80.9594 81.3982 88.9458 70.084 88.9458 56.9951C88.9458 55.2203 90.4988 53.4455 92.4954 53.4455ZM22.8356 68.0874C24.8322 67.2 26.8288 68.0874 27.4944 69.8622C30.8221 77.1831 36.8119 83.1729 44.1329 86.2788C45.9076 87.1662 46.795 89.1628 45.9076 91.1594C45.2421 92.9342 43.0236 93.5997 41.2489 92.9342C32.1532 88.9409 25.0541 81.62 21.0608 72.7462C20.3953 70.9714 21.0608 68.7529 22.8356 68.0874ZM26.8288 56.9951C26.8288 60.1009 24.3885 62.3194 21.5045 62.3194C18.3987 62.3194 16.1802 60.1009 16.1802 56.9951C16.1802 54.1111 18.3987 51.6708 21.5045 51.6708C24.3885 51.6708 26.8288 54.1111 26.8288 56.9951ZM51.6756 92.4905C51.6756 89.6065 53.8941 87.1662 57 87.1662C59.884 87.1662 62.3243 89.6065 62.3243 92.4905C62.3243 95.5963 59.884 97.8148 57 97.8148C53.8941 97.8148 51.6756 95.5963 51.6756 92.4905Z" fill="white"/>
</svg>
