<svg width="144" height="114" viewBox="0 0 144 114" fill="none" xmlns="http://www.w3.org/2000/svg">
<path d="M47.2191 49.896C44.5569 49.896 42.7821 51.8926 42.7821 54.3329C42.7821 56.9951 44.5569 58.7698 47.2191 58.7698C49.6594 58.7698 51.656 56.9951 51.656 54.3329C51.656 51.8926 49.6594 49.896 47.2191 49.896ZM50.7686 17.9501H42.7821C37.236 17.9501 33.0209 22.387 33.0209 27.9332C33.0209 29.9298 34.5738 31.4827 36.5704 31.4827C38.3452 31.4827 40.12 29.9298 40.12 27.9332C40.12 26.3803 41.2292 25.0492 42.7821 25.0492H50.7686C52.7652 25.0492 54.3182 26.6021 54.3182 28.5987C54.3182 29.9298 53.4308 31.039 52.3215 31.7046L45.4443 35.2541C44.3351 35.6978 43.6695 37.0289 43.6695 38.36V42.7969C43.6695 44.7935 45.2225 46.3464 47.2191 46.3464C48.9938 46.3464 50.7686 44.7935 50.7686 42.7969V40.5784L55.4274 37.9163C58.9769 36.1415 61.4172 32.592 61.4172 28.5987C61.4172 22.8307 56.5366 17.9501 50.7686 17.9501ZM93.3631 39.2474C93.3631 17.7283 72.5096 0.202393 47.2191 0.202393C21.7067 0.202393 1.07502 17.7283 1.07502 39.2474C1.07502 48.5649 4.84641 56.9951 11.0581 63.6505C7.73041 70.7495 2.4061 76.5175 2.4061 76.5175C0.853173 78.0705 0.631326 80.2889 1.29687 82.2856C2.18425 84.2822 4.18087 85.3914 6.17749 85.3914C18.1572 85.3914 27.9184 80.9545 34.1301 76.7394C38.3452 77.8486 42.5603 78.2923 47.2191 78.2923C72.5096 78.2923 93.3631 60.9883 93.3631 39.2474ZM47.2191 71.1932C43.4477 71.1932 39.4544 70.7495 35.9049 69.8622L32.7991 69.1966L30.3587 70.9714C25.7 73.8554 18.8227 77.4049 10.3926 78.2923C12.3892 75.4083 15.2732 71.4151 17.4917 66.7563L19.4883 62.3194L16.1606 58.7698C10.8363 53.2237 8.1741 46.3464 8.1741 39.2474C8.1741 21.7215 25.4781 7.30148 47.2191 7.30148C68.7382 7.30148 86.264 21.7215 86.264 39.2474C86.264 56.9951 68.7382 71.1932 47.2191 71.1932ZM135.514 96.9274C140.173 90.7157 143.057 82.9511 143.057 74.7428C143.057 53.2237 123.978 35.6978 100.462 35.6978C100.24 35.6978 100.24 35.9197 100.24 35.9197C100.24 37.0289 100.462 38.1381 100.462 39.2474C100.462 40.5784 100.24 41.6877 100.24 43.0187C100.24 43.0187 100.24 42.7969 100.462 42.7969C119.985 42.7969 135.958 57.2169 135.958 74.7428C135.958 81.1763 133.739 87.388 129.746 92.7123L126.862 96.4837L129.524 100.699C130.855 102.917 132.408 105.136 133.517 106.689C129.524 106.245 125.531 105.136 121.538 103.361L118.654 102.252L115.991 103.583C110.889 105.579 105.787 106.689 100.462 106.689C83.6019 106.689 69.8474 96.4837 66.076 82.5074C63.8575 83.1729 61.4172 83.8385 58.9769 84.2822C63.6357 101.364 80.2742 113.788 100.462 113.788C106.896 113.788 113.107 112.457 118.875 110.016C124.2 112.235 130.411 113.788 137.732 113.788C139.729 113.788 141.726 112.679 142.613 110.682C143.279 108.685 142.835 106.467 141.504 105.136C141.504 104.914 138.398 101.586 135.514 96.9274ZM87.1514 75.1865C85.8203 76.7394 85.8203 78.9579 87.1514 80.2889L95.5816 88.4973C96.2471 89.1628 97.1345 89.6065 98.0219 89.6065C98.9093 89.6065 99.7967 89.1628 100.462 88.4973L118.875 70.3058C120.207 68.9748 120.207 66.5345 118.875 65.2034C117.544 63.8723 115.104 63.8723 113.773 65.2034L98.0219 81.1763L92.2539 75.4083C90.9228 73.8554 88.4825 73.8554 87.1514 75.1865Z" fill="white"/>
</svg>
