<svg width="128" height="115" viewBox="0 0 128 115" fill="none" xmlns="http://www.w3.org/2000/svg">
<path d="M17.854 79.0255H3.65528C1.65858 79.0255 0.105591 80.8003 0.105591 82.5752V110.973C0.105591 112.969 1.65858 114.522 3.65528 114.522H17.854C19.6289 114.522 21.4037 112.969 21.4037 110.973V82.5752C21.4037 80.8003 19.6289 79.0255 17.854 79.0255ZM14.3043 107.423H7.20497V86.1249H14.3043V107.423ZM124.345 43.5286H110.146C108.149 43.5286 106.596 45.3035 106.596 47.0783V110.973C106.596 112.969 108.149 114.522 110.146 114.522H124.345C126.119 114.522 127.894 112.969 127.894 110.973V47.0783C127.894 45.3035 126.119 43.5286 124.345 43.5286ZM120.795 107.423H113.696V50.628H120.795V107.423ZM111.477 20.6775C113.252 21.7868 115.027 22.2305 117.245 22.2305C123.014 22.2305 127.894 17.5715 127.894 11.5814C127.894 5.81319 123.014 0.932373 117.245 0.932373C111.255 0.932373 106.596 5.81319 106.596 11.5814C106.596 12.9126 106.818 14.0218 107.04 15.1311L87.2948 31.1047C85.5199 29.9954 83.7451 29.3299 81.7484 29.3299C79.5298 29.3299 77.755 29.9954 75.9802 31.1047L56.235 15.1311C56.4569 14.0218 56.9006 12.9126 56.9006 11.5814C56.9006 5.81319 52.0198 0.932373 46.2515 0.932373C40.2614 0.932373 35.6025 5.81319 35.6025 11.5814C35.6025 13.3563 35.8243 14.9093 36.4899 16.2404L15.1918 37.5385C13.8606 36.873 12.3076 36.4292 10.7547 36.4292C4.76456 36.4292 0.105591 41.3101 0.105591 47.0783C0.105591 53.0684 4.76456 57.7274 10.7547 57.7274C16.5229 57.7274 21.4037 53.0684 21.4037 47.0783C21.4037 45.5253 20.96 43.9723 20.2944 42.6412L41.5926 21.3431C42.9237 22.0086 44.4767 22.2305 46.2515 22.2305C48.2482 22.2305 50.0231 21.7868 51.7979 20.6775L71.5431 36.6511C71.3212 37.7604 71.0993 38.8697 71.0993 39.9789C71.0993 45.969 75.7583 50.628 81.7484 50.628C87.5166 50.628 92.3975 45.969 92.3975 39.9789C92.3975 38.8697 91.9538 37.7604 91.7319 36.6511L111.477 20.6775ZM117.245 8.03175C119.02 8.03175 120.795 9.80659 120.795 11.5814C120.795 13.5781 119.02 15.1311 117.245 15.1311C115.249 15.1311 113.696 13.5781 113.696 11.5814C113.696 9.80659 115.249 8.03175 117.245 8.03175ZM10.7547 50.628C8.75795 50.628 7.20497 49.075 7.20497 47.0783C7.20497 45.3035 8.75795 43.5286 10.7547 43.5286C12.5295 43.5286 14.3043 45.3035 14.3043 47.0783C14.3043 49.075 12.5295 50.628 10.7547 50.628ZM46.2515 15.1311C44.2548 15.1311 42.7018 13.5781 42.7018 11.5814C42.7018 9.80659 44.2548 8.03175 46.2515 8.03175C48.0264 8.03175 49.8012 9.80659 49.8012 11.5814C49.8012 13.5781 48.0264 15.1311 46.2515 15.1311ZM81.7484 43.5286C79.7517 43.5286 78.1987 41.9756 78.1987 39.9789C78.1987 38.2041 79.7517 36.4292 81.7484 36.4292C83.5232 36.4292 85.2981 38.2041 85.2981 39.9789C85.2981 41.9756 83.5232 43.5286 81.7484 43.5286ZM53.3509 43.5286H39.1522C37.1555 43.5286 35.6025 45.3035 35.6025 47.0783V110.973C35.6025 112.969 37.1555 114.522 39.1522 114.522H53.3509C55.1257 114.522 56.9006 112.969 56.9006 110.973V47.0783C56.9006 45.3035 55.1257 43.5286 53.3509 43.5286ZM49.8012 107.423H42.7018V50.628H49.8012V107.423ZM88.8478 71.9261H74.649C72.6523 71.9261 71.0993 73.701 71.0993 75.4758V110.973C71.0993 112.969 72.6523 114.522 74.649 114.522H88.8478C90.6226 114.522 92.3975 112.969 92.3975 110.973V75.4758C92.3975 73.701 90.6226 71.9261 88.8478 71.9261ZM85.2981 107.423H78.1987V79.0255H85.2981V107.423Z" fill="white"/>
</svg>
