<svg width="144" height="114" viewBox="0 0 144 114" fill="none" xmlns="http://www.w3.org/2000/svg">
<path d="M106.022 39.19H86.2778C84.2812 39.19 82.7283 40.9648 82.7283 42.7396C82.7283 44.7362 84.2812 46.2891 86.2778 46.2891H106.022C106.91 46.2891 107.575 46.9546 107.575 47.842V57.8251C107.575 58.7125 106.91 59.1562 106.022 59.1562H104.026C102.029 59.1562 100.476 60.931 100.476 62.7057V72.6888C100.476 76.4602 97.8139 79.1224 94.4862 79.1224H93.3769C91.3803 79.1224 89.8274 80.8971 89.8274 82.6719C89.8274 88.2181 85.3905 92.655 80.0661 92.655L54.332 92.4331C53.6664 92.4331 53.0009 92.655 52.5572 93.0987L27.7104 107.297C25.9356 108.184 25.2701 110.403 26.3793 111.956C27.0449 113.287 28.1541 113.73 29.4852 113.73C29.9289 113.73 30.5944 113.73 31.0381 113.287L55.2194 99.5322H80.0661C88.0526 99.5322 94.9299 93.7642 96.4828 86.2214C102.694 85.1122 107.575 79.5661 107.575 72.6888V66.2553C111.568 65.5897 114.674 62.0402 114.674 57.8251V47.842C114.674 43.1832 110.681 39.19 106.022 39.19ZM29.0415 59.378C29.0415 49.8386 33.7003 40.9648 41.9086 36.0842C43.4615 35.1968 44.127 32.9783 43.0178 31.4254C42.1304 29.6506 39.912 28.9851 38.1372 30.0943C28.5978 35.8623 22.6079 46.0672 21.9424 57.3814L2.8636 68.2519C1.08883 69.1393 0.423294 71.3577 1.53253 72.9107C2.19806 74.2417 3.3073 74.6854 4.63838 74.6854C5.08207 74.6854 5.74761 74.6854 6.1913 74.2417L29.0415 61.5965V59.378ZM63.2058 64.0368C69.8612 64.0368 75.6292 58.4907 75.6292 51.6134V34.3094C75.6292 32.5346 73.8544 30.7598 72.0797 30.7598C70.0831 30.7598 68.5301 32.5346 68.5301 34.3094V51.6134C68.5301 54.7193 66.0898 56.9377 63.2058 56.9377C60.1 56.9377 57.8815 54.7193 57.8815 51.6134V26.3229C57.8815 25.4355 58.3252 24.3263 59.2126 23.8826C65.4243 20.1112 72.3015 17.8928 79.6225 17.8928H93.3769C93.8206 17.8928 94.4862 17.8928 94.9299 17.4491C94.9299 17.4491 94.9299 17.4491 95.1517 17.4491L112.899 6.80044C114.452 5.91305 115.118 3.69459 114.009 1.91981C113.121 0.366889 110.903 -0.29865 109.128 0.810582L92.2677 10.7937H79.6225C70.9704 10.7937 62.7621 13.234 55.4412 17.8928C52.5572 19.6675 50.7824 22.9952 50.7824 26.3229V51.6134C50.7824 58.4907 56.3286 64.0368 63.2058 64.0368ZM142.405 40.9648C141.296 39.19 139.077 38.7463 137.524 39.8556L123.326 48.7294C121.773 49.8386 121.108 52.0571 122.217 53.61C122.883 54.7193 123.992 55.3848 125.323 55.3848C125.988 55.3848 126.654 55.163 127.098 54.7193L141.296 45.8454C143.071 44.7362 143.514 42.5177 142.405 40.9648Z" fill="white"/>
</svg>
