<svg width="114" height="114" viewBox="0 0 114 114" fill="none" xmlns="http://www.w3.org/2000/svg">
<path d="M41.6926 22.6089C43.0236 23.94 43.0236 26.3803 41.6926 27.7113L34.5935 34.8104C33.2624 36.1415 30.8221 36.1415 29.491 34.8104C28.1599 33.4794 28.1599 31.039 29.491 29.708L36.5901 22.6089C37.9212 21.2778 40.3615 21.2778 41.6926 22.6089ZM0.207275 56.9951C0.207275 25.7147 25.4978 0.202393 57 0.202393C88.2803 0.202393 113.793 25.7147 113.793 56.9951C113.793 88.4973 88.2803 113.788 57 113.788C25.4978 113.788 0.207275 88.4973 0.207275 56.9951ZM106.028 64.0942C106.472 61.8757 106.694 59.4354 106.694 56.9951C106.694 31.7046 87.6148 10.851 63.2116 7.74517L62.1024 11.7384C65.4301 10.851 68.9797 12.1821 70.9763 15.0661C73.8603 19.2812 72.3074 25.0492 67.8704 27.2677L54.7815 33.7012C53.8941 34.1449 53.4504 35.0323 53.4504 35.9197C53.4504 37.9163 52.563 39.9129 51.2319 41.244L47.0169 45.2372C46.5732 45.9027 46.3513 46.5683 46.3513 47.2338V47.6775C46.3513 49.0086 47.2387 49.896 48.5698 49.896C49.4572 49.896 50.1227 49.6741 50.5664 49.0086L52.7849 45.9027C54.3378 43.9061 56.5563 42.7969 58.7747 42.7969C60.7713 42.7969 62.768 43.6843 64.099 45.0154L64.7646 45.6809C65.2083 46.3464 66.3175 46.3464 66.7612 45.6809L73.8603 38.5818C76.7443 35.6978 81.8467 37.6944 81.8467 41.9095V43.9061C81.8467 45.2372 82.956 46.3464 84.2871 46.3464H85.1744C90.2769 46.3464 93.1609 52.5581 89.8332 56.5514C89.1677 57.4388 89.1677 58.9917 90.2769 59.8791L93.8264 62.7631C94.9357 63.6505 96.2668 64.0942 97.5978 64.0942H106.028ZM104.475 71.1932H97.5978C94.492 71.1932 91.608 70.3058 89.1677 68.3092L85.84 65.4252C82.2904 62.3194 81.4031 57.4388 83.3997 53.4455C79.6283 53.2237 76.5224 50.7834 75.1914 47.2338L71.8637 50.7834C68.536 54.1111 62.9898 54.1111 59.6621 50.7834L58.9966 50.1178C58.9966 50.1178 58.9966 49.896 58.7747 49.896L58.5529 50.1178L56.1126 53.2237C54.3378 55.664 51.6756 56.9951 48.5698 56.9951C43.4673 56.9951 39.2522 52.78 39.2522 47.6775V47.2338C39.2522 44.5717 40.1396 42.1314 41.9144 40.3566L46.1295 36.1415C46.1295 36.1415 46.3513 36.1415 46.3513 35.9197C46.3513 32.3701 48.3479 29.0424 51.4538 27.4895L64.7646 20.8341C65.2083 20.6123 65.4301 19.7249 65.2083 19.0593C64.7646 18.6156 64.099 18.3938 63.6553 18.6156L61.8806 19.503C57.8873 21.4996 53.2286 17.9501 54.3378 13.5132L55.8907 7.52332C28.8255 7.96702 7.30636 29.9298 7.30636 56.9951C7.30636 84.2822 29.0473 106.467 56.1126 106.689C55.0033 104.692 53.0067 103.139 50.3446 103.139C46.795 103.139 43.2455 101.808 40.8052 99.3677L37.2556 95.8182C33.9279 92.4905 32.1532 87.8317 32.1532 83.1729V82.5074C32.1532 76.5175 35.0372 70.9714 39.9178 67.6437L46.1295 63.6505C49.0135 61.6538 52.3412 60.5446 55.8907 60.5446H60.5495C64.7646 60.5446 68.7578 62.0975 72.0855 64.9815L77.8535 69.8622C78.9627 70.7495 80.2938 71.1932 81.6249 71.1932C84.9526 71.1932 88.0584 72.5243 90.4988 74.9646L91.3861 75.852C92.9391 77.4049 95.1575 78.2923 97.376 78.2923H101.813C102.922 76.0739 103.81 73.6335 104.475 71.1932ZM97.5978 85.3914H97.376C93.1609 85.3914 89.1677 83.8385 86.2837 80.9545L85.3963 80.0671C84.2871 78.9579 82.956 78.2923 81.6249 78.2923C78.5191 78.2923 75.635 77.4049 73.4166 75.4083L67.4267 70.3058C65.4301 68.7529 62.9898 67.6437 60.5495 67.6437H55.8907C53.6723 67.6437 51.6756 68.3092 49.9009 69.6403L43.911 73.6335C41.027 75.6302 39.2522 78.9579 39.2522 82.5074V83.1729C39.2522 86.0569 40.3615 88.7191 42.3581 90.7157L45.9076 94.2653C47.0169 95.3745 48.5698 96.04 50.3446 96.04C56.7781 96.04 62.1024 100.477 63.6553 106.245C77.6317 104.47 89.8332 96.7056 97.5978 85.3914Z" fill="white"/>
</svg>
