<svg width="104" height="114" viewBox="0 0 104 114" fill="none" xmlns="http://www.w3.org/2000/svg">
<path d="M20.0542 3.75193C20.0542 1.97716 18.2794 0.202393 16.5047 0.202393C14.5081 0.202393 12.9551 1.97716 12.9551 3.75193V16.1753H20.0542V3.75193ZM16.5047 16.1753C7.63082 16.1753 0.531738 23.4963 0.531738 32.1483C0.531738 39.9129 5.63421 46.1246 12.9551 47.8994V110.238C12.9551 112.235 14.5081 113.788 16.5047 113.788C18.2794 113.788 20.0542 112.235 20.0542 110.238V47.8994C27.1533 46.1246 32.4776 39.9129 32.4776 32.1483C32.4776 23.4963 25.1567 16.1753 16.5047 16.1753ZM16.5047 41.0221C11.4022 41.0221 7.63082 37.2507 7.63082 32.1483C7.63082 27.2677 11.4022 23.2744 16.5047 23.2744C21.3853 23.2744 25.3785 27.2677 25.3785 32.1483C25.3785 37.2507 21.3853 41.0221 16.5047 41.0221ZM91.0451 30.8172V3.75193C91.0451 1.97716 89.2703 0.202393 87.4955 0.202393C85.4989 0.202393 83.946 1.97716 83.946 3.75193V30.8172C76.6251 32.592 71.5226 38.8037 71.5226 46.3464C71.5226 54.1111 76.6251 60.3228 83.946 62.0975V110.238C83.946 112.235 85.4989 113.788 87.4955 113.788C89.2703 113.788 91.0451 112.235 91.0451 110.238V62.0975C98.1441 60.3228 103.468 54.1111 103.468 46.3464C103.468 38.8037 98.1441 32.592 91.0451 30.8172ZM87.4955 55.2203C82.3931 55.2203 78.6217 51.4489 78.6217 46.3464C78.6217 41.4658 82.3931 37.4726 87.4955 37.4726C92.3761 37.4726 96.3694 41.4658 96.3694 46.3464C96.3694 51.4489 92.3761 55.2203 87.4955 55.2203ZM52.0001 58.7698C43.1262 58.7698 36.0272 66.0908 36.0272 74.7428C36.0272 82.5074 41.1296 88.7191 48.4506 90.4939V110.238C48.4506 112.235 50.0035 113.788 52.0001 113.788C53.7749 113.788 55.5496 112.235 55.5496 110.238V90.4939C62.6487 88.7191 67.973 82.5074 67.973 74.7428C67.973 66.0908 60.6521 58.7698 52.0001 58.7698ZM52.0001 83.6166C46.8976 83.6166 43.1262 79.8452 43.1262 74.7428C43.1262 69.8622 46.8976 65.8689 52.0001 65.8689C56.8807 65.8689 60.874 69.8622 60.874 74.7428C60.874 79.8452 56.8807 83.6166 52.0001 83.6166ZM55.5496 3.75193C55.5496 1.97716 53.7749 0.202393 52.0001 0.202393C50.0035 0.202393 48.4506 1.97716 48.4506 3.75193V58.7698H55.5496V3.75193Z" fill="white"/>
</svg>
