<svg width="83" height="83" viewBox="0 0 83 83" fill="none" xmlns="http://www.w3.org/2000/svg">
<g id="cj_logo" clip-path="url(#clip0_1703_38003)">
<g id="Symbols">
<g id="footer/dark_icons_fill">
<g id="Group-12">
<g id="Page-1">
<g id="Group-21">
<g id="Mask group">
<mask id="mask0_1703_38003" style="mask-type:luminance" maskUnits="userSpaceOnUse" x="0" y="0" width="83" height="83">
<g id="Group">
<path id="Vector" d="M0 0.198242H82.9803V83.0002H0V0.198242Z" fill="white"/>
</g>
</mask>
<g mask="url(#mask0_1703_38003)">
<path id="Fill-19" fill-rule="evenodd" clip-rule="evenodd" d="M41.4913 4.99014C21.2405 4.99014 4.7621 21.4107 4.7621 41.5993C4.7621 61.7849 21.2405 78.2084 41.4913 78.2084C61.7424 78.2084 78.2169 61.7849 78.2169 41.5993C78.2169 21.4107 61.7424 4.99014 41.4913 4.99014ZM41.4913 83.0003C18.614 83.0003 0 64.4264 0 41.5993C0 18.7695 18.614 0.198242 41.4913 0.198242C64.3689 0.198242 82.9804 18.7695 82.9804 41.5993C82.9804 64.4264 64.3689 83.0003 41.4913 83.0003Z" fill="#025450"/>
</g>
</g>
</g>
<path id="Fill-22" fill-rule="evenodd" clip-rule="evenodd" d="M35.6493 39.1536H50.7539C50.7539 39.1536 47.6187 54.741 47.6146 54.7998C47.432 55.5715 46.8544 56.7091 45.7663 57.5851L45.6631 57.6812C44.81 58.3405 43.6413 58.8561 42.0887 58.8561H31.4477C31.1121 60.4371 30.3355 64.1756 29.8789 66.4H39.8427C53.8633 66.4 56.6277 54.5272 56.7309 54.0494C56.7309 54.0494 60.7378 34.8407 61.4189 31.54C58.1346 31.54 39.4561 31.5802 37.218 31.5802C36.8986 33.1612 36.1208 36.9212 35.6493 39.1536Z" fill="#025450"/>
<path id="Fill-24" fill-rule="evenodd" clip-rule="evenodd" d="M42.7108 53.1207C43.0374 51.5437 43.7748 47.7904 44.2349 45.5387H34.5552C34.3477 45.5387 32.8392 45.4373 31.6652 44.452C31.4848 44.2913 31.3047 44.1173 31.1492 43.9058C31.1285 43.8924 31.1181 43.8816 31.1053 43.8521C30.1875 42.645 30.4442 41.0787 30.5039 40.7414C30.5039 40.7414 32.6707 29.9173 32.6746 29.8717C32.8547 29.1009 33.4081 27.9923 34.4334 27.1062L34.6095 26.959C35.4428 26.3057 36.5447 25.8238 38.0233 25.8238H48.2888C48.6038 24.2201 49.3567 20.4882 49.8001 18.2607H40.1824C26.6522 18.2607 23.9942 30.129 23.8786 30.624L21.7274 41.416C21.7158 41.4695 20.8279 46.4411 23.552 49.8012C25.3368 52.0069 28.3199 53.1207 32.4492 53.1207H42.7108Z" fill="#025450"/>
</g>
</g>
</g>
</g>
</g>
<defs>
<clipPath id="clip0_1703_38003">
<rect width="83" height="83" fill="white"/>
</clipPath>
</defs>
</svg>
