<svg width="228" height="180" viewBox="0 0 228 180" fill="none" xmlns="http://www.w3.org/2000/svg">
<g id="Frame 69571">
<rect x="1" y="1" width="226" height="178" rx="17" fill="white" fill-opacity="0.9"/>
<rect x="1" y="1" width="226" height="178" rx="17" stroke="white" stroke-width="2"/>
<g id="Group">
<g id="Group_2">
<path id="Vector" d="M69.4689 51.702C70.9953 52.3045 69.7501 59.1734 66.6169 67.0063C63.5239 74.8392 59.7481 80.7038 58.1815 80.1013C56.6551 79.4988 57.9003 72.6299 61.0335 64.797C64.1666 56.924 67.9425 51.0995 69.4689 51.702Z" fill="#9CD137"/>
<path id="Vector_2" d="M50.1865 50.0148C51.8736 49.6533 53.8017 55.9598 54.5248 64.0738C55.2478 72.1879 54.4444 79.097 52.7574 79.4585C51.0703 79.82 49.1422 73.5135 48.4191 65.3994C47.7363 57.2853 48.4995 50.3763 50.1865 50.0148Z" fill="#9CD137"/>
<path id="Vector_3" d="M31.8295 59.6957C33.1952 58.4505 37.8548 62.5477 42.193 68.7738C46.5312 75.0401 48.9414 81.1056 47.5756 82.3509C46.2099 83.5961 41.5503 79.4989 37.2121 73.2727C32.8739 67.0064 30.4637 60.941 31.8295 59.6957Z" fill="#9CD137"/>
<path id="Vector_4" d="M19.2573 77.5308C19.9401 75.7634 26.0458 76.4864 32.8744 79.2179C39.7031 81.9092 44.6439 85.5244 43.9208 87.2918C43.1978 89.0592 37.1323 88.2961 30.3037 85.6047C23.5151 82.9134 18.5342 79.2982 19.2573 77.5308Z" fill="#9CD137"/>
<path id="Vector_5" d="M16.0032 99.0604C15.8425 97.2127 21.7473 94.441 29.2187 92.8744C36.6901 91.3078 42.8359 91.5087 42.9966 93.3564C43.1572 95.2042 37.2525 97.9758 29.7811 99.5424C22.3499 101.109 16.1639 100.908 16.0032 99.0604Z" fill="#9CD137"/>
<path id="Vector_6" d="M22.8328 118.623C21.8687 117.217 26.0061 111.674 32.1117 106.211C38.2174 100.788 43.9615 97.5346 44.9255 98.9405C45.8896 100.346 41.7522 105.89 35.6466 111.353C29.5409 116.775 23.7968 120.029 22.8328 118.623Z" fill="#9CD137"/>
<path id="Vector_7" d="M38.1776 130.392C36.6512 129.79 37.8964 122.921 41.0296 115.088C44.1226 107.255 47.8984 101.39 49.465 101.993C50.9914 102.595 49.7462 109.464 46.613 117.297C43.4799 125.13 39.704 130.995 38.1776 130.392Z" fill="#9CD137"/>
</g>
<g id="Group_3">
<path id="Vector_8" d="M69.7482 94.7635C68.744 95.366 67.4987 95.7677 66.2937 95.7677C63.4819 95.7677 62.8392 94.0404 63.1605 92.1123C63.5622 89.903 65.169 88.0553 68.1013 88.0553C69.0252 88.0553 70.3508 88.2963 70.9131 88.8587L69.7482 94.7635ZM78.9468 77.8926H72.8412L71.4755 85.2033C70.3507 84.7213 68.9448 84.4401 67.4586 84.4401C61.594 84.4401 57.5369 88.0954 56.7335 92.5943C56.131 96.1292 58.2599 99.9051 63.8032 99.9051C65.8518 99.8247 67.7397 99.182 69.1858 98.3385L69.0252 99.3828H75.0103L78.9468 77.8926Z" fill="black"/>
<path id="Vector_9" d="M89.8324 95.6876C89.7922 96.0089 88.3863 96.6516 87.1411 96.6516C86.1368 96.6516 85.0121 96.1696 85.1728 95.2055C85.454 93.5988 87.6231 92.956 89.2298 92.8757C89.7521 92.8356 90.0734 92.7954 90.3546 92.7552L89.8324 95.6876ZM83.6062 89.6221C85.3736 88.9794 87.2214 88.0555 89.1495 88.0555C90.3545 88.0555 91.0776 88.6178 90.8767 89.7426L90.7964 90.3049C89.0691 90.4255 87.2615 90.6665 86.0966 90.8673C82.0396 91.6707 79.75 92.7954 79.2278 95.7679C78.7859 98.3789 80.9149 99.9454 84.2489 99.9454C86.177 99.9454 88.2658 99.2626 89.8323 98.3789C89.9127 99.4232 90.957 99.9454 92.6843 99.9454C93.7688 99.9454 96.7815 99.5839 97.7054 99.0617L97.5046 96.3302C97.3037 96.4507 96.9823 96.4909 96.7012 96.4909C95.8978 96.4909 95.7371 96.049 95.8174 95.5269L97.0225 88.5375C97.5045 85.806 95.5362 84.4805 92.1621 84.4805C88.4264 84.4805 85.4539 85.3642 81.9994 86.8906L83.6062 89.6221Z" fill="black"/>
<path id="Vector_10" d="M103.408 82.6325H109.715L110.438 78.4951H104.131L103.408 82.6325ZM100.355 99.3829H106.662L109.353 84.9221H103.047L100.355 99.3829Z" fill="black"/>
<path id="Vector_11" d="M110.158 98.9415C110.962 99.303 113.934 99.9055 116.666 99.9055C121.084 99.9055 125.382 98.7406 126.065 95.0049C126.627 91.7914 124.177 90.8675 120.723 90.3052C118.795 89.9838 118.513 89.6223 118.634 89.0198C118.795 88.1763 120.16 87.8549 121.164 87.8549C122.932 87.8549 124.338 88.2164 125.503 88.4574L127.19 85.3644C126.547 85.0029 123.976 84.4004 120.843 84.4004C116.987 84.4004 112.609 85.726 112.006 89.1805C111.524 91.8718 113.211 93.0367 116.184 93.7195C119.236 94.4426 119.558 94.6836 119.437 95.2861C119.317 96.0092 118.031 96.451 117.148 96.451C115.581 96.451 113.372 96.0494 112.127 95.6476L110.158 98.9415Z" fill="black"/>
<path id="Vector_12" d="M132.735 100.387C132.534 100.949 131.65 101.953 131.128 102.435C130.365 103.078 129.32 103.199 128.356 103.199C127.834 103.199 127.352 103.158 126.87 103.078L126.268 106.533C127.312 106.613 128.396 106.613 129.521 106.613C134.422 106.613 136.029 105.247 138.238 101.873L148.842 84.9219H142.335L137.394 93.8795H137.314L135.948 84.9219H129.28L132.735 100.387Z" fill="black"/>
<path id="Vector_13" d="M163.3 95.1252C162.216 95.5269 160.93 95.9687 159.725 95.9687C157.034 95.9687 155.307 94.3218 155.668 92.2732C156.07 89.9032 158.44 88.417 161.613 88.417C162.618 88.417 163.582 88.658 164.505 88.9794L167.116 85.7257C165.831 85.0027 163.3 84.4805 161.131 84.4805C154.905 84.4805 150.205 87.694 149.322 92.5544C148.478 97.2943 152.214 99.9454 157.998 99.9454C160.087 99.9454 163.1 99.3027 164.988 98.4592L163.3 95.1252Z" fill="black"/>
<path id="Vector_14" d="M174.508 92.1529C174.829 90.265 176.115 88.2164 179.127 88.2164C182.14 88.2164 182.702 90.265 182.341 92.1529C182.019 94.0408 180.734 96.0895 177.721 96.0895C174.749 96.1296 174.186 94.0408 174.508 92.1529ZM168.201 92.1529C167.438 96.4912 170.33 99.9055 177.079 99.9055C183.827 99.9055 187.924 96.5313 188.687 92.1529C189.451 87.8147 186.558 84.4004 179.81 84.4004C173.062 84.4405 168.965 87.8147 168.201 92.1529Z" fill="black"/>
<path id="Vector_15" d="M191.178 99.3825H197.484L199.252 90.0232C200.216 89.3805 201.782 88.6976 202.787 88.6976C204.674 88.6976 204.915 89.6215 204.715 90.7864C204.192 93.7589 203.67 96.5707 203.148 99.3423H209.455C210.057 96.1689 210.66 92.9956 211.142 90.0232C211.824 86.0866 210.017 84.3594 206.161 84.3594C203.911 84.3594 201.541 85.3234 199.894 86.4481L200.176 84.8815H193.869L191.178 99.3825Z" fill="black"/>
</g>
</g>
</g>
</svg>
