<svg width="48" height="48" viewBox="0 0 48 48" fill="none" xmlns="http://www.w3.org/2000/svg">
<path d="M47.8165 5.79241C47.8165 3.04894 45.4951 0.727539 42.7516 0.727539H5.60918C2.76019 0.727539 0.544312 3.04894 0.544312 5.79241V42.9348C0.544312 45.7838 2.76019 47.9997 5.60918 47.9997H26.2908V29.323H19.9597V22.2533H26.2908V16.9773C26.2908 10.8573 30.0894 7.4807 35.4708 7.4807C38.1088 7.4807 40.3247 7.69174 41.0633 7.79726V14.2339H37.2646C34.3101 14.2339 33.677 15.6056 33.677 17.6105V22.2533H41.0633L40.1136 29.323H33.677V47.9997H42.7516C45.4951 47.9997 47.8165 45.7838 47.8165 42.9348V5.79241Z" fill="#577590"/>
</svg>
