<svg width="228" height="77" viewBox="0 0 228 77" fill="none" xmlns="http://www.w3.org/2000/svg">
<g clip-path="url(#clip0_1964_21535)">
<path d="M0 4C0 1.79086 1.79086 0 4 0H223.614C225.823 0 227.614 1.79086 227.614 4V72.3025C227.614 74.5117 225.823 76.3025 223.614 76.3025H4C1.79086 76.3025 0 74.5117 0 72.3025V4Z" fill="white"/>
<rect width="227.614" height="2.83827" fill="#34A853"/>
<path d="M58.7162 40.0326C58.7162 38.5913 58.5869 37.2054 58.3466 35.875H39.2031V43.7468H50.1423C49.6618 46.2783 48.2205 48.4218 46.0586 49.8631V54.9816H52.6553C56.4988 51.4337 58.7162 46.2228 58.7162 40.0326Z" fill="#4285F4"/>
<path d="M39.2023 59.8969C44.6904 59.8969 49.2915 58.086 52.6545 54.9816L46.0578 49.8631C44.2469 51.0827 41.9371 51.8218 39.2023 51.8218C33.9175 51.8218 29.4273 48.2555 27.8197 43.4512H21.0566V48.699C24.4012 55.3327 31.2567 59.8969 39.2023 59.8969Z" fill="#34A853"/>
<path d="M27.8204 43.4327C27.4139 42.2131 27.1737 40.9197 27.1737 39.5707C27.1737 38.2218 27.4139 36.9283 27.8204 35.7088V30.4609H21.0574C19.6715 33.1957 18.877 36.2816 18.877 39.5707C18.877 42.8599 19.6715 45.9457 21.0574 48.6805L26.3237 44.5784L27.8204 43.4327Z" fill="#FBBC05"/>
<path d="M39.2023 27.3376C42.1958 27.3376 44.8567 28.3724 46.9817 30.3681L52.8024 24.5474C49.273 21.2583 44.6904 19.2441 39.2023 19.2441C31.2567 19.2441 24.4012 23.8083 21.0566 30.4605L27.8197 35.7083C29.4273 30.9039 33.9175 27.3376 39.2023 27.3376Z" fill="#EA4335"/>
<path d="M74.7757 24.3276C74.1702 24.3276 73.6101 24.2179 73.0955 23.9984C72.5808 23.7789 72.1304 23.4724 71.7444 23.0788C71.3584 22.6852 71.0557 22.2235 70.8362 21.6937C70.6243 21.1639 70.5183 20.5849 70.5183 19.9567C70.5183 19.3285 70.6205 18.7495 70.8248 18.2197C71.0368 17.6823 71.332 17.2206 71.7104 16.8346C72.0964 16.441 72.5467 16.1383 73.0614 15.9264C73.5761 15.7069 74.1362 15.5971 74.7417 15.5971C75.3472 15.5971 75.8883 15.6993 76.3651 15.9037C76.8495 16.108 77.2582 16.3805 77.5913 16.7211C77.9243 17.0541 78.1627 17.4212 78.3065 17.8223L76.9328 18.4808C76.7739 18.0418 76.5052 17.6861 76.1267 17.4136C75.7483 17.1412 75.2866 17.0049 74.7417 17.0049C74.2118 17.0049 73.7426 17.1298 73.3339 17.3796C72.9327 17.6293 72.6186 17.9737 72.3916 18.4127C72.1721 18.8517 72.0623 19.3664 72.0623 19.9567C72.0623 20.5471 72.1759 21.0655 72.4029 21.5121C72.6376 21.9511 72.9592 22.2954 73.3679 22.5452C73.7766 22.795 74.2459 22.9199 74.7757 22.9199C75.2071 22.9199 75.6045 22.8366 75.9678 22.6701C76.3311 22.496 76.6225 22.2538 76.842 21.9435C77.0615 21.6256 77.1712 21.251 77.1712 20.8195V20.1724L77.8751 20.7855H74.7417V19.4799H78.7152V20.3314C78.7152 20.9823 78.6055 21.5575 78.386 22.057C78.1665 22.5566 77.8675 22.9766 77.4891 23.3172C77.1182 23.6502 76.6982 23.9038 76.2289 24.0779C75.7596 24.2444 75.2752 24.3276 74.7757 24.3276ZM82.832 24.3276C82.2265 24.3276 81.674 24.1876 81.1745 23.9076C80.6825 23.6275 80.289 23.2453 79.9938 22.7609C79.7062 22.2765 79.5624 21.724 79.5624 21.1034C79.5624 20.4827 79.7062 19.9302 79.9938 19.4458C80.289 18.9614 80.6825 18.5792 81.1745 18.2992C81.6665 18.0191 82.219 17.8791 82.832 17.8791C83.4375 17.8791 83.9863 18.0191 84.4782 18.2992C84.9702 18.5792 85.36 18.9614 85.6476 19.4458C85.9428 19.9227 86.0904 20.4752 86.0904 21.1034C86.0904 21.724 85.9428 22.2765 85.6476 22.7609C85.3524 23.2453 84.9588 23.6275 84.4669 23.9076C83.9749 24.1876 83.43 24.3276 82.832 24.3276ZM82.832 22.9653C83.1651 22.9653 83.4565 22.8858 83.7062 22.7269C83.9636 22.5679 84.1641 22.3484 84.3079 22.0684C84.4593 21.7808 84.535 21.4591 84.535 21.1034C84.535 20.7401 84.4593 20.4222 84.3079 20.1497C84.1641 19.8697 83.9636 19.6502 83.7062 19.4912C83.4565 19.3247 83.1651 19.2415 82.832 19.2415C82.4914 19.2415 82.1925 19.3247 81.9351 19.4912C81.6778 19.6502 81.4735 19.8697 81.3221 20.1497C81.1783 20.4222 81.1064 20.7401 81.1064 21.1034C81.1064 21.4591 81.1783 21.7808 81.3221 22.0684C81.4735 22.3484 81.6778 22.5679 81.9351 22.7269C82.1925 22.8858 82.4914 22.9653 82.832 22.9653ZM90.2381 24.3276C89.6326 24.3276 89.0801 24.1876 88.5806 23.9076C88.0886 23.6275 87.6951 23.2453 87.3999 22.7609C87.1123 22.2765 86.9685 21.724 86.9685 21.1034C86.9685 20.4827 87.1123 19.9302 87.3999 19.4458C87.6951 18.9614 88.0886 18.5792 88.5806 18.2992C89.0726 18.0191 89.6251 17.8791 90.2381 17.8791C90.8436 17.8791 91.3924 18.0191 91.8843 18.2992C92.3763 18.5792 92.7661 18.9614 93.0537 19.4458C93.3489 19.9227 93.4965 20.4752 93.4965 21.1034C93.4965 21.724 93.3489 22.2765 93.0537 22.7609C92.7585 23.2453 92.3649 23.6275 91.873 23.9076C91.381 24.1876 90.8361 24.3276 90.2381 24.3276ZM90.2381 22.9653C90.5712 22.9653 90.8626 22.8858 91.1123 22.7269C91.3697 22.5679 91.5702 22.3484 91.714 22.0684C91.8654 21.7808 91.9411 21.4591 91.9411 21.1034C91.9411 20.7401 91.8654 20.4222 91.714 20.1497C91.5702 19.8697 91.3697 19.6502 91.1123 19.4912C90.8626 19.3247 90.5712 19.2415 90.2381 19.2415C89.8976 19.2415 89.5986 19.3247 89.3412 19.4912C89.0839 19.6502 88.8796 19.8697 88.7282 20.1497C88.5844 20.4222 88.5125 20.7401 88.5125 21.1034C88.5125 21.4591 88.5844 21.7808 88.7282 22.0684C88.8796 22.3484 89.0839 22.5679 89.3412 22.7269C89.5986 22.8858 89.8976 22.9653 90.2381 22.9653ZM97.6215 26.6891C97.1598 26.6891 96.7322 26.6134 96.3386 26.462C95.9451 26.3106 95.6045 26.0987 95.3169 25.8262C95.0368 25.5613 94.8325 25.2472 94.7038 24.8839L96.0889 24.3617C96.1797 24.6493 96.3576 24.8802 96.6225 25.0542C96.8949 25.2359 97.228 25.3267 97.6215 25.3267C97.9243 25.3267 98.1892 25.2699 98.4162 25.1564C98.6509 25.0429 98.8325 24.8764 98.9612 24.6569C99.0899 24.445 99.1542 24.1876 99.1542 23.8849V22.4771L99.438 22.8177C99.2261 23.1886 98.9423 23.4686 98.5865 23.6578C98.2308 23.847 97.8259 23.9416 97.3718 23.9416C96.7965 23.9416 96.2819 23.8092 95.8278 23.5443C95.3736 23.2794 95.0179 22.9161 94.7606 22.4544C94.5032 21.9927 94.3746 21.4742 94.3746 20.899C94.3746 20.3162 94.5032 19.7978 94.7606 19.3436C95.0179 18.8895 95.3698 18.5338 95.8164 18.2765C96.263 18.0116 96.7701 17.8791 97.3377 17.8791C97.7994 17.8791 98.2043 17.9775 98.5525 18.1743C98.9082 18.3635 99.2034 18.6398 99.438 19.0031L99.2337 19.3777V18.0153H100.641V23.8849C100.641 24.4223 100.509 24.9029 100.244 25.3267C99.9868 25.7506 99.631 26.0836 99.1769 26.3258C98.7304 26.568 98.2119 26.6891 97.6215 26.6891ZM97.5534 22.5679C97.8713 22.5679 98.1476 22.4998 98.3822 22.3636C98.6244 22.2198 98.8136 22.023 98.9498 21.7732C99.0861 21.5234 99.1542 21.2358 99.1542 20.9104C99.1542 20.5925 99.0823 20.3087 98.9385 20.0589C98.8023 19.8016 98.613 19.601 98.3708 19.4572C98.1362 19.3134 97.8637 19.2415 97.5534 19.2415C97.2431 19.2415 96.9631 19.3134 96.7133 19.4572C96.4635 19.601 96.2667 19.8016 96.1229 20.0589C95.9867 20.3087 95.9186 20.5925 95.9186 20.9104C95.9186 21.2283 95.9867 21.5121 96.1229 21.7619C96.2667 22.0116 96.4597 22.2084 96.7019 22.3522C96.9517 22.496 97.2355 22.5679 97.5534 22.5679ZM102.03 24.1914V15.5971H103.518V24.1914H102.03ZM107.82 24.3276C107.184 24.3276 106.628 24.1838 106.151 23.8962C105.674 23.6086 105.303 23.2188 105.038 22.7269C104.774 22.2349 104.641 21.6899 104.641 21.092C104.641 20.4714 104.774 19.9227 105.038 19.4458C105.311 18.9614 105.678 18.5792 106.14 18.2992C106.609 18.0191 107.131 17.8791 107.706 17.8791C108.191 17.8791 108.615 17.9586 108.978 18.1175C109.349 18.2765 109.663 18.496 109.92 18.776C110.178 19.056 110.374 19.3777 110.511 19.741C110.647 20.0967 110.715 20.4827 110.715 20.899C110.715 21.005 110.707 21.1147 110.692 21.2283C110.685 21.3418 110.666 21.4402 110.636 21.5234H105.867V20.3881H109.795L109.092 20.9217C109.16 20.5736 109.141 20.2632 109.035 19.9908C108.936 19.7183 108.77 19.5026 108.535 19.3436C108.308 19.1847 108.032 19.1052 107.706 19.1052C107.396 19.1052 107.12 19.1847 106.878 19.3436C106.635 19.495 106.45 19.7221 106.321 20.0248C106.2 20.32 106.155 20.6795 106.185 21.1034C106.155 21.4818 106.204 21.8186 106.333 22.1138C106.469 22.4014 106.666 22.6247 106.923 22.7836C107.188 22.9426 107.491 23.022 107.831 23.022C108.172 23.022 108.46 22.9501 108.694 22.8063C108.936 22.6625 109.126 22.4695 109.262 22.2273L110.465 22.8177C110.344 23.1129 110.155 23.374 109.898 23.601C109.64 23.8281 109.334 24.006 108.978 24.1346C108.63 24.2633 108.244 24.3276 107.82 24.3276ZM113.985 24.1914V15.7334H117.13C117.705 15.7334 118.212 15.8393 118.651 16.0513C119.098 16.2556 119.446 16.5584 119.696 16.9595C119.945 17.3531 120.07 17.8337 120.07 18.4013C120.07 18.9841 119.93 19.4799 119.65 19.8886C119.378 20.2973 119.007 20.6001 118.538 20.7968L120.479 24.1914H118.731L116.653 20.479L117.652 21.0693H115.529V24.1914H113.985ZM115.529 19.7069H117.153C117.433 19.7069 117.675 19.654 117.879 19.548C118.084 19.4345 118.243 19.2793 118.356 19.0825C118.47 18.8857 118.526 18.6587 118.526 18.4013C118.526 18.1364 118.47 17.9094 118.356 17.7202C118.243 17.5234 118.084 17.372 117.879 17.266C117.675 17.1525 117.433 17.0957 117.153 17.0957H115.529V19.7069ZM123.239 24.3276C122.808 24.3276 122.433 24.2557 122.115 24.1119C121.798 23.9681 121.552 23.7638 121.377 23.4989C121.203 23.2264 121.116 22.9123 121.116 22.5566C121.116 22.216 121.192 21.9132 121.343 21.6483C121.495 21.3758 121.729 21.1488 122.047 20.9671C122.365 20.7855 122.766 20.6568 123.251 20.5811L125.272 20.2519V21.3872L123.535 21.6824C123.239 21.7354 123.02 21.83 122.876 21.9662C122.732 22.1024 122.66 22.2803 122.66 22.4998C122.66 22.7117 122.74 22.882 122.899 23.0107C123.065 23.1318 123.27 23.1923 123.512 23.1923C123.822 23.1923 124.095 23.128 124.329 22.9993C124.571 22.8631 124.757 22.6777 124.886 22.443C125.022 22.2084 125.09 21.9511 125.09 21.671V20.0816C125.09 19.8167 124.984 19.5972 124.772 19.4231C124.568 19.2415 124.295 19.1506 123.955 19.1506C123.637 19.1506 123.353 19.2377 123.103 19.4118C122.861 19.5783 122.683 19.8016 122.57 20.0816L121.355 19.4912C121.476 19.1658 121.665 18.8857 121.922 18.6511C122.187 18.4089 122.498 18.2197 122.853 18.0835C123.209 17.9472 123.595 17.8791 124.011 17.8791C124.518 17.8791 124.965 17.9737 125.351 18.1629C125.737 18.3446 126.036 18.6019 126.248 18.9349C126.467 19.2604 126.577 19.6426 126.577 20.0816V24.1914H125.169V23.1356L125.487 23.1129C125.328 23.3778 125.139 23.601 124.92 23.7827C124.7 23.9568 124.45 24.093 124.17 24.1914C123.89 24.2822 123.58 24.3276 123.239 24.3276ZM130.656 24.2595C129.96 24.2595 129.419 24.0703 129.033 23.6919C128.655 23.3059 128.465 22.7647 128.465 22.0684V19.3436H127.398V18.0153H127.512C127.814 18.0153 128.049 17.9359 128.216 17.7769C128.382 17.618 128.465 17.3871 128.465 17.0844V16.6076H129.953V18.0153H131.372V19.3436H129.953V21.9889C129.953 22.1933 129.987 22.3673 130.055 22.5112C130.13 22.655 130.244 22.7647 130.395 22.8404C130.554 22.9161 130.755 22.9539 130.997 22.9539C131.05 22.9539 131.111 22.9501 131.179 22.9426C131.254 22.935 131.326 22.9274 131.394 22.9199V24.1914C131.288 24.2065 131.167 24.2217 131.031 24.2368C130.895 24.252 130.77 24.2595 130.656 24.2595ZM132.531 24.1914V18.0153H134.018V24.1914H132.531ZM132.531 17.3228V15.7334H134.018V17.3228H132.531ZM135.391 24.1914V18.0153H136.788V19.2301L136.674 19.0144C136.818 18.6435 137.052 18.3635 137.378 18.1743C137.711 17.9775 138.097 17.8791 138.536 17.8791C138.99 17.8791 139.391 17.9775 139.739 18.1743C140.095 18.3711 140.371 18.6473 140.568 19.0031C140.765 19.3512 140.863 19.7561 140.863 20.2178V24.1914H139.376V20.5698C139.376 20.2973 139.323 20.0627 139.217 19.8659C139.111 19.6691 138.964 19.5177 138.774 19.4118C138.593 19.2982 138.377 19.2415 138.127 19.2415C137.885 19.2415 137.669 19.2982 137.48 19.4118C137.291 19.5177 137.143 19.6691 137.037 19.8659C136.931 20.0627 136.878 20.2973 136.878 20.5698V24.1914H135.391ZM145.118 26.6891C144.656 26.6891 144.229 26.6134 143.835 26.462C143.442 26.3106 143.101 26.0987 142.813 25.8262C142.533 25.5613 142.329 25.2472 142.2 24.8839L143.585 24.3617C143.676 24.6493 143.854 24.8802 144.119 25.0542C144.392 25.2359 144.725 25.3267 145.118 25.3267C145.421 25.3267 145.686 25.2699 145.913 25.1564C146.147 25.0429 146.329 24.8764 146.458 24.6569C146.586 24.445 146.651 24.1876 146.651 23.8849V22.4771L146.935 22.8177C146.723 23.1886 146.439 23.4686 146.083 23.6578C145.727 23.847 145.322 23.9416 144.868 23.9416C144.293 23.9416 143.778 23.8092 143.324 23.5443C142.87 23.2794 142.515 22.9161 142.257 22.4544C142 21.9927 141.871 21.4742 141.871 20.899C141.871 20.3162 142 19.7978 142.257 19.3436C142.515 18.8895 142.866 18.5338 143.313 18.2765C143.76 18.0116 144.267 17.8791 144.834 17.8791C145.296 17.8791 145.701 17.9775 146.049 18.1743C146.405 18.3635 146.7 18.6398 146.935 19.0031L146.73 19.3777V18.0153H148.138V23.8849C148.138 24.4223 148.006 24.9029 147.741 25.3267C147.483 25.7506 147.128 26.0836 146.674 26.3258C146.227 26.568 145.709 26.6891 145.118 26.6891ZM145.05 22.5679C145.368 22.5679 145.644 22.4998 145.879 22.3636C146.121 22.2198 146.31 22.023 146.446 21.7732C146.583 21.5234 146.651 21.2358 146.651 20.9104C146.651 20.5925 146.579 20.3087 146.435 20.0589C146.299 19.8016 146.11 19.601 145.867 19.4572C145.633 19.3134 145.36 19.2415 145.05 19.2415C144.74 19.2415 144.46 19.3134 144.21 19.4572C143.96 19.601 143.763 19.8016 143.62 20.0589C143.483 20.3087 143.415 20.5925 143.415 20.9104C143.415 21.2283 143.483 21.5121 143.62 21.7619C143.763 22.0116 143.956 22.2084 144.199 22.3522C144.448 22.496 144.732 22.5679 145.05 22.5679Z" fill="#6A6A6A"/>
<path d="M76.3061 46.0703V43.3456H70.6863V41.1317L76.1358 33.3833H78.9457V41.1317H80.9041V43.3456H78.9457V46.0703H76.3061ZM72.6106 42.0854L72.1168 41.1317H76.3061V35.4268L76.9702 35.6312L72.6106 42.0854ZM83.6136 46.0703V43.5159H86.1681V46.0703H83.6136ZM94.5331 46.0703V43.3456H88.9133V41.1317L94.3628 33.3833H97.1726V41.1317H99.1311V43.3456H97.1726V46.0703H94.5331ZM90.8376 42.0854L90.3438 41.1317H94.5331V35.4268L95.1972 35.6312L90.8376 42.0854Z" fill="#FEA500"/>
<path d="M120.545 31.4157C120.805 30.8906 121.555 30.8906 121.815 31.4157L123.946 35.7043C124.05 35.9122 124.248 36.0565 124.478 36.0905L129.215 36.7918C129.795 36.8776 130.027 37.5901 129.608 38.0005L126.187 41.3523C126.022 41.5148 125.946 41.7482 125.984 41.9771L126.781 46.6992C126.879 47.2773 126.273 47.7177 125.753 47.4462L121.509 45.2291C121.303 45.1216 121.057 45.1216 120.852 45.2291L116.607 47.4462C116.087 47.7177 115.481 47.2773 115.579 46.6992L116.376 41.9771C116.414 41.7482 116.338 41.5148 116.173 41.3523L112.752 38.0005C112.333 37.5901 112.565 36.8776 113.145 36.7918L117.882 36.0905C118.112 36.0565 118.31 35.9122 118.414 35.7043L120.545 31.4157Z" fill="#FEA500"/>
<path d="M140.413 31.4157C140.674 30.8906 141.423 30.8906 141.684 31.4157L143.814 35.7043C143.918 35.9122 144.116 36.0565 144.346 36.0905L149.083 36.7918C149.663 36.8776 149.895 37.5901 149.476 38.0005L146.056 41.3523C145.89 41.5148 145.814 41.7482 145.853 41.9771L146.65 46.6992C146.747 47.2773 146.141 47.7177 145.621 47.4462L141.377 45.2291C141.171 45.1216 140.925 45.1216 140.72 45.2291L136.475 47.4462C135.955 47.7177 135.349 47.2773 135.447 46.6992L136.244 41.9771C136.282 41.7482 136.207 41.5148 136.041 41.3523L132.62 38.0005C132.202 37.5901 132.433 36.8776 133.013 36.7918L137.75 36.0905C137.98 36.0565 138.179 35.9122 138.282 35.7043L140.413 31.4157Z" fill="#FEA500"/>
<path d="M160.28 31.4157C160.541 30.8906 161.29 30.8906 161.551 31.4157L163.682 35.7043C163.785 35.9122 163.983 36.0565 164.213 36.0905L168.95 36.7918C169.53 36.8776 169.762 37.5901 169.343 38.0005L165.923 41.3523C165.757 41.5148 165.681 41.7482 165.72 41.9771L166.517 46.6992C166.614 47.2773 166.008 47.7177 165.489 47.4462L161.244 45.2291C161.038 45.1216 160.793 45.1216 160.587 45.2291L156.342 47.4462C155.822 47.7177 155.216 47.2773 155.314 46.6992L156.111 41.9771C156.15 41.7482 156.074 41.5148 155.908 41.3523L152.488 38.0005C152.069 37.5901 152.3 36.8776 152.88 36.7918L157.618 36.0905C157.847 36.0565 158.046 35.9122 158.149 35.7043L160.28 31.4157Z" fill="#FEA500"/>
<path d="M180.148 31.4157C180.409 30.8906 181.158 30.8906 181.419 31.4157L183.55 35.7043C183.653 35.9122 183.852 36.0565 184.081 36.0905L188.819 36.7918C189.399 36.8776 189.63 37.5901 189.211 38.0005L185.791 41.3523C185.625 41.5148 185.549 41.7482 185.588 41.9771L186.385 46.6992C186.482 47.2773 185.876 47.7177 185.357 47.4462L181.112 45.2291C180.906 45.1216 180.661 45.1216 180.455 45.2291L176.21 47.4462C175.691 47.7177 175.085 47.2773 175.182 46.6992L175.979 41.9771C176.018 41.7482 175.942 41.5148 175.776 41.3523L172.356 38.0005C171.937 37.5901 172.168 36.8776 172.749 36.7918L177.486 36.0905C177.715 36.0565 177.914 35.9122 178.017 35.7043L180.148 31.4157Z" fill="#FEA500"/>
<path d="M200.016 31.4157C200.277 30.8906 201.026 30.8906 201.287 31.4157L203.418 35.7043C203.521 35.9122 203.72 36.0565 203.95 36.0905L208.687 36.7918C209.267 36.8776 209.498 37.5901 209.079 38.0005L205.659 41.3523C205.493 41.5148 205.417 41.7482 205.456 41.9771L206.253 46.6992C206.351 47.2773 205.745 47.7177 205.225 47.4462L200.98 45.2291C200.774 45.1216 200.529 45.1216 200.323 45.2291L196.079 47.4462C195.559 47.7177 194.953 47.2773 195.05 46.6992L195.847 41.9771C195.886 41.7482 195.81 41.5148 195.644 41.3523L192.224 38.0005C191.805 37.5901 192.037 36.8776 192.617 36.7918L197.354 36.0905C197.584 36.0565 197.782 35.9122 197.885 35.7043L200.016 31.4157Z" fill="#FEA500"/>
<path d="M73.2004 63.0514C72.7974 63.0514 72.4312 62.9748 72.102 62.8215C71.7727 62.6682 71.4946 62.4639 71.2675 62.2084C71.0405 61.9473 70.8787 61.6606 70.7822 61.3484L71.3952 61.1185C71.5428 61.55 71.7727 61.8792 72.0849 62.1063C72.3972 62.3276 72.769 62.4383 73.2004 62.4383C73.4729 62.4383 73.7113 62.3958 73.9156 62.3106C74.1257 62.2198 74.2874 62.0949 74.401 61.936C74.5145 61.777 74.5713 61.5925 74.5713 61.3825C74.5713 61.0703 74.4861 60.829 74.3158 60.6587C74.1455 60.4884 73.9014 60.3579 73.5836 60.2671L72.4426 59.9265C71.9941 59.7959 71.6479 59.5774 71.4038 59.2708C71.1653 58.9643 71.0461 58.6152 71.0461 58.2235C71.0461 57.8886 71.1285 57.5934 71.2931 57.338C71.4577 57.0768 71.6819 56.8725 71.9657 56.7249C72.2552 56.5773 72.5816 56.5035 72.9449 56.5035C73.3253 56.5035 73.6659 56.5745 73.9667 56.7164C74.2733 56.8526 74.5315 57.0343 74.7416 57.2613C74.9516 57.4884 75.102 57.741 75.1928 58.0192L74.5968 58.2576C74.4606 57.8829 74.2477 57.5991 73.9582 57.4061C73.6744 57.2131 73.3395 57.1166 72.9535 57.1166C72.7094 57.1166 72.4937 57.1592 72.3063 57.2443C72.1247 57.3295 71.9828 57.4515 71.8806 57.6104C71.7784 57.7694 71.7273 57.9567 71.7273 58.1724C71.7273 58.4335 71.8096 58.6691 71.9743 58.8791C72.1389 59.0835 72.3915 59.2368 72.7321 59.3389L73.7368 59.637C74.2364 59.7846 74.6138 59.9974 74.8693 60.2756C75.1247 60.5537 75.2525 60.9028 75.2525 61.3229C75.2525 61.6635 75.1645 61.9643 74.9885 62.2255C74.8182 62.4809 74.5769 62.6824 74.2647 62.83C73.9582 62.9776 73.6034 63.0514 73.2004 63.0514ZM78.5518 63.0514C78.1261 63.0514 77.7401 62.9492 77.3938 62.7449C77.0532 62.5348 76.7836 62.2482 76.5849 61.8849C76.3862 61.5216 76.2869 61.11 76.2869 60.6502C76.2869 60.1904 76.3834 59.7846 76.5764 59.4326C76.7694 59.075 77.0305 58.794 77.3597 58.5896C77.6946 58.3853 78.0693 58.2831 78.4837 58.2831C78.8129 58.2831 79.1053 58.3456 79.3607 58.4704C79.6218 58.5896 79.8432 58.7543 80.0249 58.9643C80.2065 59.1686 80.3456 59.4014 80.4421 59.6625C80.5386 59.918 80.5868 60.1819 80.5868 60.4544C80.5868 60.5111 80.584 60.5764 80.5783 60.6502C80.5726 60.7183 80.5641 60.7893 80.5528 60.8631H76.6956V60.2671H80.1866L79.8801 60.5225C79.9312 60.2103 79.8943 59.9321 79.7694 59.6881C79.6502 59.4383 79.4771 59.2424 79.25 59.1005C79.023 58.9529 78.7675 58.8791 78.4837 58.8791C78.1999 58.8791 77.9359 58.9529 77.6918 59.1005C77.4534 59.2481 77.2661 59.4553 77.1298 59.7221C76.9936 59.9832 76.9397 60.2954 76.9681 60.6587C76.9397 61.022 76.9964 61.3399 77.1383 61.6124C77.2859 61.8792 77.4846 62.0864 77.7344 62.234C77.9898 62.3816 78.2623 62.4554 78.5518 62.4554C78.8867 62.4554 79.1677 62.3759 79.3948 62.2169C79.6218 62.058 79.8063 61.8593 79.9482 61.6209L80.4932 61.9104C80.4024 62.1148 80.2633 62.3049 80.076 62.4809C79.8886 62.6512 79.6644 62.7903 79.4033 62.8981C79.1478 63.0003 78.864 63.0514 78.5518 63.0514ZM83.7904 63.0514C83.3647 63.0514 82.9787 62.9492 82.6324 62.7449C82.2918 62.5348 82.0222 62.2482 81.8235 61.8849C81.6248 61.5216 81.5255 61.11 81.5255 60.6502C81.5255 60.1904 81.622 59.7846 81.815 59.4326C82.008 59.075 82.2691 58.794 82.5983 58.5896C82.9332 58.3853 83.3079 58.2831 83.7223 58.2831C84.0515 58.2831 84.3439 58.3456 84.5993 58.4704C84.8604 58.5896 85.0818 58.7543 85.2635 58.9643C85.4451 59.1686 85.5842 59.4014 85.6807 59.6625C85.7772 59.918 85.8254 60.1819 85.8254 60.4544C85.8254 60.5111 85.8226 60.5764 85.8169 60.6502C85.8112 60.7183 85.8027 60.7893 85.7914 60.8631H81.9342V60.2671H85.4252L85.1187 60.5225C85.1698 60.2103 85.1329 59.9321 85.008 59.6881C84.8888 59.4383 84.7157 59.2424 84.4886 59.1005C84.2616 58.9529 84.0061 58.8791 83.7223 58.8791C83.4385 58.8791 83.1745 58.9529 82.9304 59.1005C82.692 59.2481 82.5047 59.4553 82.3684 59.7221C82.2322 59.9832 82.1783 60.2954 82.2066 60.6587C82.1783 61.022 82.235 61.3399 82.3769 61.6124C82.5245 61.8792 82.7232 62.0864 82.973 62.234C83.2284 62.3816 83.5009 62.4554 83.7904 62.4554C84.1253 62.4554 84.4063 62.3759 84.6334 62.2169C84.8604 62.058 85.0449 61.8593 85.1868 61.6209L85.7318 61.9104C85.6409 62.1148 85.5019 62.3049 85.3145 62.4809C85.1272 62.6512 84.903 62.7903 84.6419 62.8981C84.3864 63.0003 84.1026 63.0514 83.7904 63.0514ZM89.718 63.0514C89.4285 63.0514 89.1702 62.9975 88.9432 62.8896C88.7161 62.7761 88.5373 62.6228 88.4068 62.4298C88.2762 62.2368 88.2109 62.0154 88.2109 61.7657C88.2109 61.5272 88.262 61.3115 88.3642 61.1185C88.4664 60.9199 88.6253 60.7524 88.841 60.6162C89.0567 60.4799 89.332 60.3834 89.6669 60.3267L91.455 60.0286V60.6076L89.8202 60.8801C89.491 60.9369 89.2526 61.0419 89.105 61.1952C88.9631 61.3484 88.8921 61.5301 88.8921 61.7401C88.8921 61.9445 88.9716 62.1176 89.1305 62.2595C89.2951 62.4014 89.5052 62.4724 89.7606 62.4724C90.0728 62.4724 90.3453 62.4071 90.578 62.2765C90.8108 62.1403 90.9924 61.9587 91.123 61.7316C91.2535 61.5045 91.3188 61.2519 91.3188 60.9738V59.8158C91.3188 59.5433 91.2195 59.3219 91.0208 59.1516C90.8221 58.9813 90.5638 58.8962 90.2459 58.8962C89.9678 58.8962 89.7237 58.9671 89.5137 59.109C89.3036 59.2453 89.1475 59.4241 89.0454 59.6455L88.4664 59.3304C88.5515 59.1374 88.6849 58.9615 88.8666 58.8025C89.0539 58.6436 89.2667 58.5187 89.5052 58.4279C89.7436 58.3314 89.9905 58.2831 90.2459 58.2831C90.5809 58.2831 90.876 58.3484 91.1315 58.4789C91.3926 58.6095 91.5941 58.7912 91.736 59.0239C91.8836 59.251 91.9574 59.5149 91.9574 59.8158V62.9492H91.3188V62.0381L91.4125 62.1318C91.333 62.3021 91.2081 62.4582 91.0378 62.6001C90.8732 62.7363 90.6774 62.847 90.4503 62.9322C90.2289 63.0117 89.9848 63.0514 89.718 63.0514ZM93.271 62.9492V56.5035H93.9096V62.9492H93.271ZM95.2167 62.9492V56.5035H95.8553V62.9492H95.2167ZM100.747 63.0514C100.315 63.0514 99.9235 62.9492 99.5715 62.7449C99.2196 62.5348 98.9386 62.251 98.7285 61.8934C98.5242 61.5301 98.422 61.1185 98.422 60.6587C98.422 60.2046 98.5242 59.7987 98.7285 59.4411C98.9329 59.0835 99.2082 58.8025 99.5545 58.5982C99.9064 58.3881 100.304 58.2831 100.747 58.2831C101.189 58.2831 101.584 58.3853 101.93 58.5896C102.282 58.794 102.557 59.075 102.756 59.4326C102.96 59.7902 103.063 60.1989 103.063 60.6587C103.063 61.1242 102.958 61.5386 102.748 61.9019C102.538 62.2595 102.257 62.5405 101.905 62.7449C101.558 62.9492 101.172 63.0514 100.747 63.0514ZM100.747 62.4128C101.053 62.4128 101.328 62.3362 101.572 62.1829C101.822 62.0296 102.018 61.8196 102.16 61.5528C102.308 61.286 102.381 60.988 102.381 60.6587C102.381 60.3295 102.308 60.0343 102.16 59.7732C102.018 59.5121 101.822 59.3049 101.572 59.1516C101.328 58.9984 101.053 58.9217 100.747 58.9217C100.44 58.9217 100.162 58.9984 99.9121 59.1516C99.668 59.3049 99.4722 59.5121 99.3246 59.7732C99.177 60.0343 99.1032 60.3295 99.1032 60.6587C99.1032 60.988 99.177 61.286 99.3246 61.5528C99.4722 61.8196 99.668 62.0296 99.9121 62.1829C100.162 62.3362 100.44 62.4128 100.747 62.4128ZM105.807 63.0514C105.489 63.0514 105.199 62.9776 104.938 62.83C104.677 62.6767 104.47 62.4667 104.317 62.1999C104.169 61.9274 104.095 61.6152 104.095 61.2633V58.3853H104.734V61.1867C104.734 61.4307 104.782 61.6465 104.879 61.8338C104.981 62.0154 105.12 62.1573 105.296 62.2595C105.477 62.3617 105.685 62.4128 105.917 62.4128C106.15 62.4128 106.357 62.3617 106.539 62.2595C106.721 62.1517 106.863 62.0012 106.965 61.8082C107.067 61.6096 107.118 61.374 107.118 61.1015V58.3853H107.757V62.9492H107.118V62.0637L107.263 62.0977C107.155 62.3929 106.97 62.6257 106.709 62.796C106.448 62.9662 106.147 63.0514 105.807 63.0514ZM109.07 62.9492V58.3853H109.709V59.1346L109.623 59.0239C109.731 58.8082 109.893 58.6379 110.109 58.513C110.33 58.3881 110.597 58.3257 110.909 58.3257H111.199V58.9643H110.798C110.469 58.9643 110.205 59.0665 110.007 59.2708C109.808 59.4752 109.709 59.7647 109.709 60.1393V62.9492H109.07ZM113.394 62.9492V58.3853H114.032V59.1346L113.947 59.0239C114.055 58.8082 114.217 58.6379 114.433 58.513C114.654 58.3881 114.921 58.3257 115.233 58.3257H115.523V58.9643H115.122C114.793 58.9643 114.529 59.0665 114.33 59.2708C114.132 59.4752 114.032 59.7647 114.032 60.1393V62.9492H113.394ZM118.349 63.0514C117.923 63.0514 117.537 62.9492 117.19 62.7449C116.85 62.5348 116.58 62.2482 116.382 61.8849C116.183 61.5216 116.084 61.11 116.084 60.6502C116.084 60.1904 116.18 59.7846 116.373 59.4326C116.566 59.075 116.827 58.794 117.156 58.5896C117.491 58.3853 117.866 58.2831 118.28 58.2831C118.61 58.2831 118.902 58.3456 119.157 58.4704C119.419 58.5896 119.64 58.7543 119.822 58.9643C120.003 59.1686 120.142 59.4014 120.239 59.6625C120.335 59.918 120.384 60.1819 120.384 60.4544C120.384 60.5111 120.381 60.5764 120.375 60.6502C120.369 60.7183 120.361 60.7893 120.349 60.8631H116.492V60.2671H119.983L119.677 60.5225C119.728 60.2103 119.691 59.9321 119.566 59.6881C119.447 59.4383 119.274 59.2424 119.047 59.1005C118.82 58.9529 118.564 58.8791 118.28 58.8791C117.997 58.8791 117.733 58.9529 117.489 59.1005C117.25 59.2481 117.063 59.4553 116.927 59.7221C116.79 59.9832 116.736 60.2954 116.765 60.6587C116.736 61.022 116.793 61.3399 116.935 61.6124C117.083 61.8792 117.281 62.0864 117.531 62.234C117.787 62.3816 118.059 62.4554 118.349 62.4554C118.683 62.4554 118.964 62.3759 119.191 62.2169C119.419 62.058 119.603 61.8593 119.745 61.6209L120.29 61.9104C120.199 62.1148 120.06 62.3049 119.873 62.4809C119.685 62.6512 119.461 62.7903 119.2 62.8981C118.945 63.0003 118.661 63.0514 118.349 63.0514ZM122.644 62.9492L120.864 58.3853H121.58L123.078 62.3872H122.848L124.355 58.3853H125.079L123.283 62.9492H122.644ZM125.825 62.9492V58.3853H126.464V62.9492H125.825ZM125.825 57.5423V56.6057H126.464V57.5423H125.825ZM129.848 63.0514C129.423 63.0514 129.037 62.9492 128.69 62.7449C128.35 62.5348 128.08 62.2482 127.882 61.8849C127.683 61.5216 127.584 61.11 127.584 60.6502C127.584 60.1904 127.68 59.7846 127.873 59.4326C128.066 59.075 128.327 58.794 128.656 58.5896C128.991 58.3853 129.366 58.2831 129.78 58.2831C130.11 58.2831 130.402 58.3456 130.657 58.4704C130.918 58.5896 131.14 58.7543 131.322 58.9643C131.503 59.1686 131.642 59.4014 131.739 59.6625C131.835 59.918 131.884 60.1819 131.884 60.4544C131.884 60.5111 131.881 60.5764 131.875 60.6502C131.869 60.7183 131.861 60.7893 131.849 60.8631H127.992V60.2671H131.483L131.177 60.5225C131.228 60.2103 131.191 59.9321 131.066 59.6881C130.947 59.4383 130.774 59.2424 130.547 59.1005C130.32 58.9529 130.064 58.8791 129.78 58.8791C129.497 58.8791 129.233 58.9529 128.988 59.1005C128.75 59.2481 128.563 59.4553 128.427 59.7221C128.29 59.9832 128.236 60.2954 128.265 60.6587C128.236 61.022 128.293 61.3399 128.435 61.6124C128.583 61.8792 128.781 62.0864 129.031 62.234C129.286 62.3816 129.559 62.4554 129.848 62.4554C130.183 62.4554 130.464 62.3759 130.691 62.2169C130.918 62.058 131.103 61.8593 131.245 61.6209L131.79 61.9104C131.699 62.1148 131.56 62.3049 131.373 62.4809C131.185 62.6512 130.961 62.7903 130.7 62.8981C130.445 63.0003 130.161 63.0514 129.848 63.0514ZM134.014 62.9492L132.447 58.3853H133.171L134.465 62.3787H134.21L135.428 58.3853H136.066L137.284 62.3787H137.028L138.331 58.3853H139.046L137.48 62.9492H136.841L135.658 59.0409H135.836L134.653 62.9492H134.014ZM141.378 63.0514C140.941 63.0514 140.558 62.9407 140.229 62.7193C139.9 62.4979 139.661 62.1971 139.514 61.8168L140.05 61.5613C140.181 61.8395 140.362 62.0608 140.595 62.2255C140.833 62.3901 141.095 62.4724 141.378 62.4724C141.651 62.4724 141.881 62.4071 142.068 62.2765C142.255 62.1403 142.349 61.9643 142.349 61.7486C142.349 61.5897 142.304 61.4648 142.213 61.374C142.122 61.2775 142.017 61.2037 141.898 61.1526C141.779 61.1015 141.674 61.0646 141.583 61.0419L140.927 60.8546C140.507 60.7354 140.203 60.5679 140.016 60.3522C139.829 60.1365 139.735 59.8867 139.735 59.6029C139.735 59.3361 139.803 59.1034 139.939 58.9047C140.076 58.706 140.26 58.5527 140.493 58.4449C140.726 58.337 140.984 58.2831 141.268 58.2831C141.654 58.2831 142.003 58.3853 142.315 58.5896C142.633 58.7883 142.857 59.0665 142.988 59.4241L142.443 59.6795C142.329 59.4241 142.165 59.2254 141.949 59.0835C141.739 58.9359 141.503 58.8621 141.242 58.8621C140.987 58.8621 140.782 58.9274 140.629 59.058C140.476 59.1885 140.399 59.3531 140.399 59.5518C140.399 59.7051 140.439 59.8271 140.518 59.918C140.598 60.0088 140.689 60.0769 140.791 60.1223C140.899 60.1677 140.992 60.2018 141.072 60.2245L141.83 60.4459C142.199 60.5537 142.485 60.7212 142.69 60.9482C142.9 61.1753 143.005 61.4421 143.005 61.7486C143.005 61.9984 142.934 62.2226 142.792 62.4213C142.656 62.62 142.466 62.7761 142.221 62.8896C141.977 62.9975 141.696 63.0514 141.378 63.0514Z" fill="#868686"/>
</g>
<defs>
<clipPath id="clip0_1964_21535">
<path d="M0 4C0 1.79086 1.79086 0 4 0H223.614C225.823 0 227.614 1.79086 227.614 4V72.3025C227.614 74.5117 225.823 76.3025 223.614 76.3025H4C1.79086 76.3025 0 74.5117 0 72.3025V4Z" fill="white"/>
</clipPath>
</defs>
</svg>
