<svg width="20" height="20" viewBox="0 0 20 20" fill="none" xmlns="http://www.w3.org/2000/svg">
<path d="M18 6.5H12.388L13.511 3.133C13.713 2.525 13.611 1.851 13.236 1.331C12.861 0.811 12.253 0.5 11.612 0.5H10C9.703 0.5 9.422 0.632 9.231 0.86L4.531 6.5H2C0.897 6.5 0 7.397 0 8.5V17.5C0 18.603 0.897 19.5 2 19.5H15.307C15.7139 19.4986 16.1108 19.3738 16.4452 19.1421C16.7797 18.9103 17.0359 18.5825 17.18 18.202L19.937 10.851C19.9789 10.7387 20.0002 10.6198 20 10.5V8.5C20 7.397 19.103 6.5 18 6.5ZM2 8.5H4V17.5H2V8.5ZM18 10.319L15.307 17.5H6V7.862L10.468 2.5H11.614L10.052 7.183C10.0013 7.33331 9.98715 7.49355 10.0107 7.65043C10.0343 7.8073 10.095 7.95629 10.1877 8.08504C10.2803 8.21379 10.4024 8.3186 10.5436 8.39076C10.6849 8.46293 10.8414 8.50037 11 8.5H18V10.319Z" fill="white"/>
</svg>
