<svg width="48" height="48" viewBox="0 0 48 48" fill="none" xmlns="http://www.w3.org/2000/svg">
<path d="M44.1677 0.727539H3.54322C1.74941 0.727539 0.272156 2.31031 0.272156 4.20964V44.6231C0.272156 46.5224 1.74941 47.9997 3.54322 47.9997H44.1677C45.9615 47.9997 47.5443 46.5224 47.5443 44.6231V4.20964C47.5443 2.31031 45.9615 0.727539 44.1677 0.727539ZM14.5171 41.2465H7.55291V18.7712H14.5171V41.2465ZM11.035 15.6056C8.71361 15.6056 6.9198 13.8118 6.9198 11.5959C6.9198 9.38003 8.71361 7.4807 11.035 7.4807C13.2509 7.4807 15.0447 9.38003 15.0447 11.5959C15.0447 13.8118 13.2509 15.6056 11.035 15.6056ZM40.7911 41.2465H33.7214V30.2726C33.7214 27.7402 33.7214 24.3636 30.1338 24.3636C26.4407 24.3636 25.9131 27.2126 25.9131 30.1671V41.2465H18.9489V18.7712H25.5965V21.8312H25.702C26.6517 20.0374 28.9731 18.138 32.3497 18.138C39.4194 18.138 40.7911 22.8864 40.7911 28.9009V41.2465Z" fill="#577590"/>
</svg>
