<svg width="200" height="39" viewBox="0 0 200 39" fill="none" xmlns="http://www.w3.org/2000/svg">
<g clip-path="url(#clip0_18_543)">
<path d="M40.8486 38.9999V10.3464H30.0121V38.9999H40.8486Z" fill="#00B5AC"/>
<path d="M30.0104 28.6536H0V39.0001H30.0104V28.6536Z" fill="#F7981D"/>
<path d="M0 28.6535V9.11159L10.8365 0V28.6535H0Z" fill="#E51F37"/>
<path d="M10.8365 0H31.3056L40.847 10.3465H10.8365V0Z" fill="#007DC2"/>
<path d="M61.3632 32.194C57.0192 32.194 54.5335 29.737 54.5082 29.7112L54.4626 29.6645L56.5453 26.6118L56.6195 26.6826C56.6381 26.7003 58.5504 28.494 61.3295 28.494C62.4324 28.494 63.5437 28.0528 63.5437 27.0674C63.5437 26.0821 62.1508 25.5684 60.5386 24.9373C58.0866 23.9777 55.0343 22.783 55.0343 19.5321C55.0343 16.5454 57.7578 14.5376 61.8101 14.5376C65.8624 14.5376 67.7191 16.4424 67.7377 16.4617L67.7798 16.5019L66.0901 19.7286L66.0075 19.6545C65.9923 19.64 64.3852 18.2344 61.7764 18.2344C60.7865 18.2344 59.6297 18.6079 59.6297 19.661C59.6297 20.5465 60.9855 21.0666 62.5538 21.6688C65.0412 22.6236 68.139 23.8118 68.139 27.098C68.139 30.0961 65.3532 32.1908 61.3632 32.1908V32.194Z" fill="#1B2328"/>
<path d="M86.4765 31.8012H81.984V21.8266C81.984 19.4646 81.2032 18.5001 79.2892 18.5001C77.1273 18.5001 75.301 19.8414 74.6348 21.9152C74.4493 22.5029 74.3633 23.1823 74.3633 24.0534V31.7996H69.8372V8.38062H74.3633V16.5197C74.3633 17.0221 74.3381 17.4423 74.3178 17.6919C75.2133 16.1945 77.2656 14.5393 80.3179 14.5393C84.4039 14.5393 86.4748 16.7049 86.4748 20.9749V31.8012H86.4765Z" fill="#1B2328"/>
<path d="M97.5221 32.194C91.9774 32.194 87.7969 28.399 87.7969 23.3658C87.7969 18.3326 91.9639 14.5376 97.4884 14.5376C103.013 14.5376 107.214 18.3326 107.214 23.3658C107.214 28.399 103.047 32.194 97.5221 32.194ZM97.5221 18.2376C94.5963 18.2376 92.3905 20.4419 92.3905 23.3658C92.3905 26.2898 94.5963 28.494 97.5221 28.494C100.448 28.494 102.618 26.2898 102.618 23.3658C102.618 20.4419 100.428 18.2376 97.5221 18.2376Z" fill="#1B2328"/>
<path d="M113.3 38.3528H108.774V14.9322H112.922V16.2251C112.922 16.6002 112.897 16.9432 112.876 17.1573C113.301 16.5423 114.959 14.5393 118.465 14.5393C123.153 14.5393 126.303 18.0864 126.303 23.3675C126.303 28.6487 122.981 32.1957 118.224 32.1957C116.411 32.1957 115.128 31.563 114.369 31.0332C113.779 30.621 113.413 30.2121 113.247 30.0044C113.268 30.2459 113.298 30.6999 113.298 31.2635V38.3544L113.3 38.3528ZM117.47 18.2699C115.387 18.2699 113.163 19.6337 113.163 23.4641C113.163 26.942 115.379 28.5263 117.436 28.5263C119.494 28.5263 121.743 26.95 121.743 23.4303C121.743 20.3437 120.027 18.2699 117.47 18.2699Z" fill="#1B2328"/>
<path d="M133.411 32.1941C131.799 32.1941 130.31 31.7079 129.217 30.8239C128.022 29.8579 127.391 28.5021 127.391 26.9049C127.391 21.9039 133.936 21.1568 137.838 21.1568H138.337V21.0087C138.337 19.1056 137.234 18.1411 135.059 18.1411C132.612 18.1411 130.329 19.7142 130.305 19.7303L130.226 19.785L128.5 16.663L128.554 16.6212C128.581 16.6002 131.335 14.5393 135.469 14.5393C140.145 14.5393 142.826 16.9931 142.826 21.2696V31.8013H138.642V30.3457C138.642 29.9867 138.662 29.663 138.683 29.4457C138.511 29.7452 138.162 30.2395 137.6 30.7273C136.829 31.3971 135.475 32.1957 133.409 32.1957L133.411 32.1941ZM137.7 24.1677C135.077 24.1677 131.951 24.6089 131.951 26.7085C131.951 27.7454 132.742 28.7904 134.509 28.7904C136.72 28.7904 138.371 26.5153 138.371 24.4817V24.1694H137.7V24.1677Z" fill="#1B2328"/>
<path d="M150.548 31.8013H146.022V14.9322H150.376V17.8965C150.376 18.1895 150.361 18.468 150.344 18.6822C151.287 16.2863 153.455 14.7036 155.85 14.7036C156.265 14.7036 156.639 14.768 156.654 14.7696L156.723 14.7825V19.038L156.626 19.0235C156.626 19.0235 156.179 18.9591 155.609 18.9591C153.894 18.9591 151.761 19.8656 150.919 22.408C150.668 23.1583 150.546 24.039 150.546 25.1033V31.8013H150.548Z" fill="#1B2328"/>
<path d="M163.638 31.8012H159.111V14.9321H163.638V31.8012ZM163.604 12.2433H159.111V8.38062H163.604V12.2433Z" fill="#1B2328"/>
<path d="M181.702 31.8012H166.059V29.4649L166.078 29.4424L173.934 20.0394C174.543 19.3068 175.096 18.7819 175.317 18.5806C175.084 18.6 174.609 18.6305 173.862 18.6305H166.401V14.9321H181.461V17.3006L181.442 17.3231L173.585 26.7262C172.988 27.4459 172.423 27.9643 172.184 28.1753C172.427 28.1463 172.906 28.1028 173.656 28.1028H181.7V31.8012H181.702Z" fill="#1B2328"/>
<path d="M191.705 32.194C186.209 32.194 182.219 28.4811 182.219 23.3658C182.219 18.2505 185.909 14.5376 191.191 14.5376C195.953 14.5376 199.029 17.6805 199.029 22.5463C199.029 23.0357 198.93 24.1129 198.926 24.158L198.919 24.232H186.857C187.181 27.1753 189.67 28.494 192.014 28.494C194.764 28.494 196.98 26.6971 197.002 26.6794L197.081 26.6134L198.844 29.737L198.796 29.7789C198.769 29.803 196.046 32.1924 191.705 32.1924V32.194ZM187.004 21.2228H194.466C194.371 19.1779 193.083 17.9108 191.088 17.9108C188.958 17.9108 187.437 19.1457 187.004 21.2228Z" fill="#1B2328"/>
</g>
<defs>
<clipPath id="clip0_18_543">
<rect width="200" height="39" fill="white"/>
</clipPath>
</defs>
</svg>
