<svg width="130" height="26" viewBox="0 0 130 26" fill="none" xmlns="http://www.w3.org/2000/svg">
<g clip-path="url(#clip0_486_10105)">
<path d="M26.5516 25.0586V6.69104H19.5079V25.0586H26.5516Z" fill="#00B5AC"/>
<path d="M19.5068 18.4261H0V25.0585H19.5068V18.4261Z" fill="#F7981D"/>
<path d="M0 18.4262V5.89936L7.04375 0.0585938V18.4262H0Z" fill="#E51F37"/>
<path d="M7.0437 0.0585938H20.3486L26.5505 6.691H7.0437V0.0585938Z" fill="#007DC2"/>
<path d="M39.8861 20.6958C37.0625 20.6958 35.4468 19.1208 35.4304 19.1043L35.4008 19.0743L36.7545 17.1174L36.8027 17.1628C36.8148 17.1742 38.0578 18.324 39.8642 18.324C40.5811 18.324 41.3034 18.0412 41.3034 17.4095C41.3034 16.7779 40.398 16.4486 39.3501 16.044C37.7563 15.4289 35.7723 14.663 35.7723 12.5792C35.7723 10.6646 37.5426 9.37756 40.1766 9.37756C42.8106 9.37756 44.0175 10.5986 44.0295 10.6109L44.0569 10.6367L42.9586 12.7051L42.9049 12.6576C42.895 12.6483 41.8504 11.7473 40.1547 11.7473C39.5113 11.7473 38.7593 11.9868 38.7593 12.6618C38.7593 13.2294 39.6406 13.5628 40.66 13.9488C42.2768 14.5609 44.2904 15.3226 44.2904 17.4291C44.2904 19.3509 42.4796 20.6937 39.8861 20.6937V20.6958Z" fill="white"/>
<path d="M56.2097 20.444H53.2896V14.05C53.2896 12.5359 52.7821 11.9177 51.538 11.9177C50.1327 11.9177 48.9456 12.7774 48.5127 14.1068C48.3921 14.4835 48.3362 14.9191 48.3362 15.4774V20.443H45.3942V5.43079H48.3362V10.6481C48.3362 10.9702 48.3197 11.2396 48.3066 11.3995C48.8886 10.4397 50.2226 9.37864 52.2066 9.37864C54.8626 9.37864 56.2086 10.7668 56.2086 13.504V20.444H56.2097Z" fill="white"/>
<path d="M63.3894 20.6958C59.7853 20.6958 57.068 18.2631 57.068 15.0367C57.068 11.8103 59.7765 9.37756 63.3675 9.37756C66.9584 9.37756 69.6889 11.8103 69.6889 15.0367C69.6889 18.2631 66.9803 20.6958 63.3894 20.6958ZM63.3894 11.7494C61.4876 11.7494 60.0539 13.1623 60.0539 15.0367C60.0539 16.911 61.4876 18.324 63.3894 18.324C65.2912 18.324 66.7019 16.911 66.7019 15.0367C66.7019 13.1623 65.278 11.7494 63.3894 11.7494Z" fill="white"/>
<path d="M73.6448 24.6437H70.7028V9.6305H73.3992V10.4593C73.3992 10.6998 73.3828 10.9196 73.3696 11.0569C73.6459 10.6626 74.7234 9.37866 77.0022 9.37866C80.0495 9.37866 82.0971 11.6524 82.0971 15.0378C82.0971 18.4231 79.9377 20.6969 76.8455 20.6969C75.6671 20.6969 74.833 20.2913 74.3397 19.9517C73.9561 19.6875 73.7182 19.4253 73.6108 19.2922C73.6239 19.447 73.6437 19.738 73.6437 20.0993V24.6447L73.6448 24.6437ZM76.3555 11.7701C75.0018 11.7701 73.556 12.6443 73.556 15.0997C73.556 17.3291 74.9963 18.3447 76.3336 18.3447C77.6709 18.3447 79.1331 17.3342 79.1331 15.078C79.1331 13.0995 78.0173 11.7701 76.3555 11.7701Z" fill="white"/>
<path d="M86.7173 20.6959C85.6694 20.6959 84.7015 20.3842 83.9912 19.8175C83.214 19.1982 82.8041 18.3292 82.8041 17.3053C82.8041 14.0996 87.0582 13.6207 89.5946 13.6207H89.9191V13.5257C89.9191 12.3058 89.2022 11.6875 87.7882 11.6875C86.1977 11.6875 84.7135 12.6959 84.6982 12.7062L84.6467 12.7413L83.5253 10.74L83.5604 10.7132C83.578 10.6998 85.3679 9.37866 88.0546 9.37866C91.0941 9.37866 92.837 10.9516 92.837 13.6929V20.444H90.1175V19.511C90.1175 19.2808 90.1306 19.0734 90.1438 18.934C90.032 19.126 89.8051 19.4429 89.4401 19.7556C88.9391 20.185 88.0589 20.6969 86.7162 20.6969L86.7173 20.6959ZM89.5047 15.5507C87.8003 15.5507 85.768 15.8335 85.768 17.1794C85.768 17.8441 86.2821 18.514 87.4309 18.514C88.8679 18.514 89.941 17.0556 89.941 15.752V15.5518H89.5047V15.5507Z" fill="white"/>
<path d="M97.8562 20.444H94.9142V9.63045H97.7444V11.5306C97.7444 11.7184 97.7345 11.897 97.7236 12.0343C98.3363 10.4985 99.7459 9.48389 101.302 9.48389C101.572 9.48389 101.815 9.52517 101.825 9.5262L101.87 9.53446V12.2624L101.807 12.2531C101.807 12.2531 101.516 12.2118 101.146 12.2118C100.031 12.2118 98.6443 12.7929 98.0974 14.4226C97.934 14.9035 97.8551 15.4681 97.8551 16.1503V20.444H97.8562Z" fill="white"/>
<path d="M106.364 20.444H103.422V9.63048H106.364V20.444ZM106.342 7.90684H103.422V5.43079H106.342V7.90684Z" fill="white"/>
<path d="M118.106 20.444H107.938V18.9464L107.951 18.932L113.057 12.9044C113.453 12.4348 113.813 12.0983 113.956 11.9693C113.805 11.9817 113.496 12.0013 113.01 12.0013H108.161V9.63049H117.949V11.1487L117.937 11.1632L112.831 17.1908C112.442 17.6521 112.075 17.9845 111.92 18.1197C112.077 18.1011 112.389 18.0732 112.877 18.0732H118.105V20.444H118.106Z" fill="white"/>
<path d="M124.608 20.6958C121.036 20.6958 118.443 18.3157 118.443 15.0367C118.443 11.7576 120.841 9.37756 124.274 9.37756C127.37 9.37756 129.369 11.3923 129.369 14.5113C129.369 14.8251 129.304 15.5156 129.302 15.5445L129.298 15.592H121.457C121.667 17.4787 123.285 18.324 124.809 18.324C126.597 18.324 128.037 17.1721 128.051 17.1608L128.103 17.1185L129.248 19.1208L129.218 19.1476C129.2 19.1631 127.43 20.6948 124.608 20.6948V20.6958ZM121.552 13.6629H126.403C126.341 12.3521 125.504 11.5399 124.207 11.5399C122.823 11.5399 121.834 12.3315 121.552 13.6629Z" fill="white"/>
</g>
<defs>
<clipPath id="clip0_486_10105">
<rect width="130" height="25" fill="white" transform="translate(0 0.0585938)"/>
</clipPath>
</defs>
</svg>
