<svg width="70" height="70" viewBox="0 0 70 70" fill="none" xmlns="http://www.w3.org/2000/svg">
<rect width="70" height="70" rx="5.95745" fill="#DAE8FF"/>
<path d="M10.3906 21.3281H14.9119C15.1803 21.3281 15.409 21.5229 15.4518 21.7878L20.2344 51.4063" stroke="#5292FB" stroke-width="3.28125" stroke-linecap="round"/>
<path d="M41.9271 4.375C35.2431 7.7474 31.901 14.4922 31.9027 24.5234C31.9027 24.5234 26.888 22.9232 26.888 17.8646C23.546 21.237 21.875 23.7663 21.875 29.668C21.875 33.6928 23.4595 37.5529 26.2798 40.3989C29.1002 43.2449 32.9255 44.8438 36.9141 44.8438C40.9027 44.8438 44.7279 43.2449 47.5483 40.3989C50.3687 37.5529 51.9531 33.6928 51.9531 29.668C51.9531 17.8646 42.7626 14.4922 41.9271 4.375Z" fill="#FB9A08"/>
<path opacity="0.4" d="M44.8438 34.2791C44.8438 36.3558 44.0371 38.3475 42.6013 39.8159C41.1655 41.2844 39.2181 42.1094 37.1875 42.1094C35.1569 42.1094 33.2095 41.2844 31.7737 39.8159C30.3379 38.3475 29.5313 36.3558 29.5313 34.2791C29.5312 31.361 30.3819 29.8559 32.0833 28.1889C32.0833 31.669 34.6354 32.5391 34.6354 32.5391C34.6354 27.5799 36.3368 24.6357 39.7396 22.9688C40.1649 27.9714 44.8438 29.6036 44.8438 34.2791Z" fill="white"/>
<path d="M51.9531 51.4062H19.2136C18.137 51.4062 17.1088 51.8541 16.3755 52.6424V52.6424C15.16 53.9491 15.16 55.9728 16.3755 57.2795V57.2795C17.1088 58.0678 18.137 58.5156 19.2136 58.5156H51.9531" stroke="#5292FB" stroke-width="3.28125" stroke-linecap="round"/>
<g filter="url(#filter0_b_2093_100)">
<mask id="path-6-inside-1_2093_100" fill="white">
<path fill-rule="evenodd" clip-rule="evenodd" d="M14.6126 26.709H60.1562L54.2425 53.0468H18.76L14.6126 26.709ZM35.7346 34.0862C35.7346 33.2998 36.4468 32.6623 37.3254 32.6623C38.2039 32.6623 38.9161 33.2998 38.9161 34.0862V45.9527C38.9161 46.7392 38.2039 47.3767 37.3254 47.3767C36.4468 47.3767 35.7346 46.7392 35.7346 45.9527V34.0862ZM29.3716 36.4595C29.3716 35.6731 30.0838 35.0356 30.9624 35.0356C31.8409 35.0356 32.5531 35.6731 32.5531 36.4595V43.5794C32.5531 44.3659 31.8409 45.0034 30.9624 45.0034C30.0838 45.0034 29.3716 44.3659 29.3716 43.5794V36.4595ZM43.6884 35.0356C42.8098 35.0356 42.0976 35.6731 42.0976 36.4595V43.5794C42.0976 44.3659 42.8098 45.0034 43.6884 45.0034C44.5669 45.0034 45.2791 44.3659 45.2791 43.5794V36.4595C45.2791 35.6731 44.5669 35.0356 43.6884 35.0356Z"/>
</mask>
<path fill-rule="evenodd" clip-rule="evenodd" d="M14.6126 26.709H60.1562L54.2425 53.0468H18.76L14.6126 26.709ZM35.7346 34.0862C35.7346 33.2998 36.4468 32.6623 37.3254 32.6623C38.2039 32.6623 38.9161 33.2998 38.9161 34.0862V45.9527C38.9161 46.7392 38.2039 47.3767 37.3254 47.3767C36.4468 47.3767 35.7346 46.7392 35.7346 45.9527V34.0862ZM29.3716 36.4595C29.3716 35.6731 30.0838 35.0356 30.9624 35.0356C31.8409 35.0356 32.5531 35.6731 32.5531 36.4595V43.5794C32.5531 44.3659 31.8409 45.0034 30.9624 45.0034C30.0838 45.0034 29.3716 44.3659 29.3716 43.5794V36.4595ZM43.6884 35.0356C42.8098 35.0356 42.0976 35.6731 42.0976 36.4595V43.5794C42.0976 44.3659 42.8098 45.0034 43.6884 45.0034C44.5669 45.0034 45.2791 44.3659 45.2791 43.5794V36.4595C45.2791 35.6731 44.5669 35.0356 43.6884 35.0356Z" fill="white" fill-opacity="0.8"/>
<path d="M60.1562 26.709L61.6198 27.0377L62.0304 25.209H60.1562V26.709ZM14.6126 26.709V25.209H12.8579L13.1309 26.9424L14.6126 26.709ZM54.2425 53.0468V54.5468H55.443L55.7061 53.3754L54.2425 53.0468ZM18.76 53.0468L17.2783 53.2801L17.4777 54.5468H18.76V53.0468ZM60.1562 25.209H14.6126V28.209H60.1562V25.209ZM55.7061 53.3754L61.6198 27.0377L58.6927 26.3804L52.7789 52.7182L55.7061 53.3754ZM18.76 54.5468H54.2425V51.5468H18.76V54.5468ZM13.1309 26.9424L17.2783 53.2801L20.2417 52.8135L16.0944 26.4757L13.1309 26.9424ZM37.3254 31.1623C35.7789 31.1623 34.2346 32.3195 34.2346 34.0862H37.2346C37.2346 34.1194 37.2265 34.1503 37.2159 34.1728C37.2061 34.1935 37.1979 34.1998 37.201 34.197C37.2088 34.19 37.2486 34.1623 37.3254 34.1623V31.1623ZM40.4161 34.0862C40.4161 32.3195 38.8718 31.1623 37.3254 31.1623V34.1623C37.4022 34.1623 37.4419 34.19 37.4497 34.197C37.4529 34.1998 37.4447 34.1935 37.4349 34.1728C37.4243 34.1503 37.4161 34.1194 37.4161 34.0862H40.4161ZM40.4161 45.9527V34.0862H37.4161V45.9527H40.4161ZM37.3254 48.8767C38.8718 48.8767 40.4161 47.7195 40.4161 45.9527H37.4161C37.4161 45.9195 37.4243 45.8886 37.4349 45.8662C37.4447 45.8455 37.4529 45.8392 37.4497 45.842C37.4419 45.849 37.4022 45.8767 37.3254 45.8767V48.8767ZM34.2346 45.9527C34.2346 47.7195 35.7789 48.8767 37.3254 48.8767V45.8767C37.2486 45.8767 37.2088 45.849 37.201 45.842C37.1979 45.8392 37.2061 45.8455 37.2159 45.8662C37.2265 45.8887 37.2346 45.9195 37.2346 45.9527H34.2346ZM34.2346 34.0862V45.9527H37.2346V34.0862H34.2346ZM30.9624 33.5356C29.4159 33.5356 27.8716 34.6928 27.8716 36.4595H30.8716C30.8716 36.4927 30.8635 36.5236 30.8529 36.5461C30.8431 36.5668 30.8349 36.5731 30.838 36.5703C30.8458 36.5632 30.8856 36.5356 30.9624 36.5356V33.5356ZM34.0531 36.4595C34.0531 34.6928 32.5088 33.5356 30.9624 33.5356V36.5356C31.0392 36.5356 31.0789 36.5632 31.0867 36.5703C31.0899 36.5731 31.0817 36.5668 31.0719 36.5461C31.0613 36.5236 31.0531 36.4927 31.0531 36.4595H34.0531ZM34.0531 43.5794V36.4595H31.0531V43.5794H34.0531ZM30.9624 46.5034C32.5088 46.5034 34.0531 45.3462 34.0531 43.5794H31.0531C31.0531 43.5463 31.0613 43.5154 31.0719 43.4929C31.0817 43.4722 31.0899 43.4659 31.0867 43.4687C31.0789 43.4757 31.0392 43.5034 30.9624 43.5034V46.5034ZM27.8716 43.5794C27.8716 45.3462 29.4159 46.5034 30.9624 46.5034V43.5034C30.8856 43.5034 30.8458 43.4757 30.838 43.4687C30.8349 43.4659 30.8431 43.4722 30.8529 43.4929C30.8635 43.5154 30.8716 43.5463 30.8716 43.5794H27.8716ZM27.8716 36.4595V43.5794H30.8716V36.4595H27.8716ZM43.5976 36.4595C43.5976 36.4927 43.5895 36.5236 43.5789 36.5461C43.5691 36.5668 43.5609 36.5731 43.564 36.5703C43.5718 36.5632 43.6116 36.5356 43.6884 36.5356V33.5356C42.1419 33.5356 40.5976 34.6928 40.5976 36.4595H43.5976ZM43.5976 43.5794V36.4595H40.5976V43.5794H43.5976ZM43.6884 43.5034C43.6116 43.5034 43.5718 43.4757 43.564 43.4687C43.5609 43.4659 43.5691 43.4722 43.5789 43.4929C43.5895 43.5154 43.5976 43.5463 43.5976 43.5794H40.5976C40.5976 45.3462 42.1419 46.5034 43.6884 46.5034V43.5034ZM43.7791 43.5794C43.7791 43.5463 43.7873 43.5154 43.7979 43.4929C43.8077 43.4722 43.8159 43.4659 43.8127 43.4687C43.8049 43.4757 43.7652 43.5034 43.6884 43.5034V46.5034C45.2348 46.5034 46.7791 45.3462 46.7791 43.5794H43.7791ZM43.7791 36.4595V43.5794H46.7791V36.4595H43.7791ZM43.6884 36.5356C43.7652 36.5356 43.8049 36.5632 43.8127 36.5703C43.8159 36.5731 43.8077 36.5668 43.7979 36.5461C43.7873 36.5236 43.7791 36.4927 43.7791 36.4595H46.7791C46.7791 34.6928 45.2348 33.5356 43.6884 33.5356V36.5356Z" fill="white" fill-opacity="0.86" mask="url(#path-6-inside-1_2093_100)"/>
</g>
<g filter="url(#filter1_b_2093_100)">
<circle cx="23.7891" cy="60.4297" r="4.64844" fill="white" fill-opacity="0.8"/>
<circle cx="23.7891" cy="60.4297" r="3.89844" stroke="#5292FB" stroke-width="1.5"/>
</g>
<g filter="url(#filter2_b_2093_100)">
<circle cx="49.8529" cy="60.4297" r="4.64844" fill="white" fill-opacity="0.8"/>
<circle cx="49.8529" cy="60.4297" r="3.89844" stroke="#5292FB" stroke-width="1.5"/>
</g>
<defs>
<filter id="filter0_b_2093_100" x="9.25323" y="21.3497" width="56.2624" height="37.0565" filterUnits="userSpaceOnUse" color-interpolation-filters="sRGB">
<feFlood flood-opacity="0" result="BackgroundImageFix"/>
<feGaussianBlur in="BackgroundImageFix" stdDeviation="2.67969"/>
<feComposite in2="SourceAlpha" operator="in" result="effect1_backgroundBlur_2093_100"/>
<feBlend mode="normal" in="SourceGraphic" in2="effect1_backgroundBlur_2093_100" result="shape"/>
</filter>
<filter id="filter1_b_2093_100" x="13.7812" y="50.4219" width="20.0156" height="20.0156" filterUnits="userSpaceOnUse" color-interpolation-filters="sRGB">
<feFlood flood-opacity="0" result="BackgroundImageFix"/>
<feGaussianBlur in="BackgroundImageFix" stdDeviation="2.67969"/>
<feComposite in2="SourceAlpha" operator="in" result="effect1_backgroundBlur_2093_100"/>
<feBlend mode="normal" in="SourceGraphic" in2="effect1_backgroundBlur_2093_100" result="shape"/>
</filter>
<filter id="filter2_b_2093_100" x="39.8451" y="50.4219" width="20.0156" height="20.0156" filterUnits="userSpaceOnUse" color-interpolation-filters="sRGB">
<feFlood flood-opacity="0" result="BackgroundImageFix"/>
<feGaussianBlur in="BackgroundImageFix" stdDeviation="2.67969"/>
<feComposite in2="SourceAlpha" operator="in" result="effect1_backgroundBlur_2093_100"/>
<feBlend mode="normal" in="SourceGraphic" in2="effect1_backgroundBlur_2093_100" result="shape"/>
</filter>
</defs>
</svg>
