<svg width="96" height="84" viewBox="0 0 96 84" fill="none" xmlns="http://www.w3.org/2000/svg">
<path d="M94.5469 61.4014L79.5469 46.4014C76.7344 43.5889 72.0469 45.4639 72.0469 49.5889V56.9014H66.0469L56.1094 46.4014L45.9844 57.0889L59.2969 71.3389C59.6719 71.7139 60.2344 71.9014 60.9844 71.9014H72.0469V79.4014C72.0469 83.5264 76.7344 85.4014 79.5469 82.5889L94.5469 67.5889C96.4219 65.9014 96.4219 63.0889 94.5469 61.4014ZM2.29688 26.9014H18.0469L27.7969 37.5889L37.9219 26.9014L24.6094 12.6514C24.2344 12.2764 23.6719 11.9014 22.9219 11.9014H2.29688C0.984375 11.9014 0.046875 13.0264 0.046875 14.1514V24.6514C0.046875 25.9639 0.984375 26.9014 2.29688 26.9014ZM72.0469 26.9014V34.4014C72.0469 38.5264 76.7344 40.4014 79.5469 37.5889L94.5469 22.5889C96.4219 20.9014 96.4219 18.0889 94.5469 16.4014L79.5469 1.4014C76.7344 -1.4111 72.0469 0.463904 72.0469 4.5889V11.9014H60.9844C60.2344 11.9014 59.6719 12.2764 59.2969 12.6514L18.0469 56.9014H2.29688C0.984375 56.9014 0.046875 58.0264 0.046875 59.1514V69.6514C0.046875 70.9639 0.984375 71.9014 2.29688 71.9014H22.9219C23.6719 71.9014 24.2344 71.7139 24.6094 71.3389L66.0469 26.9014H72.0469Z" fill="#DFDDE3"/>
</svg>
