<svg width="108" height="97" viewBox="0 0 108 97" fill="none" xmlns="http://www.w3.org/2000/svg">
<path d="M103.5 12.9951H84V5.49512C84 3.05762 81.9375 0.995117 79.5 0.995117H28.5C25.875 0.995117 24 3.05762 24 5.49512V12.9951H4.5C1.875 12.9951 0 15.0576 0 17.4951V27.9951C0 40.5576 14.4375 52.7451 32.0625 54.8076C38.0625 64.5576 45 68.4951 45 68.4951V81.9951H36C29.25 81.9951 24 85.9326 24 92.4951V94.7451C24 96.0576 24.9375 96.9951 26.25 96.9951H81.75C82.875 96.9951 84 96.0576 84 94.7451V92.4951C84 85.9326 78.5625 81.9951 72 81.9951H63V68.4951C63 68.4951 69.75 64.5576 75.75 54.8076C93.375 52.7451 108 40.5576 108 27.9951V17.4951C108 15.0576 105.938 12.9951 103.5 12.9951ZM12 27.9951V24.9951H24C24.1875 31.1826 25.125 36.6201 26.4375 41.3076C17.4375 38.1201 12 31.9326 12 27.9951ZM96 27.9951C96 31.9326 90.375 38.1201 81.5625 41.3076C82.875 36.6201 83.625 31.1826 83.8125 24.9951H96V27.9951ZM72 28.9326L64.6875 36.2451L66.375 46.3701C66.75 48.2451 64.6875 49.7451 63.1875 48.8076L54 43.9326L44.8125 48.8076C43.125 49.7451 41.25 48.2451 41.4375 46.3701L43.3125 36.2451L35.8125 28.9326C34.5 27.6201 35.25 25.3701 37.125 25.1826L47.4375 23.6826L51.9375 14.3076C52.6875 12.6201 55.125 12.6201 56.0625 14.3076L60.5625 23.6826L70.875 25.1826C72.5625 25.3701 73.3125 27.6201 72 28.9326Z" fill="#DFDDE3"/>
</svg>
