<svg width="120" height="96" viewBox="0 0 120 96" fill="none" xmlns="http://www.w3.org/2000/svg">
<path d="M91.5902 35.9049H63.0902V46.4049C63.0902 53.9049 56.9027 59.9049 49.5902 59.9049C42.0902 59.9049 36.0902 53.9049 36.0902 46.4049V23.7174L23.9027 31.0299C20.1527 33.0924 18.0902 37.0299 18.0902 41.3424V50.1549L3.09017 58.7799C0.0901692 60.4674 -0.847331 64.2174 0.840169 67.0299L15.8402 92.9049C17.5277 95.9049 21.0902 96.8424 24.0902 95.1549L43.4027 83.9049H69.0902C75.6527 83.9049 81.0902 78.6549 81.0902 71.9049H84.0902C87.2777 71.9049 90.0902 69.2799 90.0902 65.9049V53.9049H91.5902C94.0277 53.9049 96.0902 52.0299 96.0902 49.4049V40.4049C96.0902 37.9674 94.0277 35.9049 91.5902 35.9049ZM119.153 28.9674L104.153 2.90487C102.465 0.0923681 98.9027 -0.845132 96.0902 0.842368L76.5902 11.9049H57.4652C55.2152 11.9049 52.9652 12.6549 51.0902 13.7799L44.9027 17.7174C43.0277 18.8424 42.0902 20.7174 42.0902 22.7799V46.4049C42.0902 50.7174 45.2777 53.9049 49.5902 53.9049C53.7152 53.9049 57.0902 50.7174 57.0902 46.4049V29.9049H91.5902C97.2152 29.9049 102.09 34.7799 102.09 40.4049V45.8424L117.09 37.2174C119.903 35.5299 120.84 31.7799 119.153 28.9674Z" fill="#E51F37"/>
</svg>
