<svg width="120" height="97" viewBox="0 0 120 97" fill="none" xmlns="http://www.w3.org/2000/svg">
<path d="M117 39.9951H105V27.9951C105 26.4951 103.5 24.9951 102 24.9951H96C94.3125 24.9951 93 26.4951 93 27.9951V39.9951H81C79.3125 39.9951 78 41.4951 78 42.9951V48.9951C78 50.6826 79.3125 51.9951 81 51.9951H93V63.9951C93 65.6826 94.3125 66.9951 96 66.9951H102C103.5 66.9951 105 65.6826 105 63.9951V51.9951H117C118.5 51.9951 120 50.6826 120 48.9951V42.9951C120 41.4951 118.5 39.9951 117 39.9951ZM42 48.9951C55.125 48.9951 66 38.3076 66 24.9951C66 11.8701 55.125 0.995117 42 0.995117C28.6875 0.995117 18 11.8701 18 24.9951C18 38.3076 28.6875 48.9951 42 48.9951ZM58.6875 54.9951H55.5C51.375 57.0576 46.875 57.9951 42 57.9951C37.125 57.9951 32.4375 57.0576 28.3125 54.9951H25.125C11.25 54.9951 0 66.4326 0 80.3076V87.9951C0 93.0576 3.9375 96.9951 9 96.9951H75C79.875 96.9951 84 93.0576 84 87.9951V80.3076C84 66.4326 72.5625 54.9951 58.6875 54.9951Z" fill="#DFDDE3"/>
</svg>
