<svg width="195" height="24" viewBox="0 0 195 24" fill="none" xmlns="http://www.w3.org/2000/svg">
<g id="RAD_Logo_Hor_RADPurple-9" clip-path="url(#clip0_1703_37979)">
<g id="Group">
<path id="Vector" d="M63.9519 20.0986H15.9336L19.7588 23.9785L63.9519 20.0986Z" fill="#8529CD"/>
<path id="Vector_2" d="M20.3814 4.40637V4.99315C19.4895 4.41733 18.6904 4.08203 17.595 4.08203C14.2308 4.08203 11.6758 7.19326 11.6758 11.0151C11.6758 14.8369 14.2314 17.9468 17.595 17.9468C18.6897 17.9468 19.4895 17.6128 20.3814 17.0364V17.6225H23.3382V4.40637H20.3814ZM17.595 14.764C15.9364 14.764 14.7215 13.1075 14.7215 11.0144C14.7215 8.92137 15.9358 7.26613 17.595 7.26613C19.2543 7.26613 20.4265 8.9233 20.4265 11.0144C20.4265 13.1056 19.2562 14.764 17.595 14.764Z" fill="#8529CD"/>
<path id="Vector_3" d="M44.0705 4.40723V12.1708C44.0705 13.6268 43.0845 14.8571 41.6477 14.8571C40.211 14.8571 39.225 13.6274 39.225 12.1708V4.40723H36.2676V12.1708C36.2676 15.3562 38.4157 17.9477 41.5568 17.9477C43.0114 17.9477 44.0705 17.132 44.0705 17.132V17.6233H47.0279V4.40723H44.0705Z" fill="#8529CD"/>
<path id="Vector_4" d="M71.6254 17.6225V9.85892C71.6254 8.40293 72.6114 7.17263 74.0481 7.17263C75.4849 7.17263 76.4709 8.40229 76.4709 9.85892V17.6225H79.4283V9.85892C79.4283 6.67354 77.2801 4.08203 74.139 4.08203C72.6845 4.08203 71.6254 4.89772 71.6254 4.89772V4.40637H68.668V17.6225H71.6254Z" fill="#8529CD"/>
<path id="Vector_5" d="M3.15335 17.6225V12.5026H5.34089L9.1279 17.6225H12.9995L8.42352 11.4445C9.84945 10.4063 10.7865 8.71758 10.7865 6.80506C10.7865 3.66417 8.2684 1.11328 5.17178 1.11328H0.0605469V17.6225H3.15335ZM3.15335 4.24772H5.17178C6.56084 4.24772 7.69625 5.39356 7.69625 6.80506C7.69625 8.21656 6.56021 9.36562 5.17178 9.36562H3.15335V4.24837V4.24772Z" fill="#8529CD"/>
<path id="Vector_6" d="M54.9984 14.4951C54.7326 14.6776 54.3976 14.8201 54.0092 14.8201C53.526 14.8201 52.615 14.4455 52.615 13.1984V7.54273H55.1439V4.4057H52.615V1.11328H49.6576V4.40635H48.0938V7.54337H49.6583V13.2448C49.6576 16.1961 51.8496 17.9584 54.055 17.9584C54.8769 17.9584 56.0174 17.6857 56.9475 17.1266L54.9984 14.4951Z" fill="#8529CD"/>
<path id="Vector_7" d="M30.691 10.6016L35.7634 4.40687H31.6185L28.0705 9.0102V0.0214844H25.0254V17.6223H28.0705V12.1937L32.4322 17.6223H36.5753L30.691 10.6016Z" fill="#8529CD"/>
<path id="Vector_8" d="M61.8291 4.07096C58.4063 4.07096 55.9512 7.12158 55.9512 11.0143C55.9512 15.107 59.0325 17.9583 62.1228 17.9583C63.6822 17.9583 65.681 17.416 67.3599 14.9999L64.7483 13.4698C62.7286 16.4901 59.3618 14.9574 58.9728 11.9371L67.4909 11.939C68.2194 7.1925 65.194 4.07031 61.8291 4.07031V4.07096ZM64.4108 9.30814H59.0847C59.707 6.21303 63.8342 6.03506 64.4108 9.30814Z" fill="#8529CD"/>
</g>
<g id="Group_2">
<path id="Vector_9" d="M83.985 17.6233L89.7288 1.93945H92.0549L97.7987 17.6233H95.69L94.3092 13.7151H87.3531L85.9958 17.6233H83.9844H83.985ZM88.0085 11.8464H93.6557L90.8203 3.80748L88.0092 11.8464H88.0085Z" fill="#8529CD"/>
<path id="Vector_10" d="M103.132 17.8685C102.114 17.8685 101.193 17.5905 100.369 17.0328C99.5448 16.4757 98.8945 15.7051 98.4183 14.7218C97.9415 13.7384 97.7031 12.6164 97.7031 11.3539C97.7031 10.0914 97.9415 8.94938 98.4183 7.97378C98.8951 6.99882 99.5455 6.23278 100.369 5.67566C101.193 5.11919 102.114 4.83934 103.132 4.83934C104.069 4.83934 104.902 5.07276 105.629 5.54025C106.356 6.0071 106.905 6.6345 107.277 7.42117V0.168945H109.215V17.6228H107.544L107.325 15.2634C106.954 16.0501 106.396 16.6814 105.653 17.1559C104.91 17.6305 104.069 17.8685 103.132 17.8685ZM103.496 15.9514C104.222 15.9514 104.873 15.7593 105.447 15.3737C106.02 14.9894 106.473 14.4484 106.804 13.7513C107.135 13.0549 107.301 12.2553 107.301 11.3539C107.301 10.4524 107.135 9.63353 106.804 8.94552C106.473 8.25685 106.02 7.72037 105.447 7.33477C104.873 6.95046 104.223 6.75766 103.496 6.75766C102.769 6.75766 102.118 6.95046 101.545 7.33477C100.971 7.72037 100.519 8.25685 100.188 8.94552C99.857 9.63353 99.6917 10.437 99.6917 11.3539C99.6917 12.2708 99.857 13.0543 100.188 13.7513C100.519 14.4484 100.971 14.9887 101.545 15.3737C102.118 15.7593 102.769 15.9514 103.496 15.9514Z" fill="#8529CD"/>
<path id="Vector_11" d="M115.225 17.6231L110.475 5.08594H112.656L116.437 15.4604L120.194 5.08594H122.23L117.48 17.6231H115.226H115.225Z" fill="#8529CD"/>
<path id="Vector_12" d="M127.851 17.9185C126.672 17.9185 125.646 17.6438 124.774 17.0951C123.902 16.5463 123.227 15.7803 122.75 14.7969C122.274 13.8136 122.035 12.6742 122.035 11.3801C122.035 10.0859 122.274 8.94653 122.75 7.96319C123.227 6.97985 123.881 6.20543 124.713 5.63992C125.546 5.07442 126.503 4.79199 127.586 4.79199C128.668 4.79199 129.622 5.07442 130.445 5.63992C131.27 6.20543 131.916 6.97985 132.384 7.96319C132.852 8.94653 133.087 10.0859 133.087 11.3801V11.8714H124.022C124.103 13.2481 124.499 14.2933 125.21 15.0059C125.921 15.7184 126.85 16.075 127.997 16.075C129.467 16.075 130.695 15.3296 131.681 13.8381L132.941 15.2638C132.375 16.0995 131.645 16.7507 130.748 17.2182C129.851 17.6851 128.886 17.9191 127.851 17.9191V17.9185ZM127.585 6.63487C126.631 6.63487 125.848 6.95083 125.234 7.58146C124.62 8.21209 124.232 9.09291 124.071 10.2239H131.075C130.914 9.09355 130.53 8.21209 129.924 7.58146C129.318 6.95083 128.539 6.63487 127.585 6.63487Z" fill="#8529CD"/>
<path id="Vector_13" d="M134.611 17.6226V5.08552H136.283L136.501 7.47004C136.824 6.66725 137.285 6.02824 137.883 5.55301C138.48 5.07778 139.143 4.83984 139.87 4.83984C140.678 4.83984 141.405 5.11067 142.051 5.65167L141.373 7.61771C140.824 7.14312 140.25 6.90518 139.652 6.90518C139.054 6.90518 138.545 7.09798 138.077 7.48294C137.608 7.86789 137.236 8.38826 136.962 9.04339C136.687 9.69917 136.55 10.4368 136.55 11.2557V17.6226H134.611Z" fill="#8529CD"/>
<path id="Vector_14" d="M148.862 17.8683C146.471 17.8683 145.276 16.4594 145.276 13.6403V6.90455H143.119V5.08488H145.276V1.84082H147.214V5.08553H151.529V6.90519H147.214V13.5423C147.214 15.1492 147.82 15.9513 149.032 15.9513C149.403 15.9513 149.755 15.8817 150.086 15.7424C150.417 15.6031 150.785 15.3781 151.189 15.066L151.747 16.983C150.955 17.5737 149.993 17.8677 148.862 17.8677V17.8683Z" fill="#8529CD"/>
<path id="Vector_15" d="M154.46 3.19219C154.056 3.19219 153.721 3.04904 153.455 2.7621C153.188 2.4758 153.055 2.14372 153.055 1.76651C153.055 1.38929 153.188 1.05785 153.455 0.771556C153.722 0.484614 154.056 0.34082 154.46 0.34082C154.865 0.34082 155.2 0.484614 155.466 0.771556C155.732 1.05785 155.866 1.39058 155.866 1.76651C155.866 2.14243 155.732 2.4758 155.466 2.7621C155.199 3.04904 154.864 3.19219 154.46 3.19219ZM153.491 17.6225V5.08537H155.43V17.6225H153.491Z" fill="#8529CD"/>
<path id="Vector_16" d="M161.755 17.9182C160.737 17.9182 159.8 17.697 158.944 17.2546C158.087 16.8123 157.368 16.1726 156.787 15.3376L158.047 13.8868C158.968 15.3453 160.196 16.0746 161.731 16.0746C162.523 16.0746 163.137 15.9231 163.573 15.62C164.009 15.317 164.227 14.8862 164.227 14.3291C164.227 13.3458 163.516 12.6739 162.095 12.3134L160.664 11.9446C159.662 11.6821 158.879 11.2437 158.314 10.6292C157.748 10.0147 157.465 9.2815 157.465 8.42906C157.465 7.72428 157.647 7.09752 158.011 6.54814C158.375 5.9994 158.871 5.56931 159.501 5.25786C160.131 4.94706 160.842 4.79102 161.633 4.79102C162.505 4.79102 163.318 4.97543 164.069 5.34362C164.821 5.71246 165.406 6.23282 165.826 6.90472L164.615 8.37941C164.179 7.75716 163.73 7.31031 163.27 7.04013C162.809 6.76931 162.264 6.63454 161.633 6.63454C161.003 6.63454 160.454 6.79059 160.034 7.10139C159.613 7.41283 159.404 7.82229 159.404 8.3304C159.404 8.78951 159.565 9.1577 159.888 9.4369C160.211 9.71547 160.76 9.96178 161.537 10.1746L162.893 10.5434C163.943 10.8387 164.755 11.3017 165.329 11.9323C165.902 12.5636 166.189 13.3213 166.189 14.206C166.189 15.3041 165.786 16.1971 164.978 16.8858C164.17 17.5738 163.095 17.9182 161.755 17.9182H161.755Z" fill="#8529CD"/>
<path id="Vector_17" d="M168.712 3.19219C168.308 3.19219 167.973 3.04904 167.707 2.7621C167.44 2.4758 167.307 2.14372 167.307 1.76651C167.307 1.38929 167.44 1.05785 167.707 0.771556C167.974 0.484614 168.308 0.34082 168.712 0.34082C169.117 0.34082 169.452 0.484614 169.718 0.771556C169.984 1.05785 170.118 1.39058 170.118 1.76651C170.118 2.14243 169.984 2.4758 169.718 2.7621C169.451 3.04904 169.116 3.19219 168.712 3.19219ZM167.743 17.6225V5.08537H169.682V17.6225H167.743Z" fill="#8529CD"/>
<path id="Vector_18" d="M171.814 17.623V5.08585H173.487L173.705 7.42201C174.109 6.61922 174.663 5.98795 175.365 5.52948C176.068 5.07037 176.864 4.84082 177.753 4.84082C179.094 4.84082 180.16 5.31605 180.952 6.26651C181.743 7.21761 182.139 8.59364 182.139 10.3965V17.6236H180.2V10.4952C180.2 9.2823 179.938 8.35635 179.413 7.71669C178.888 7.07833 178.181 6.7585 177.293 6.7585C176.597 6.7585 175.984 6.9513 175.451 7.33561C174.917 7.72121 174.502 8.23319 174.203 8.8722C173.903 9.51121 173.754 10.2083 173.754 10.962V17.6236H171.815L171.814 17.623Z" fill="#8529CD"/>
<path id="Vector_19" d="M189.239 22.5884C188.206 22.5884 187.228 22.4168 186.307 22.0725C185.386 21.7275 184.602 21.2362 183.956 20.5972L184.707 18.8027C185.321 19.4088 186.012 19.8718 186.78 20.1916C187.547 20.5114 188.351 20.6713 189.192 20.6713C191.825 20.6713 193.142 19.0819 193.142 15.9023V14.9924C192.754 15.7301 192.201 16.3446 191.482 16.8366C190.763 17.3286 189.951 17.5743 189.045 17.5743C188.028 17.5743 187.115 17.3035 186.307 16.7625C185.499 16.2221 184.86 15.4722 184.393 14.514C183.923 13.5552 183.689 12.4693 183.689 11.2564C183.689 10.0435 183.92 8.9299 184.38 7.96268C184.841 6.9961 185.475 6.23393 186.283 5.67617C187.091 5.11969 188.012 4.83984 189.046 4.83984C189.951 4.83984 190.771 5.07778 191.506 5.55301C192.241 6.02824 192.803 6.63501 193.19 7.37203L193.384 5.08552H195.057V15.9023C195.057 18.0979 194.548 19.7615 193.53 20.8925C192.511 22.0229 191.082 22.5884 189.24 22.5884H189.239ZM189.384 15.6811C190.128 15.6811 190.782 15.4883 191.348 15.1034C191.913 14.7184 192.358 14.1897 192.681 13.5178C193.004 12.8459 193.166 12.076 193.166 11.2067C193.166 10.3375 193.004 9.54377 192.681 8.87122C192.358 8.19933 191.913 7.67509 191.348 7.29788C190.782 6.92066 190.128 6.73173 189.384 6.73173C188.64 6.73173 188.015 6.92066 187.457 7.29788C186.9 7.67509 186.46 8.19933 186.137 8.87122C185.813 9.54377 185.652 10.3214 185.652 11.2067C185.652 12.0921 185.813 12.8704 186.137 13.5423C186.46 14.2148 186.9 14.739 187.457 15.1156C188.015 15.4935 188.658 15.6818 189.384 15.6818V15.6811Z" fill="#8529CD"/>
</g>
</g>
<defs>
<clipPath id="clip0_1703_37979">
<rect width="195" height="24" fill="white"/>
</clipPath>
</defs>
</svg>
