<svg width="228" height="180" viewBox="0 0 228 180" fill="none" xmlns="http://www.w3.org/2000/svg">
<g id="Frame 69571">
<rect width="228" height="180" rx="18" fill="white"/>
<g id="Group 18">
<g id="Vector">
<path d="M16.7875 110.394H9V107H28.3679V110.394H20.614V130.518H16.7875V110.394Z" fill="#0099CC"/>
<path d="M29.413 113.829L29.6588 116.029C30.6592 114.312 32.3451 113.456 34.7163 113.456C36.4609 113.456 37.8802 113.93 38.9741 114.877L37.3333 117.923C36.4713 117.245 35.4605 116.909 34.2974 116.909C32.9716 116.909 31.8673 117.305 30.9812 118.094C30.0984 118.884 29.6554 120.012 29.6554 121.48V130.518H26.0622V113.829H29.413Z" fill="#0099CC"/>
<path d="M53.5394 113.826H56.9585V130.539H53.6072L53.4376 127.828C52.9356 128.844 52.1283 129.624 51.009 130.165C49.893 130.707 48.7634 130.979 47.6237 130.979C45.0695 130.979 42.9902 130.206 41.3858 128.659C39.778 127.111 38.9741 124.945 38.9741 122.167C38.9741 119.389 39.7983 117.324 41.4537 115.777C43.1056 114.23 45.1849 113.456 47.6916 113.456C48.9229 113.456 50.0558 113.722 51.0938 114.253C52.1317 114.784 52.9119 115.524 53.4342 116.473L53.536 113.829L53.5394 113.826ZM47.9663 116.641C46.4162 116.641 45.117 117.149 44.0689 118.168C43.0208 119.184 42.495 120.519 42.495 122.167C42.495 123.815 43.0208 125.184 44.0689 126.2C45.117 127.216 46.4162 127.727 47.9663 127.727C49.6996 127.727 51.0429 127.179 51.9994 126.082C52.956 124.986 53.4342 123.681 53.4342 122.167C53.4342 120.654 52.956 119.382 51.9994 118.286C51.0429 117.189 49.6962 116.641 47.9663 116.641Z" fill="#0099CC"/>
<path d="M77.7098 107V130.64H74.3925L74.1889 128.003C72.9576 129.986 71.0106 130.979 68.3411 130.979C65.8107 130.979 63.7415 130.207 62.1371 128.664C60.5293 127.12 59.7254 124.993 59.7254 122.288C59.7254 119.584 60.5157 117.402 62.0998 115.879C63.6839 114.356 65.7394 113.597 68.2699 113.597C69.4096 113.597 70.5561 113.862 71.706 114.392C72.8559 114.923 73.6835 115.651 74.1855 116.574V107.003H77.7064L77.7098 107ZM68.5819 116.876C67.0318 116.876 65.7564 117.366 64.7524 118.345C63.7483 119.325 63.2497 120.641 63.2497 122.285C63.2497 123.929 63.7517 125.251 64.7524 126.241C65.7564 127.234 67.0318 127.731 68.5819 127.731C70.1321 127.731 71.3295 127.224 72.3776 126.208C73.4257 125.194 73.9515 123.885 73.9515 122.285C73.9515 120.684 73.4257 119.409 72.3776 118.396C71.3295 117.382 70.0643 116.872 68.5819 116.872V116.876Z" fill="#0099CC"/>
<path d="M83.6978 123.536C83.8584 124.822 84.4322 125.842 85.4194 126.597C86.4066 127.352 87.6807 127.731 89.2418 127.731C90.1811 127.731 91.1102 127.573 92.0291 127.258C92.9479 126.942 93.6584 126.503 94.164 125.939L96.4697 128.137C95.6191 129.063 94.5363 129.768 93.2178 130.251C91.8993 130.734 90.55 130.979 89.1734 130.979C86.3964 130.979 84.176 130.181 82.5125 128.577C80.849 126.976 80.0155 124.835 80.0155 122.151C80.0155 119.466 80.8422 117.516 82.4955 115.892C84.1487 114.268 86.2939 113.456 88.9343 113.456C91.5748 113.456 93.638 114.187 95.199 115.654C96.76 117.12 97.5389 119.251 97.5389 122.046C97.5389 122.362 97.515 122.859 97.4706 123.533H83.6978V123.536ZM94.0615 120.593C93.9454 119.285 93.4467 118.288 92.562 117.6C91.6773 116.912 90.5022 116.57 89.0334 116.57C87.6773 116.57 86.5296 116.916 85.5902 117.6C84.6474 118.288 84.0394 119.285 83.7661 120.593H94.0615Z" fill="#0099CC"/>
<path d="M117.829 107V130.64H114.512L114.308 128.003C113.077 129.986 111.13 130.979 108.46 130.979C105.93 130.979 103.861 130.207 102.256 128.664C100.648 127.12 99.8446 124.993 99.8446 122.288C99.8446 119.584 100.635 117.402 102.219 115.879C103.803 114.356 105.859 113.597 108.389 113.597C109.529 113.597 110.672 113.862 111.825 114.392C112.975 114.923 113.803 115.651 114.305 116.574V107.003H117.826L117.829 107ZM108.701 116.876C107.151 116.876 105.876 117.366 104.872 118.345C103.867 119.325 103.369 120.641 103.369 122.285C103.369 123.929 103.871 125.251 104.872 126.241C105.876 127.234 107.151 127.731 108.701 127.731C110.251 127.731 111.449 127.224 112.497 126.208C113.545 125.194 114.071 123.885 114.071 122.285C114.071 120.684 113.545 119.409 112.497 118.396C111.449 117.382 110.183 116.872 108.701 116.872V116.876Z" fill="#0099CC"/>
<path d="M122.955 115.962C124.528 114.291 126.572 113.456 129.094 113.456C131.616 113.456 133.67 114.291 135.266 115.962C136.858 117.632 137.658 119.715 137.658 122.218C137.658 124.72 136.872 126.861 135.299 128.507C133.726 130.154 131.659 130.979 129.094 130.979C126.529 130.979 124.472 130.158 122.922 128.507C121.372 126.861 120.596 124.764 120.596 122.218C120.596 119.671 121.382 117.632 122.955 115.962ZM129.094 116.695C127.577 116.695 126.356 117.23 125.43 118.298C124.505 119.367 124.043 120.672 124.043 122.218C124.043 123.763 124.505 125.065 125.43 126.12C126.356 127.175 127.577 127.706 129.094 127.706C130.61 127.706 131.864 127.178 132.79 126.12C133.716 125.065 134.177 123.763 134.177 122.218C134.177 120.672 133.703 119.394 132.757 118.315C131.808 117.237 130.587 116.695 129.094 116.695Z" fill="#0099CC"/>
<path d="M143.907 113.917V122.938C143.907 124.408 144.3 125.579 145.092 126.447C145.881 127.319 146.999 127.753 148.443 127.753C149.796 127.753 150.907 127.268 151.777 126.296C152.646 125.323 153.08 124.125 153.08 122.702V113.92H156.565V130.606H153.419L153.217 128.267C151.659 130.078 149.742 130.979 147.466 130.979C145.367 130.979 143.668 130.266 142.372 128.843C141.076 127.419 140.425 125.465 140.425 122.975V113.92H143.91L143.907 113.917Z" fill="#0099CC"/>
<path d="M162.853 116.574C163.355 115.651 164.179 114.923 165.332 114.392C166.482 113.862 167.628 113.597 168.768 113.597C171.275 113.597 173.327 114.359 174.921 115.879C176.516 117.402 177.316 119.537 177.316 122.288C177.316 125.04 176.512 127.12 174.904 128.664C173.297 130.207 171.227 130.979 168.7 130.979C166.034 130.979 164.084 129.986 162.853 128.003L162.649 130.64H159.332V107H162.853V116.574ZM172.255 118.352C171.231 117.372 169.966 116.882 168.46 116.882C166.953 116.882 165.678 117.389 164.63 118.406C163.582 119.419 163.056 120.718 163.056 122.295C163.056 123.872 163.575 125.204 164.613 126.218C165.651 127.231 166.933 127.741 168.46 127.741C169.986 127.741 171.227 127.244 172.255 126.251C173.28 125.258 173.792 123.939 173.792 122.295C173.792 120.651 173.28 119.335 172.255 118.355V118.352Z" fill="#0099CC"/>
<path d="M183.772 107V130.518H180.083V107H183.772Z" fill="#0099CC"/>
<path d="M190.124 123.536C190.281 124.822 190.839 125.842 191.801 126.597C192.762 127.352 194.002 127.731 195.522 127.731C196.437 127.731 197.342 127.573 198.236 127.258C199.131 126.942 199.823 126.503 200.315 125.939L202.56 128.137C201.732 129.063 200.678 129.768 199.394 130.251C198.11 130.734 196.796 130.979 195.456 130.979C192.752 130.979 190.59 130.181 188.97 128.577C187.35 126.976 186.539 124.835 186.539 122.151C186.539 119.466 187.344 117.516 188.954 115.892C190.563 114.268 192.652 113.456 195.223 113.456C197.794 113.456 199.803 114.187 201.323 115.654C202.843 117.12 203.601 119.251 203.601 122.046C203.601 122.362 203.578 122.859 203.535 123.533H190.124V123.536ZM200.215 120.593C200.102 119.285 199.617 118.288 198.755 117.6C197.894 116.912 196.75 116.57 195.319 116.57C193.999 116.57 192.881 116.916 191.967 117.6C191.049 118.288 190.457 119.285 190.191 120.593H200.215Z" fill="#0099CC"/>
<path d="M210.058 113.829L210.295 116.029C211.26 114.312 212.886 113.456 215.173 113.456C216.856 113.456 218.225 113.93 219.28 114.877L217.697 117.923C216.866 117.245 215.891 116.909 214.769 116.909C213.49 116.909 212.425 117.305 211.574 118.094C210.722 118.884 210.295 120.012 210.295 121.48V130.518H206.829V113.829H210.061H210.058Z" fill="#0099CC"/>
</g>
<path id="Vector 62" d="M105.704 84H113.926V58.3265H122.833C124.478 58.3265 127.63 59.2517 129 59.7143C129 53.6082 123.975 50.6939 121.463 50H92V58.3265H105.704V84Z" fill="#0099CC"/>
<path id="Vector 63" d="M105 94V85.75H123.107C129.375 85.75 135.643 79.5625 135.643 72C135.643 65.95 132.393 62.1458 130.768 61C130.768 54.95 127.518 51.1458 125.893 50C131.929 50.4583 144 55.5 144 72C144 88.5 130.071 93.5417 123.107 94H105Z" fill="#2B3E44"/>
</g>
</g>
</svg>
