<svg width="178" height="76" viewBox="0 0 178 76" fill="none" xmlns="http://www.w3.org/2000/svg">
<path d="M0 4C0 1.79086 1.79086 0 4 0H174C176.209 0 178 1.79086 178 4V72C178 74.2091 176.209 76 174 76H4C1.79086 76 0 74.2091 0 72V4Z" fill="white"/>
<rect width="15.7437" height="15.7437" transform="translate(27.5977 47.7529)" fill="#00B67A"/>
<path d="M35.4693 58.5183L37.8636 57.8772L38.864 61.1349L35.4693 58.5183ZM40.9796 54.3076H36.7649L35.4693 50.1143L34.1737 54.3076H29.959L33.3701 56.9068L32.0745 61.1002L35.4857 58.501L37.5848 56.9068L40.9796 54.3076Z" fill="white"/>
<rect width="15.7437" height="15.7437" transform="translate(46.4902 47.7529)" fill="#00B67A"/>
<path d="M54.3619 58.5183L56.7562 57.8772L57.7566 61.1349L54.3619 58.5183ZM59.8722 54.3076H55.6574L54.3619 50.1143L53.0663 54.3076H48.8516L52.2627 56.9068L50.9671 61.1002L54.3783 58.501L56.4774 56.9068L59.8722 54.3076Z" fill="white"/>
<rect width="15.7437" height="15.7437" transform="translate(65.3828 47.7529)" fill="#00B67A"/>
<path d="M73.2544 58.5183L75.6488 57.8772L76.6492 61.1349L73.2544 58.5183ZM78.7647 54.3076H74.55L73.2544 50.1143L71.9589 54.3076H67.7441L71.1553 56.9068L69.8597 61.1002L73.2708 58.501L75.37 56.9068L78.7647 54.3076Z" fill="white"/>
<rect width="15.7437" height="15.7437" transform="translate(84.2754 47.7529)" fill="#00B67A"/>
<path d="M92.147 58.5183L94.5414 57.8772L95.5418 61.1349L92.147 58.5183ZM97.6573 54.3076H93.4426L92.147 50.1143L90.8514 54.3076H86.6367L90.0479 56.9068L88.7523 61.1002L92.1634 58.501L94.2626 56.9068L97.6573 54.3076Z" fill="white"/>
<rect width="15.7437" height="15.7437" transform="translate(103.168 47.7529)" fill="url(#paint0_linear_1964_21517)"/>
<path d="M111.04 58.5183L113.434 57.8772L114.434 61.1349L111.04 58.5183ZM116.55 54.3076H112.335L111.04 50.1143L109.744 54.3076H105.529L108.94 56.9068L107.645 61.1002L111.056 58.501L113.155 56.9068L116.55 54.3076Z" fill="white"/>
<g clip-path="url(#clip0_1964_21517)">
<path d="M58.1746 18.498H71.3375V20.9539H66.1618V34.7595H63.3158V20.9539H58.1631V18.498H58.1746ZM70.7752 22.9852H73.2081V25.2574H73.254C73.3343 24.9361 73.4835 24.6262 73.7016 24.3278C73.9196 24.0295 74.1836 23.7426 74.4934 23.5016C74.8033 23.2491 75.1475 23.054 75.5263 22.8933C75.905 22.7442 76.2951 22.6638 76.6853 22.6638C76.9837 22.6638 77.2018 22.6753 77.3165 22.6868C77.4313 22.6983 77.546 22.7212 77.6723 22.7327V25.2344C77.4887 25.2 77.305 25.1771 77.1099 25.1541C76.9149 25.1312 76.7312 25.1197 76.5476 25.1197C76.1115 25.1197 75.6984 25.2115 75.3082 25.3836C74.918 25.5558 74.5852 25.8197 74.2983 26.1525C74.0114 26.4968 73.7819 26.9099 73.6098 27.4149C73.4376 27.9198 73.3573 28.4936 73.3573 29.1478V34.748H70.7637V22.9852H70.7752ZM89.5958 34.7595H87.0481V33.1184H87.0022C86.6809 33.7152 86.2104 34.1857 85.5792 34.5415C84.948 34.8972 84.3054 35.0808 83.6513 35.0808C82.102 35.0808 80.9774 34.7021 80.2888 33.9332C79.6002 33.1643 79.256 32.0053 79.256 30.456V22.9852H81.8495V30.2035C81.8495 31.2364 82.0446 31.9708 82.4463 32.3955C82.8365 32.8201 83.3988 33.0381 84.1103 33.0381C84.6611 33.0381 85.1087 32.9578 85.4759 32.7856C85.8432 32.6135 86.1415 32.3955 86.3596 32.1086C86.5891 31.8331 86.7498 31.4889 86.8531 31.0987C86.9563 30.7085 87.0022 30.2839 87.0022 29.8248V22.9966H89.5958V34.7595ZM94.0141 30.9839C94.0944 31.7413 94.3813 32.2692 94.8748 32.5791C95.3797 32.8774 95.9765 33.0381 96.6765 33.0381C96.9175 33.0381 97.1929 33.0152 97.5028 32.9807C97.8126 32.9463 98.111 32.866 98.375 32.7627C98.6504 32.6594 98.8684 32.4987 99.052 32.2922C99.2242 32.0856 99.3045 31.8217 99.293 31.4889C99.2816 31.1561 99.1553 30.8806 98.9258 30.6741C98.6963 30.456 98.4094 30.2954 98.0536 30.1576C97.6979 30.0314 97.2962 29.9166 96.8372 29.8248C96.3781 29.733 95.9191 29.6297 95.4486 29.5265C94.9666 29.4232 94.4961 29.2855 94.0485 29.1363C93.6009 28.9871 93.1993 28.7805 92.8435 28.5166C92.4878 28.2641 92.2009 27.9313 91.9943 27.5296C91.7763 27.128 91.673 26.6345 91.673 26.0378C91.673 25.3951 91.8336 24.8672 92.1435 24.4311C92.4533 23.995 92.855 23.6508 93.3255 23.3868C93.8075 23.1229 94.3354 22.9393 94.9207 22.8245C95.506 22.7212 96.0683 22.6638 96.5962 22.6638C97.2044 22.6638 97.7897 22.7327 98.3405 22.8589C98.8914 22.9852 99.3963 23.1917 99.8439 23.4901C100.291 23.777 100.659 24.1557 100.957 24.6147C101.255 25.0738 101.439 25.6361 101.519 26.2902H98.811C98.6848 25.6705 98.4094 25.2459 97.9618 25.0394C97.5143 24.8213 96.9978 24.718 96.424 24.718C96.2404 24.718 96.0224 24.7295 95.7699 24.7639C95.5174 24.7984 95.2879 24.8557 95.0584 24.9361C94.8403 25.0164 94.6567 25.1426 94.4961 25.3033C94.3469 25.464 94.2665 25.6705 94.2665 25.9345C94.2665 26.2558 94.3813 26.5083 94.5993 26.7034C94.8174 26.8985 95.1043 27.0591 95.46 27.1968C95.8158 27.3231 96.2175 27.4378 96.6765 27.5296C97.1355 27.6215 97.6061 27.7247 98.0881 27.828C98.5586 27.9313 99.0176 28.069 99.4766 28.2182C99.9357 28.3674 100.337 28.574 100.693 28.8379C101.049 29.1019 101.336 29.4232 101.554 29.8134C101.772 30.2035 101.887 30.697 101.887 31.2708C101.887 31.9708 101.726 32.5561 101.405 33.0496C101.083 33.5316 100.67 33.9332 100.165 34.2316C99.6603 34.53 99.0865 34.7595 98.4668 34.8972C97.8471 35.0349 97.2274 35.1038 96.6191 35.1038C95.8732 35.1038 95.1846 35.0235 94.5534 34.8513C93.9223 34.6792 93.3714 34.4267 92.9124 34.0939C92.4533 33.7496 92.0861 33.325 91.8222 32.8201C91.5582 32.3151 91.4205 31.7069 91.3976 31.0069H94.0141V30.9839ZM102.575 22.9852H104.538V19.4506H107.131V22.9852H109.472V24.9246H107.131V31.2134C107.131 31.4889 107.143 31.7184 107.166 31.9249C107.189 32.12 107.246 32.2922 107.326 32.4299C107.407 32.5676 107.533 32.6709 107.705 32.7397C107.877 32.8086 108.095 32.843 108.393 32.843C108.577 32.843 108.761 32.843 108.944 32.8315C109.128 32.8201 109.312 32.7971 109.495 32.7512V34.7595C109.208 34.7939 108.921 34.8169 108.657 34.8513C108.382 34.8857 108.107 34.8972 107.82 34.8972C107.131 34.8972 106.58 34.8284 106.167 34.7021C105.754 34.5759 105.421 34.3808 105.192 34.1283C104.951 33.8759 104.802 33.566 104.71 33.1873C104.629 32.8086 104.572 32.3725 104.561 31.8905V24.9475H102.598V22.9852H102.575ZM111.308 22.9852H113.764V24.5803H113.81C114.177 23.8918 114.682 23.4098 115.336 23.1114C115.991 22.813 116.691 22.6638 117.46 22.6638C118.389 22.6638 119.192 22.8245 119.881 23.1573C120.57 23.4786 121.143 23.9262 121.602 24.5C122.061 25.0738 122.394 25.7394 122.624 26.4968C122.853 27.2542 122.968 28.069 122.968 28.9297C122.968 29.7216 122.865 30.4904 122.658 31.2249C122.452 31.9708 122.142 32.625 121.729 33.1988C121.315 33.7726 120.788 34.2201 120.145 34.5644C119.502 34.9087 118.756 35.0808 117.884 35.0808C117.505 35.0808 117.127 35.0464 116.748 34.9776C116.369 34.9087 116.002 34.7939 115.658 34.6448C115.314 34.4956 114.981 34.3005 114.694 34.0595C114.395 33.8185 114.154 33.5431 113.948 33.2332H113.902V39.1089H111.308V22.9852ZM120.374 28.8838C120.374 28.3559 120.306 27.8395 120.168 27.3346C120.03 26.8296 119.824 26.3935 119.548 26.0033C119.273 25.6132 118.928 25.3033 118.527 25.0738C118.114 24.8443 117.643 24.718 117.115 24.718C116.025 24.718 115.199 25.0967 114.648 25.8541C114.097 26.6116 113.822 27.6215 113.822 28.8838C113.822 29.4806 113.89 30.0314 114.04 30.5363C114.189 31.0413 114.395 31.4774 114.694 31.8446C114.981 32.2118 115.325 32.4987 115.727 32.7053C116.128 32.9234 116.599 33.0266 117.127 33.0266C117.723 33.0266 118.217 32.9004 118.63 32.6594C119.043 32.4184 119.376 32.0971 119.64 31.7184C119.904 31.3282 120.099 30.8921 120.214 30.3986C120.317 29.9052 120.374 29.4002 120.374 28.8838ZM124.953 18.498H127.547V20.9539H124.953V18.498ZM124.953 22.9852H127.547V34.7595H124.953V22.9852ZM129.865 18.498H132.459V34.7595H129.865V18.498ZM140.411 35.0808C139.47 35.0808 138.633 34.9202 137.898 34.6103C137.164 34.3005 136.544 33.8644 136.028 33.325C135.523 32.7742 135.133 32.12 134.869 31.3626C134.605 30.6052 134.467 29.7675 134.467 28.8609C134.467 27.9657 134.605 27.1395 134.869 26.382C135.133 25.6246 135.523 24.9705 136.028 24.4197C136.533 23.8688 137.164 23.4442 137.898 23.1343C138.633 22.8245 139.47 22.6638 140.411 22.6638C141.353 22.6638 142.19 22.8245 142.925 23.1343C143.659 23.4442 144.279 23.8803 144.795 24.4197C145.3 24.9705 145.69 25.6246 145.954 26.382C146.218 27.1395 146.356 27.9657 146.356 28.8609C146.356 29.7675 146.218 30.6052 145.954 31.3626C145.69 32.12 145.3 32.7742 144.795 33.325C144.29 33.8759 143.659 34.3005 142.925 34.6103C142.19 34.9202 141.353 35.0808 140.411 35.0808ZM140.411 33.0266C140.985 33.0266 141.49 32.9004 141.915 32.6594C142.339 32.4184 142.684 32.0971 142.959 31.7069C143.235 31.3167 143.43 30.8692 143.567 30.3757C143.694 29.8822 143.762 29.3773 143.762 28.8609C143.762 28.3559 143.694 27.8624 143.567 27.3575C143.441 26.8526 143.235 26.4165 142.959 26.0263C142.684 25.6361 142.339 25.3263 141.915 25.0853C141.49 24.8443 140.985 24.718 140.411 24.718C139.838 24.718 139.333 24.8443 138.908 25.0853C138.484 25.3263 138.139 25.6476 137.864 26.0263C137.588 26.4165 137.393 26.8526 137.256 27.3575C137.129 27.8624 137.061 28.3559 137.061 28.8609C137.061 29.3773 137.129 29.8822 137.256 30.3757C137.382 30.8692 137.588 31.3167 137.864 31.7069C138.139 32.0971 138.484 32.4184 138.908 32.6594C139.333 32.9119 139.838 33.0266 140.411 33.0266ZM147.113 22.9852H149.076V19.4506H151.669V22.9852H154.011V24.9246H151.669V31.2134C151.669 31.4889 151.681 31.7184 151.704 31.9249C151.727 32.12 151.784 32.2922 151.865 32.4299C151.945 32.5676 152.071 32.6709 152.243 32.7397C152.415 32.8086 152.633 32.843 152.932 32.843C153.115 32.843 153.299 32.843 153.483 32.8315C153.666 32.8201 153.85 32.7971 154.034 32.7512V34.7595C153.747 34.7939 153.46 34.8169 153.196 34.8513C152.92 34.8857 152.645 34.8972 152.358 34.8972C151.669 34.8972 151.119 34.8284 150.705 34.7021C150.292 34.5759 149.96 34.3808 149.73 34.1283C149.489 33.8759 149.34 33.566 149.248 33.1873C149.168 32.8086 149.11 32.3725 149.099 31.8905V24.9475H147.136V22.9852H147.113Z" fill="#20262F"/>
<path d="M55.1451 18.4979H43.256L39.5837 7.18262L35.8999 18.4979L24.0107 18.4865L33.6391 25.4868L29.9553 36.7906L39.5837 29.8018L49.2005 36.7906L45.5282 25.4868L55.1451 18.4979Z" fill="#00B67A"/>
<path d="M46.3548 28.0455L45.5285 25.4863L39.584 29.8013L46.3548 28.0455Z" fill="#007B52"/>
</g>
<path d="M127.995 59.3348V57.7637L133.557 48.9779H134.795V51.2906H134.009L130.031 57.5877V57.6883H137.654V59.3348H127.995ZM134.097 61.8486V58.8572L134.11 58.1408V48.9779H135.951V61.8486H134.097ZM140.624 61.968C140.28 61.968 139.985 61.8465 139.738 61.6035C139.491 61.3563 139.367 61.0589 139.367 60.7111C139.367 60.3676 139.491 60.0743 139.738 59.8313C139.985 59.5841 140.28 59.4605 140.624 59.4605C140.967 59.4605 141.263 59.5841 141.51 59.8313C141.757 60.0743 141.881 60.3676 141.881 60.7111C141.881 60.9416 141.822 61.1531 141.705 61.3459C141.592 61.5344 141.441 61.6852 141.252 61.7984C141.064 61.9115 140.854 61.968 140.624 61.968ZM148.414 62.0246C147.626 62.0246 146.918 61.8738 146.289 61.5721C145.665 61.2663 145.167 60.8473 144.794 60.3152C144.421 59.7831 144.222 59.1756 144.197 58.4927H146.082C146.128 59.0457 146.373 59.5003 146.817 59.8564C147.261 60.2126 147.793 60.3906 148.414 60.3906C148.908 60.3906 149.346 60.2775 149.727 60.0513C150.112 59.8208 150.414 59.5045 150.632 59.1023C150.854 58.7001 150.965 58.2413 150.965 57.726C150.965 57.2023 150.852 56.7351 150.626 56.3245C150.399 55.914 150.087 55.5913 149.689 55.3567C149.295 55.1221 148.843 55.0027 148.332 54.9985C147.942 54.9985 147.55 55.0655 147.157 55.1996C146.763 55.3337 146.444 55.5097 146.201 55.7275L144.423 55.4636L145.146 48.9779H152.222V50.6433H146.761L146.352 54.2444H146.428C146.679 54.0014 147.012 53.7982 147.427 53.6348C147.846 53.4714 148.294 53.3897 148.772 53.3897C149.555 53.3897 150.253 53.5761 150.865 53.949C151.48 54.3219 151.964 54.8309 152.316 55.4761C152.672 56.1172 152.848 56.8545 152.844 57.6883C152.848 58.522 152.66 59.2657 152.279 59.9193C151.901 60.5729 151.378 61.0882 150.707 61.4653C150.041 61.8382 149.277 62.0246 148.414 62.0246Z" fill="#20262F"/>
<defs>
<linearGradient id="paint0_linear_1964_21517" x1="0" y1="7.87186" x2="15.7437" y2="7.87186" gradientUnits="userSpaceOnUse">
<stop stop-color="#00B67A"/>
<stop offset="0.5" stop-color="#00B67A"/>
<stop offset="0.5001" stop-color="#00B67A" stop-opacity="0"/>
<stop offset="0.5002" stop-color="#D9D9D9"/>
<stop offset="0.9998" stop-color="#D9D9D9"/>
<stop offset="0.9999" stop-color="#219653" stop-opacity="0"/>
<stop offset="1" stop-color="#D9D9D9"/>
</linearGradient>
<clipPath id="clip0_1964_21517">
<rect width="130" height="31.9262" fill="white" transform="translate(24.0107 7.18262)"/>
</clipPath>
</defs>
</svg>
