<svg width="48" height="48" viewBox="0 0 48 48" fill="none" xmlns="http://www.w3.org/2000/svg">
<path d="M42.2073 0.727539H5.06487C2.21588 0.727539 0 3.04894 0 5.79241V42.9348C0 45.7838 2.21588 47.9997 5.06487 47.9997H42.2073C44.9507 47.9997 47.2721 45.7838 47.2721 42.9348V5.79241C47.2721 3.04894 44.9507 0.727539 42.2073 0.727539ZM37.0369 17.5049C37.0369 17.8215 37.0369 18.138 37.0369 18.4546C37.0369 27.5292 30.0727 38.081 17.305 38.081C13.4008 38.081 9.81319 37.0258 6.75316 35.021C7.28076 35.1265 7.80835 35.1265 8.33594 35.1265C11.607 35.1265 14.5615 33.9658 16.9884 32.172C13.9284 32.0664 11.396 30.0616 10.4463 27.3181C11.607 27.5292 12.5567 27.5292 13.6118 27.2126C10.4463 26.5795 8.1249 23.836 8.1249 20.4594V20.3539C8.96905 20.8815 10.0242 21.1981 11.1849 21.1981C9.49664 20.0374 8.1249 17.5049 8.1249 15.5001C8.1249 14.1283 8.44146 12.9676 9.07456 11.9125C12.4511 16.1332 17.6215 18.8767 23.3195 19.1932C22.3699 14.5504 25.852 10.6462 30.0727 10.6462C32.0775 10.6462 33.8713 11.4904 35.1376 12.8621C36.7203 12.5456 38.1976 12.018 39.5693 11.1738C39.0417 12.8621 37.881 14.1283 36.5093 14.9725C37.881 14.867 39.2528 14.4449 40.519 13.9173C39.5693 15.289 38.3031 16.5553 37.0369 17.5049Z" fill="#577590"/>
</svg>
