<svg width="106" height="106" viewBox="0 0 106 106" fill="none" xmlns="http://www.w3.org/2000/svg">
<g id="webgains100 1" clip-path="url(#clip0_1703_37925)">
<g id="surface1">
<path id="Vector" d="M82.5313 15.4647H89.529L91.649 12.5373C91.649 12.5373 83.7404 12.5373 81.8316 12.5373C80.8378 12.5373 79.7116 12.8561 79.0325 13.3861C78.1878 14.0445 77.7613 14.9554 77.7613 16.0568C77.7613 16.6738 77.869 17.2038 78.1009 17.6717C78.3327 18.1147 78.6309 18.475 78.9911 18.7068C79.3306 18.9429 79.7116 19.1126 80.1132 19.2617C80.3699 19.3445 82.2994 19.7668 82.6183 19.8331C82.8916 19.8952 83.1276 19.9821 83.2725 20.1064C83.6576 20.4045 83.3801 20.744 83.2932 20.8061C83.2311 20.8724 83.0613 20.9345 82.7218 20.9345H76.8918L76.2583 23.924H83.5085C83.5085 23.924 84.4194 23.8826 84.6927 23.775C85.202 23.6259 85.3718 23.6921 86.0302 23.1621C86.879 22.5038 87.1978 21.5059 87.1978 20.4045C87.1978 19.7917 87.0901 19.2617 86.8583 18.7938C86.6223 18.3466 86.3283 17.9864 85.968 17.7545C85.6285 17.5226 85.2476 17.3529 84.8418 17.2038C84.5892 17.1168 82.6597 16.6945 82.3409 16.6324C82.0676 16.5661 81.8523 16.4833 81.6825 16.355C81.579 16.2721 81.5376 16.1852 81.5376 16.0568C81.5376 15.974 81.5376 15.8457 81.728 15.6759C81.9185 15.444 82.5313 15.4647 82.5313 15.4647ZM20.393 21.0836H25.8006L25.2292 23.8619H16.7285L19.0597 12.5373H27.5604L27.0097 15.3157H21.6227L21.3495 16.8436H25.6723L25.1423 19.5557H20.6911L20.393 21.0836ZM36.4876 20.4666C36.293 21.5059 35.8292 22.334 35.0632 22.9468C34.322 23.5638 33.4525 23.8619 32.4587 23.8619H26.608L28.9599 12.5373H34.0695C35.088 12.5373 35.8706 12.8147 36.3799 13.3654C36.8892 13.9161 37.0383 14.6573 36.8478 15.6138C36.6987 16.4171 36.0818 17.1168 35.0425 17.7131V17.7752C36.2516 18.3259 36.7402 19.2161 36.4876 20.4666ZM33.4525 20.1519C33.5187 19.8331 33.4732 19.5764 33.3283 19.3445C33.1792 19.1126 32.968 19.005 32.6906 19.005H30.7197L30.2518 21.2947H32.2683C32.5209 21.2947 32.7776 21.1664 33.0095 20.9345C33.2413 20.7233 33.3904 20.4459 33.4525 20.1519ZM31.5685 15.0838L31.2497 16.885H32.8604C33.0509 16.885 33.2413 16.7773 33.4111 16.5868C33.6016 16.3964 33.7092 16.1852 33.7506 15.974C33.792 15.7629 33.7506 15.5724 33.643 15.3819C33.5395 15.1873 33.3904 15.0838 33.1999 15.0838H31.5685ZM43.5432 19.5764L44.0732 16.9719H49.6092L48.2097 23.8826H45.539L45.8123 22.5866L45.7502 22.5452C45.1995 23.0545 45.0918 23.2036 44.5204 23.4768C43.9697 23.7543 43.183 23.9033 42.3176 23.9033C40.8311 23.9033 39.2825 23.5845 38.4378 22.4831C37.589 21.3817 37.3116 19.9573 37.6304 18.2224C37.8209 17.1168 38.3095 16.1231 39.0506 15.2121C39.7918 14.2971 40.4502 13.7257 41.5102 13.1957C42.5702 12.6864 43.8413 12.5166 44.9676 12.5166C46.3216 12.5166 47.7832 12.8768 48.3587 13.3447C49.2283 14.0445 49.692 14.9761 49.7376 16.1852H46.5576C46.3009 15.4026 45.6011 15.0217 44.4583 15.0217C43.6302 15.0217 42.8683 15.3364 42.1685 15.9947C41.4687 16.6324 41.0423 17.3736 40.8725 18.2224C40.7027 19.0671 40.8518 19.8124 41.299 20.4252C41.742 21.0421 42.3797 21.3568 43.183 21.3568C43.862 21.3568 44.479 21.1871 44.9883 20.8724C45.5183 20.5329 45.8785 20.1064 46.1104 19.5971H43.5432V19.5764ZM56.818 23.924L56.6276 22.2471H53.1287L52.3006 23.924H49.1827L55.2695 12.6036H58.3418L59.9318 23.924H56.818ZM56.3502 19.7668L56.1804 16.0817H56.0313L54.3792 19.7668H56.3502ZM60.8676 23.924L63.2195 12.6036H66.2918L63.9399 23.924H60.8676ZM74.983 23.924H72.0183L69.832 18.1768H69.7285L68.4987 23.924H65.3809L67.6913 12.6036H70.8092L73.0783 18.2017H73.1818L74.2418 12.6036H77.252L74.983 23.924Z" fill="#E51C71"/>
<path id="Vector_2" d="M14.5622 12.6454L13.3573 18.2021H13.2496L11.0882 12.4756H11.0675L11.0013 12.8772L10.9805 12.9021L11.0675 12.4756L7.05937 17.7549L8.14008 12.6454H4.98078L2.73242 23.9244H5.87102L9.85844 18.3263H10.0489L11.937 23.9244H15.0508L17.382 12.6454H14.5622Z" fill="#E51C71"/>
<path id="Vector_3" d="M105.959 12.5381H96.9486C96.9486 12.5381 97.6276 20.4674 94.4021 26.6162C89.04 36.856 56.7307 80.2332 56.7307 80.2332L51.3893 72.8546L63.1321 56.3376C65.7821 52.7767 63.2397 47.7334 58.8093 47.7334H39.6009L45.0707 56.7227H50.7516L44.9672 64.416L31.8828 46.4374C29.7876 43.5555 31.5888 39.8041 35.1497 39.8455H75.1316L81.2183 31.4069H31.5888C22.1109 31.4069 16.7695 41.9034 22.3428 49.5553L39.0088 72.515L33.3279 80.2125C33.3279 80.2125 14.0781 53.9443 12.4218 51.1246C10.8318 48.3669 10.0079 47.075 9.20043 43.7667C7.84231 37.916 10.0493 31.4276 10.0493 31.4276H1.29184C1.29184 31.4276 0.447152 34.0776 0.0413703 39.2327C-0.380973 44.6776 1.18832 49.576 3.5195 54.0479C4.70785 56.2962 21.0302 79.6825 29.8083 91.6572C31.5888 94.096 35.2118 94.096 37.0172 91.6779L44.9423 81.0364L46.5986 83.4339L52.5983 91.7027C54.2918 94.0753 57.8114 94.1167 59.5711 91.7855L87.2388 53.0334C90.4188 48.7479 96.6918 40.5246 101.822 31.4276C106.381 23.3534 106.021 12.9232 105.959 12.5381Z" fill="#E51C71"/>
</g>
</g>
<defs>
<clipPath id="clip0_1703_37925">
<rect width="106" height="106" fill="white"/>
</clipPath>
</defs>
</svg>
