<svg width="179" height="42" fill="none" xmlns="http://www.w3.org/2000/svg"><g clip-path="url(#a)"><path fill-rule="evenodd" clip-rule="evenodd" d="M21.007 0C32.61 0 42.015 9.402 42.015 21s-9.406 21-21.008 21C9.405 42 0 32.598 0 21S9.405 0 21.007 0Zm3.34 24.078a3.94 3.94 0 0 0 6.822 3.938 3.94 3.94 0 0 0-6.822-3.938Zm-1.583-13.039a3.925 3.925 0 0 0-5.362 1.44L10.834 23.85l-.004.007a3.94 3.94 0 0 0 1.444 5.375l.013.008a3.925 3.925 0 0 0 5.362-1.44l6.568-11.371a3.943 3.943 0 0 0-1.44-5.383l-.013-.008ZM65.98 27.696l-.607-1.91h-5.235l-.607 1.91a.437.437 0 0 1-.416.304H56.52a.437.437 0 0 1-.414-.578L60.6 14.209a.437.437 0 0 1 .413-.296h3.482c.187 0 .353.119.414.296l4.493 13.213a.438.438 0 0 1-.413.578h-2.594a.437.437 0 0 1-.416-.304Zm-4.877-4.928h3.302l-1.65-5.172-1.652 5.172Zm15.215-8.855c3.885 0 6.845 3.059 6.845 7.043 0 3.985-2.96 7.044-6.845 7.044h-5.2a.437.437 0 0 1-.437-.437V14.35c0-.242.195-.437.436-.437h5.2Zm-.22 10.988c2.215 0 3.746-1.53 3.746-3.945s-1.53-3.944-3.745-3.944h-2.416V24.9H76.1Zm17.997-10.55v2.223a.437.437 0 0 1-.436.438h-3.2v10.55a.437.437 0 0 1-.436.438h-2.359a.437.437 0 0 1-.437-.437V17.012h-3.199a.437.437 0 0 1-.437-.438V14.35c0-.242.196-.437.437-.437h9.63c.242 0 .437.195.437.437Zm8.596 13.43-2.531-4.41h-1.53v4.192a.437.437 0 0 1-.437.437h-2.348a.437.437 0 0 1-.436-.437V14.35c0-.242.195-.437.436-.437h5.201a4.819 4.819 0 0 1 4.831 4.83c0 1.73-1.047 3.3-2.597 4.085l2.619 4.515a.439.439 0 0 1-.378.657h-2.451a.438.438 0 0 1-.379-.22Zm-4.164-10.85v3.623h2.416c.886 0 1.61-.785 1.61-1.811 0-1.027-.724-1.812-1.61-1.812h-2.416Zm18.549 10.765-.608-1.91h-5.234l-.608 1.91a.437.437 0 0 1-.416.304h-2.594a.437.437 0 0 1-.413-.578l4.494-13.213a.436.436 0 0 1 .413-.296h3.482c.187 0 .353.119.413.296l4.494 13.213a.437.437 0 0 1-.413.578h-2.594a.436.436 0 0 1-.416-.304Zm-4.876-4.928h3.302l-1.651-5.172-1.651 5.172Zm15.852 5.514c-4.248 0-7.328-3.18-7.328-7.326 0-4.145 3.08-7.325 7.328-7.325 2.455.094 4.372 1.046 5.752 2.857a.438.438 0 0 1-.129.645l-2.018 1.169a.436.436 0 0 1-.562-.109c-.708-.904-1.722-1.378-3.043-1.423-2.496 0-4.107 1.67-4.107 4.186s1.611 4.186 4.107 4.186c1.322 0 2.337-.47 3.045-1.412a.436.436 0 0 1 .567-.115l2.018 1.169a.437.437 0 0 1 .133.638c-1.399 1.906-3.32 2.86-5.763 2.86ZM145.52 14.35v2.224a.437.437 0 0 1-.437.438h-3.199v10.55a.437.437 0 0 1-.437.438h-2.358a.437.437 0 0 1-.437-.437V17.012h-3.199a.437.437 0 0 1-.437-.438V14.35c0-.242.196-.437.437-.437h9.63c.241 0 .437.195.437.437Zm1.749-.437h2.41c.241 0 .436.195.436.437v13.213a.437.437 0 0 1-.436.437h-2.41a.437.437 0 0 1-.436-.437V14.35c0-.242.195-.437.436-.437Zm11.74 14.369c-4.046 0-7.328-3.18-7.328-7.326 0-4.145 3.282-7.325 7.328-7.325 4.047 0 7.328 3.18 7.328 7.325 0 4.146-3.281 7.326-7.328 7.326Zm0-3.14c2.295 0 4.107-1.67 4.107-4.186 0-2.515-1.812-4.186-4.107-4.186s-4.107 1.67-4.107 4.186 1.812 4.186 4.107 4.186Zm17.119-11.292h2.348c.241 0 .437.196.437.437V27.5a.437.437 0 0 1-.437.437h-1.754a.437.437 0 0 1-.356-.184l-5.305-7.463v7.21a.437.437 0 0 1-.436.437h-2.348a.437.437 0 0 1-.437-.437V14.287c0-.242.196-.437.437-.437h1.754c.141 0 .274.068.356.183l5.305 7.464v-7.21c0-.242.195-.437.436-.437Z" fill="#000"/></g><defs><clipPath id="a"><path fill="#fff" d="M0 0h179v42H0z"/></clipPath></defs></svg>