<svg width="49" height="48" fill="none" xmlns="http://www.w3.org/2000/svg"><path fill-rule="evenodd" clip-rule="evenodd" d="M.57 7.5A7.5 7.5 0 0 1 8.07 0h33a7.5 7.5 0 0 1 7.5 7.5v33a7.5 7.5 0 0 1-7.5 7.5h-33a7.5 7.5 0 0 1-7.5-7.5v-33Zm12.3 12.45V36h5.1V19.95h-5.1Zm-.3-5.1c0 1.65 1.2 2.85 2.85 2.85 1.65 0 2.85-1.2 2.85-2.85 0-1.65-1.2-2.85-2.85-2.85-1.5 0-2.85 1.2-2.85 2.85ZM31.47 36h4.8v-9.9c0-4.95-3-6.6-5.85-6.6-2.55 0-4.35 1.65-4.8 2.7v-2.25h-4.8V36h5.1v-8.55c0-2.25 1.5-3.45 3-3.45s2.55.75 2.55 3.3V36Z" fill="#577590"/></svg>