<svg width="49" height="48" fill="none" xmlns="http://www.w3.org/2000/svg"><path fill-rule="evenodd" clip-rule="evenodd" d="M19.76 32.55c1.5.9 3.3 1.35 5.1 1.35 5.55 0 9.9-4.5 9.9-9.75 0-2.7-.9-5.1-2.85-7.05-1.95-1.8-4.35-2.85-7.05-2.85-5.4 0-9.9 4.5-9.9 9.9 0 1.8.45 3.6 1.5 5.25l.3.45-1.05 3.6 3.75-1.05.3.15Zm8.4-7.05c.3 0 1.8.75 2.1.9.046.023.093.043.139.063.25.105.483.204.61.837.15 0 .15.6-.15 1.35-.15.6-1.35 1.35-1.95 1.35-.101 0-.199.009-.303.018-.51.045-1.179.104-3.297-.768-2.629-1.052-4.451-3.6-4.963-4.316-.072-.1-.118-.165-.137-.184a3.224 3.224 0 0 0-.145-.24c-.332-.524-1.055-1.665-1.055-2.91 0-1.5.75-2.25 1.05-2.55.3-.3.6-.3.75-.3h.6c.15 0 .45 0 .6.45.3.6.9 2.1.9 2.25 0 .05.017.1.034.15.033.1.066.2-.034.3-.075.075-.112.15-.15.225a.774.774 0 0 1-.15.225l-.45.45c-.15.15-.3.3-.15.6s.75 1.35 1.65 2.1c1.013.886 1.812 1.238 2.217 1.416.075.034.136.06.183.084.3 0 .45 0 .6-.15.075-.15.263-.375.45-.6.188-.225.375-.45.45-.6.15-.3.3-.3.6-.15Z" fill="#577590"/><path fill-rule="evenodd" clip-rule="evenodd" d="M.86 7.5A7.5 7.5 0 0 1 8.36 0h33a7.5 7.5 0 0 1 7.5 7.5v33a7.5 7.5 0 0 1-7.5 7.5h-33a7.5 7.5 0 0 1-7.5-7.5v-33Zm24 4.5c3.15 0 6.15 1.2 8.4 3.45s3.6 5.25 3.6 8.4c0 6.6-5.4 12-12 12-1.95 0-3.9-.6-5.7-1.5L12.86 36l1.65-6c-1.05-1.8-1.65-3.9-1.65-6 0-6.6 5.4-12 12-12Z" fill="#577590"/></svg>