<svg width="49" height="48" fill="none" xmlns="http://www.w3.org/2000/svg"><path fill-rule="evenodd" clip-rule="evenodd" d="M7.645 0h33a7.5 7.5 0 0 1 7.5 7.5v33a7.5 7.5 0 0 1-7.5 7.5h-33a7.5 7.5 0 0 1-7.5-7.5v-33a7.5 7.5 0 0 1 7.5-7.5Zm17.538 18.011c-2.15.894-6.446 2.745-12.888 5.551-1.046.416-1.595.823-1.644 1.221-.085.673.758.938 1.904 1.298.156.05.318.1.484.154 1.128.367 2.646.796 3.435.813.716.016 1.515-.28 2.397-.885 6.019-4.063 9.126-6.117 9.321-6.161.138-.032.329-.07.458.044.13.115.116.332.103.39-.084.356-3.39 3.43-5.1 5.02-.534.496-.912.848-.99.928-.173.18-.35.35-.52.514-1.047 1.01-1.834 1.768.044 3.006.903.595 1.625 1.087 2.345 1.577.787.536 1.572 1.07 2.587 1.736.259.17.506.346.747.517.915.653 1.738 1.24 2.754 1.146.59-.055 1.2-.61 1.51-2.266.732-3.914 2.171-12.394 2.504-15.888a3.903 3.903 0 0 0-.037-.87c-.03-.172-.09-.417-.314-.599-.265-.215-.674-.26-.857-.257-.83.015-2.106.458-8.243 3.011Z" fill="#577590"/></svg>