<svg width="49" height="48" fill="none" xmlns="http://www.w3.org/2000/svg"><path fill-rule="evenodd" clip-rule="evenodd" d="M.288 7.5a7.5 7.5 0 0 1 7.5-7.5h33a7.5 7.5 0 0 1 7.5 7.5v33a7.5 7.5 0 0 1-7.5 7.5h-33a7.5 7.5 0 0 1-7.5-7.5v-33Zm33.15 9.75c1.05-.15 1.95-.3 2.85-.75-.6 1.05-1.5 1.95-2.55 2.55.3 7.05-4.8 14.7-13.95 14.7-2.7 0-5.25-.9-7.5-2.25 2.55.3 5.25-.45 7.05-1.8-2.25 0-4.05-1.5-4.65-3.45.75.15 1.5 0 2.25-.15-2.25-.6-3.9-2.7-3.9-4.95.75.3 1.5.6 2.25.6-2.1-1.5-2.85-4.35-1.5-6.6 2.55 3 6.15 4.95 10.2 5.1-.75-3 1.65-6 4.8-6 1.35 0 2.7.6 3.6 1.5 1.2-.3 2.25-.6 3.15-1.2-.3 1.2-1.05 2.1-2.1 2.7Z" fill="#577590"/></svg>