<svg width="228" height="180" fill="none" xmlns="http://www.w3.org/2000/svg"><rect x="1" y="1" width="226" height="178" rx="17" fill="#fff" fill-opacity=".9"/><rect x="1" y="1" width="226" height="178" rx="17" stroke="#fff" stroke-width="2"/><path d="M67.023 73.64 47.665 50.204c-.392-.392-1.131-.196-1.131.392l1.622 22.697-14.051-12.037c-.393-.392-1.132 0-1.034.589l5.602 22.402-13.557-7.955c-.49-.294-1.132.196-.932.834l23.73 53.552c.196.49 1.033.392 1.131-.099l5.21-27.464 13.217-22.402c1.419-2.21 1.173-5.059-.449-7.073Z" fill="#F60"/><path d="M48.111 73.346 33.962 61.309c-.392-.392-1.131 0-1.033.589L38.53 84.3l10.71 6.288-1.129-17.242Z" fill="#E74030"/><path d="M48.307 118.838c-.196.588-1.033.49-1.132-.098l-8.547-34.39-13.659-8.057c-.49-.295-1.131.196-.932.833l23.73 53.552c.197.491 1.034.393 1.132-.098l5.21-27.513-.099.098-5.703 15.673Z" fill="#FAB418"/><path d="m48.306 118.837 5.896-15.673-2.652 4.372c-.294.49-1.131.294-1.131-.295l-1.132-16.604-10.709-6.288 8.548 34.39c.147.592.984.69 1.18.098Z" fill="#DE0732"/><path d="M66.827 73.64 47.47 50.204c-.294-.392-1.034-.098-1.034.393l1.622 22.696 9.778 8.45c1.916 1.622 2.651 4.372 1.72 6.827l-5.406 14.247v.197l13.218-22.403c1.425-2.109 1.082-4.957-.54-6.97Z" fill="#F60"/><path d="M52.09 92.358c2.26 1.327 3.343 3.881 2.947 6.435l-.834 4.176 5.405-14.248c.932-2.455.197-5.11-1.72-6.827l-9.777-8.45 1.23 17.295 2.75 1.619Z" fill="#DE0733"/><path d="m54.105 103.266.099-.2v-.196" fill="#000"/><path d="m54.105 103.266.099-.2v-.196" fill="#000"/><path d="m52.088 92.357-2.848-1.72 1.083 16.604c0 .589.833.834 1.131.295l2.554-4.372.098-.294.834-4.176c.585-2.456-.641-5.01-2.852-6.337Z" fill="#CC1D46"/><path d="M81.715 103.56H93.31l-5.797-15.477-5.798 15.477Zm5.5-21.373h.932c1.23 0 2.357.736 2.75 1.917l13.658 34.831h-4.126c-.736 0-1.426-.49-1.622-1.131l-3.784-9.778H80.041l-3.686 9.778c-.294.735-.931 1.131-1.622 1.131h-3.98l13.561-34.831c.543-1.132 1.675-1.916 2.901-1.916Zm73.305 36.748h5.013v-36.65h-5.013m18.914 8.058v28.592h-4.568v-36.65h2.946c.932 0 1.818.491 2.456 1.23l18.52 26.039V82.187h4.569v36.748h-2.26a3.015 3.015 0 0 1-2.456-1.229l-19.207-27.363Zm-36.944 28.592h-4.176l-9.875-29.724-9.875 29.724h-4.176l-11.003-36.65h3.979c.834 0 1.524.491 1.72 1.328l7.616 27.268 8.842-27.17c.294-.931 1.131-1.523 2.161-1.523h1.72c1.034 0 1.818.588 2.162 1.523l8.842 27.17 7.615-27.366c.197-.834.932-1.328 1.72-1.328h3.882l-11.154 36.748Z" fill="#23282C"/><path d="m63.881 102.968-.098.396.098-.197v-.199Z" fill="#3F3F3F"/></svg>