<svg width="114" height="114" fill="none" xmlns="http://www.w3.org/2000/svg"><path d="M57 106.689c27.287 0 49.694-22.185 49.694-49.694 0-1.775 1.552-3.55 3.549-3.55 1.775 0 3.55 1.775 3.55 3.55 0 31.502-25.513 56.793-56.793 56.793A56.62 56.62 0 0 1 .207 56.995C.207 25.715 25.497.202 57 .202c14.198 0 27.509 5.547 37.492 14.42l9.539-9.76c1.331-1.332 3.772-1.332 5.103 0 1.331 1.33 1.331 3.77 0 5.102L59.44 59.657c-1.33 1.331-3.771 1.331-5.102 0-1.331-1.33-1.331-3.771 0-5.102l9.761-9.761c-2.218-1.11-4.659-1.997-7.099-1.997-7.986 0-14.198 6.433-14.198 14.198 0 7.986 6.212 14.198 14.198 14.198 7.765 0 14.198-6.212 14.198-14.198 0-1.775 1.553-3.55 3.55-3.55 1.774 0 3.55 1.775 3.55 3.55 0 11.758-9.54 21.297-21.298 21.297-11.98 0-21.297-9.54-21.297-21.297 0-11.758 9.317-21.297 21.297-21.297 4.437 0 8.652 1.553 12.201 3.993l7.543-7.543C71.42 27.711 64.543 25.05 57 25.05c-13.31 0-24.403 7.987-29.506 19.3-.665 1.776-2.662 2.663-4.658 1.776-1.775-.666-2.44-2.884-1.775-4.66C27.05 27.712 40.805 17.95 57 17.95c9.317 0 18.191 3.55 24.847 9.096l7.543-7.543C80.736 11.96 69.422 7.301 57 7.301c-27.509 0-49.694 22.407-49.694 49.694 0 27.509 22.185 49.694 49.694 49.694Zm35.495-53.243c1.775 0 3.55 1.774 3.55 3.55 0 16.194-9.761 29.948-23.516 35.938-1.775.666-3.993 0-4.659-1.775-.887-1.996 0-3.993 1.775-4.88 11.314-4.88 19.3-16.195 19.3-29.284 0-1.775 1.554-3.55 3.55-3.55Zm-69.66 14.641c1.997-.887 3.994 0 4.66 1.775 3.327 7.321 9.317 13.31 16.638 16.417 1.775.887 2.662 2.884 1.775 4.88-.666 1.775-2.884 2.44-4.66 1.775-9.095-3.993-16.194-11.314-20.187-20.188-.666-1.775 0-3.993 1.775-4.659Zm3.994-11.092c0 3.106-2.44 5.324-5.325 5.324-3.105 0-5.324-2.218-5.324-5.324 0-2.884 2.219-5.324 5.325-5.324 2.884 0 5.324 2.44 5.324 5.324ZM51.676 92.49c0-2.883 2.218-5.324 5.324-5.324 2.884 0 5.324 2.44 5.324 5.325 0 3.105-2.44 5.324-5.324 5.324-3.106 0-5.324-2.219-5.324-5.325Z" fill="#fff"/></svg>