<svg width="86" height="114" fill="none" xmlns="http://www.w3.org/2000/svg"><path d="M64.408 79.845c2.884-1.775 3.772-6.655 6.212-9.317 2.662-2.44 7.543-3.106 9.317-6.212 1.775-3.106 0-7.765.888-11.314.887-3.328 4.659-6.434 4.659-10.205 0-3.55-3.994-6.655-4.88-9.983-.888-3.55.886-8.209-.888-11.314-1.775-3.106-6.656-3.772-9.096-6.212-2.662-2.662-3.328-7.543-6.434-9.318-3.105-1.774-7.764 0-11.314-.887-3.106-.887-6.211-4.88-9.761-4.88-3.771 0-6.877 3.993-10.205 4.88-3.55.887-8.208-.887-11.314.887-2.884 1.775-3.771 6.656-6.212 9.318-2.662 2.44-7.543 3.106-9.317 6.212-1.775 3.105 0 7.764-.888 11.314-.887 3.328-4.658 6.433-4.658 9.983 0 3.771 3.77 6.877 4.658 10.205.888 3.55-.887 8.208.888 11.314 1.774 2.884 6.655 3.771 9.317 6.212 2.44 2.662 3.106 7.542 6.212 9.317 3.106 1.775 7.765 0 11.314.888 3.328.887 6.434 4.658 10.205 4.658 3.55 0 6.655-3.771 9.983-4.658 3.55-.888 8.208.887 11.314-.888ZM42.89 78.292c-1.775-.887-4.659-3.327-8.43-4.437-3.771-.887-7.32-.222-9.318-.443-1.109-1.553-2.44-5.103-5.102-7.765-2.662-2.662-6.212-3.993-7.765-5.102 0-1.997.666-5.547-.221-9.318-1.11-3.771-3.55-6.433-4.437-8.208.887-1.997 3.327-4.659 4.437-8.43.887-3.772.221-7.321.221-9.318 1.775-1.11 5.325-2.44 7.987-5.102 2.662-2.663 3.993-6.212 5.102-7.987 1.997 0 5.547.666 9.318-.222 3.771-1.109 6.433-3.55 8.208-4.437 1.997.888 4.659 3.328 8.43 4.437 3.772.888 7.321.222 9.318.222 1.11 1.775 2.44 5.324 5.102 7.987 2.662 2.662 6.212 3.993 7.987 5.102 0 1.997-.666 5.546.222 9.318 1.109 3.771 3.55 6.433 4.437 8.43-.888 1.775-3.328 4.437-4.437 8.208-.888 3.55-.222 7.1-.222 9.318-1.775 1.109-5.325 2.44-7.987 5.102-2.662 2.662-3.993 6.212-5.102 7.986-1.997 0-5.546-.665-9.318.222-3.771 1.11-6.433 3.55-8.43 4.437Zm19.523-35.495c0-10.649-8.874-19.523-19.301-19.523-10.649 0-19.522 8.874-19.522 19.523 0 10.87 8.652 19.522 19.3 19.522 10.427 0 19.523-8.652 19.523-19.522ZM43.11 55.22a12.403 12.403 0 0 1-12.423-12.423c0-6.655 5.546-12.423 12.201-12.423 6.656 0 12.424 5.768 12.424 12.423 0 6.877-5.547 12.423-12.202 12.423Zm36.605 27.287c-.666-1.996-2.884-2.884-4.66-1.996-1.774.665-2.661 2.662-1.996 4.437l5.325 13.754-10.427-1.553-5.546 9.318-5.547-13.533c-.665-1.775-2.662-2.662-4.658-1.996-1.775.887-2.662 2.884-1.775 4.658l5.546 13.533c1.11 2.884 3.55 4.659 6.877 4.659 2.884 0 5.325-1.553 6.656-3.993l2.218-4.659 4.88 1.109c2.663.444 5.547-.444 7.322-2.662 1.775-1.997 2.218-5.103 1.109-7.543l-5.324-13.533Zm-45.922 8.43c-1.997-.665-3.994.222-4.66 1.997l-5.546 13.533-5.546-9.318-10.426 1.553 5.324-13.754c.665-1.775-.222-3.772-1.997-4.437-1.774-.888-3.993 0-4.658 1.996L.96 96.04c-1.109 2.44-.665 5.546 1.11 7.543 1.774 2.218 4.658 3.106 7.32 2.662l4.881-1.109 2.218 4.659c1.331 2.44 3.772 3.993 6.878 3.993 3.105 0 5.546-1.775 6.655-4.659l5.546-13.533c.888-1.774 0-3.771-1.774-4.658Z" fill="#fff"/></svg>