<svg width="128" height="115" fill="none" xmlns="http://www.w3.org/2000/svg"><path d="M17.854 79.025H3.655c-1.996 0-3.55 1.775-3.55 3.55v28.398c0 1.996 1.554 3.549 3.55 3.549h14.199c1.775 0 3.55-1.553 3.55-3.549V82.575c0-1.775-1.775-3.55-3.55-3.55Zm-3.55 28.398H7.205V86.125h7.1v21.298Zm110.041-63.894h-14.199c-1.997 0-3.55 1.774-3.55 3.55v63.894c0 1.996 1.553 3.549 3.55 3.549h14.199c1.774 0 3.549-1.553 3.549-3.549V47.078c0-1.775-1.775-3.55-3.549-3.55Zm-3.55 63.894h-7.099V50.628h7.099v56.795Zm-9.318-86.746c1.775 1.11 3.55 1.553 5.768 1.553 5.769 0 10.649-4.659 10.649-10.649 0-5.768-4.88-10.649-10.649-10.649-5.99 0-10.649 4.881-10.649 10.65 0 1.33.222 2.44.444 3.55L87.295 31.104c-1.775-1.11-3.55-1.775-5.547-1.775-2.218 0-3.993.665-5.768 1.775L56.235 15.13c.222-1.11.666-2.218.666-3.55C56.9 5.813 52.02.932 46.25.932c-5.99 0-10.648 4.881-10.648 10.65 0 1.774.221 3.327.887 4.658l-21.297 21.3c-1.331-.666-2.884-1.11-4.437-1.11-5.99 0-10.65 4.881-10.65 10.65 0 5.99 4.66 10.648 10.65 10.648 5.768 0 10.649-4.659 10.649-10.649 0-1.553-.444-3.106-1.11-4.437l21.299-21.298c1.33.666 2.884.887 4.658.887 1.997 0 3.772-.443 5.547-1.553l19.745 15.974c-.222 1.11-.444 2.219-.444 3.328 0 5.99 4.66 10.649 10.65 10.649 5.768 0 10.648-4.659 10.648-10.65 0-1.108-.443-2.218-.665-3.327l19.745-15.974Zm5.768-12.645c1.775 0 3.55 1.775 3.55 3.55 0 1.996-1.775 3.55-3.55 3.55-1.996 0-3.549-1.554-3.549-3.55 0-1.775 1.553-3.55 3.549-3.55ZM10.755 50.628c-1.997 0-3.55-1.553-3.55-3.55 0-1.775 1.553-3.55 3.55-3.55 1.774 0 3.55 1.776 3.55 3.55 0 1.997-1.775 3.55-3.55 3.55ZM46.25 15.131c-1.996 0-3.55-1.553-3.55-3.55 0-1.774 1.554-3.55 3.55-3.55 1.775 0 3.55 1.776 3.55 3.55 0 1.997-1.775 3.55-3.55 3.55ZM81.749 43.53c-1.996 0-3.55-1.553-3.55-3.55 0-1.775 1.554-3.55 3.55-3.55 1.775 0 3.55 1.775 3.55 3.55 0 1.997-1.775 3.55-3.55 3.55Zm-28.397 0h-14.2c-1.996 0-3.55 1.774-3.55 3.55v63.894c0 1.996 1.554 3.549 3.55 3.549h14.199c1.775 0 3.55-1.553 3.55-3.549V47.078c0-1.775-1.775-3.55-3.55-3.55Zm-3.55 63.894h-7.1V50.628h7.1v56.795Zm39.047-35.497h-14.2c-1.997 0-3.55 1.775-3.55 3.55v35.497c0 1.996 1.553 3.549 3.55 3.549h14.199c1.775 0 3.55-1.553 3.55-3.549V75.476c0-1.775-1.775-3.55-3.55-3.55Zm-3.55 35.497h-7.1V79.025h7.1v28.398Z" fill="#fff"/></svg>