<svg width="130" height="115" fill="none" xmlns="http://www.w3.org/2000/svg"><path d="M108.469 67.056c-1.523-1.523-4.315-1.523-5.838 0-1.523 1.523-1.523 4.315 0 5.838l13.453 13.2H85.37c-1.27 0-2.538-.508-3.3-1.524l-9.9-12.945c-1.268-1.777-3.807-2.285-5.584-.762-1.776 1.27-2.284 3.808-.761 5.585l9.646 12.945c2.284 3.046 5.838 4.823 9.9 4.823h30.713l-13.453 13.453c-1.523 1.523-1.523 4.315 0 5.838.761.762 1.777 1.015 3.046 1.015 1.015 0 2.03-.253 2.792-1.015L128.775 93.2c1.523-1.523 1.523-4.315 0-5.838l-20.306-20.306ZM85.37 29.235h30.714l-13.453 13.453c-1.523 1.523-1.523 4.315 0 5.838.761.761 1.777 1.015 3.046 1.015 1.015 0 2.03-.254 2.792-1.015l20.306-20.307c1.523-1.523 1.523-4.315 0-5.838L108.469 2.075c-1.523-1.523-4.315-1.523-5.838 0-1.523 1.523-1.523 4.315 0 5.838l13.453 13.199H85.37c-4.061 0-7.615 2.03-9.9 5.077L31.559 84.57c-.762 1.016-1.777 1.523-3.046 1.523H4.144c-2.285 0-4.062 2.03-4.062 4.061 0 2.285 1.777 4.062 4.062 4.062h24.368c3.807 0 7.36-1.777 9.645-4.823L82.07 31.011c.762-1.015 2.03-1.776 3.3-1.776Zm-81.226 0h24.368c1.269 0 2.284.761 3.046 1.777l9.9 12.945c.76 1.015 2.03 1.523 3.299 1.523.761 0 1.523-.254 2.284-.761 1.777-1.27 2.285-3.808.762-5.585L38.157 26.19c-2.284-3.046-5.838-5.077-9.645-5.077H4.144c-2.285 0-4.062 2.03-4.062 4.061 0 2.285 1.777 4.062 4.062 4.062Z" fill="#fff"/></svg>