<svg width="144" height="114" fill="none" xmlns="http://www.w3.org/2000/svg"><path d="M106.022 39.19H86.278c-1.997 0-3.55 1.775-3.55 3.55 0 1.996 1.553 3.55 3.55 3.55h19.744c.888 0 1.553.665 1.553 1.552v9.983c0 .887-.665 1.331-1.553 1.331h-1.996c-1.997 0-3.55 1.775-3.55 3.55v9.983c0 3.771-2.662 6.433-5.99 6.433h-1.11c-1.996 0-3.549 1.775-3.549 3.55 0 5.546-4.436 9.983-9.76 9.983l-25.735-.222c-.666 0-1.331.222-1.775.666L27.71 107.297c-1.774.887-2.44 3.106-1.33 4.659.665 1.331 1.774 1.774 3.105 1.774.444 0 1.11 0 1.553-.443L55.22 99.532h24.847c7.987 0 14.864-5.768 16.417-13.31 6.211-1.11 11.092-6.656 11.092-13.533v-6.434c3.993-.665 7.099-4.215 7.099-8.43v-9.983c0-4.659-3.993-8.652-8.652-8.652Zm-76.98 20.188c0-9.54 4.658-18.413 12.867-23.294 1.553-.887 2.218-3.106 1.109-4.659-.888-1.774-3.106-2.44-4.88-1.33-9.54 5.767-15.53 15.972-16.196 27.286L2.864 68.251c-1.775.888-2.44 3.107-1.331 4.66.665 1.33 1.774 1.774 3.105 1.774.444 0 1.11 0 1.553-.443l22.85-12.646v-2.218Zm34.164 4.659c6.655 0 12.423-5.546 12.423-12.424V34.31c0-1.774-1.775-3.55-3.55-3.55-1.996 0-3.549 1.776-3.549 3.55v17.304c0 3.106-2.44 5.325-5.324 5.325-3.106 0-5.325-2.219-5.325-5.325v-25.29c0-.887.444-1.997 1.332-2.44 6.211-3.772 13.089-5.99 20.41-5.99h13.754c.444 0 1.11 0 1.553-.444h.222L112.899 6.8c1.553-.887 2.219-3.105 1.11-4.88-.888-1.553-3.106-2.219-4.881-1.11l-16.86 9.984H79.623c-8.653 0-16.86 2.44-24.182 7.099-2.884 1.774-4.659 5.102-4.659 8.43v25.29a12.403 12.403 0 0 0 12.424 12.424Zm79.199-23.072c-1.109-1.775-3.328-2.219-4.881-1.11l-14.198 8.874c-1.553 1.11-2.218 3.328-1.109 4.881.666 1.11 1.775 1.775 3.106 1.775.665 0 1.331-.222 1.775-.666l14.198-8.874c1.775-1.109 2.218-3.327 1.109-4.88Z" fill="#fff"/></svg>