<svg width="83" height="83" fill="none" xmlns="http://www.w3.org/2000/svg"><g clip-path="url(#a)"><mask id="b" style="mask-type:luminance" maskUnits="userSpaceOnUse" x="0" y="0" width="83" height="83"><path d="M0 .198h82.98V83H0V.198Z" fill="#fff"/></mask><g mask="url(#b)"><path fill-rule="evenodd" clip-rule="evenodd" d="M41.491 4.99c-20.25 0-36.729 16.42-36.729 36.61 0 20.185 16.479 36.608 36.73 36.608 20.25 0 36.725-16.423 36.725-36.609 0-20.188-16.475-36.609-36.726-36.609Zm0 78.01C18.614 83 0 64.426 0 41.6 0 18.77 18.614.197 41.491.197c22.878 0 41.49 18.572 41.49 41.401C82.98 64.426 64.368 83 41.49 83Z" fill="#025450"/></g><path fill-rule="evenodd" clip-rule="evenodd" d="M35.65 39.154h15.104S47.619 54.74 47.614 54.8c-.182.772-.76 1.91-1.848 2.785l-.103.096c-.853.66-2.022 1.175-3.574 1.175H31.448c-.336 1.581-1.113 5.32-1.57 7.544h9.965c14.02 0 16.785-11.873 16.888-12.35 0 0 4.007-19.21 4.688-22.51-3.284 0-21.963.04-24.201.04-.32 1.581-1.097 5.341-1.569 7.574Z" fill="#025450"/><path fill-rule="evenodd" clip-rule="evenodd" d="M42.71 53.12c.327-1.576 1.065-5.33 1.525-7.581h-9.68c-.207 0-1.716-.102-2.89-1.087a3.56 3.56 0 0 1-.516-.546.1.1 0 0 1-.044-.054c-.918-1.207-.66-2.773-.601-3.11 0 0 2.167-10.825 2.17-10.87.18-.771.734-1.88 1.76-2.766l.175-.147c.834-.653 1.936-1.135 3.414-1.135H48.29c.315-1.604 1.068-5.336 1.511-7.563h-9.618c-13.53 0-16.188 11.868-16.303 12.363l-2.152 10.792c-.011.053-.9 5.025 1.825 8.385 1.785 2.206 4.768 3.32 8.897 3.32h10.262Z" fill="#025450"/></g><defs><clipPath id="a"><path fill="#fff" d="M0 0h83v83H0z"/></clipPath></defs></svg>