<svg width="228" height="180" fill="none" xmlns="http://www.w3.org/2000/svg"><rect x="1" y="1" width="226" height="178" rx="17" fill="#fff" fill-opacity=".9"/><rect x="1" y="1" width="226" height="178" rx="17" stroke="#fff" stroke-width="2"/><path d="M69.469 51.702c1.526.602.281 7.471-2.852 15.304-3.093 7.833-6.869 13.698-8.436 13.095-1.526-.602-.28-7.471 2.852-15.304 3.134-7.873 6.91-13.697 8.436-13.095Zm-19.282-1.687c1.687-.362 3.615 5.945 4.338 14.059.723 8.114-.08 15.023-1.768 15.385-1.687.361-3.615-5.946-4.338-14.06-.683-8.114.08-15.023 1.768-15.384ZM31.83 59.696c1.365-1.245 6.025 2.852 10.363 9.078 4.338 6.266 6.748 12.332 5.383 13.577-1.366 1.245-6.026-2.852-10.364-9.078-4.338-6.267-6.748-12.332-5.383-13.577ZM19.257 77.53c.683-1.767 6.789-1.044 13.617 1.688 6.83 2.691 11.77 6.306 11.047 8.074-.723 1.767-6.789 1.004-13.617-1.687-6.789-2.692-11.77-6.307-11.047-8.074Zm-3.254 21.53c-.16-1.847 5.744-4.619 13.216-6.186 7.471-1.566 13.617-1.365 13.778.482.16 1.848-5.745 4.62-13.216 6.186-7.431 1.567-13.617 1.366-13.778-.482Zm6.83 19.563c-.964-1.406 3.173-6.949 9.279-12.412 6.105-5.423 11.85-8.676 12.813-7.27.965 1.405-3.173 6.949-9.278 12.412-6.106 5.422-11.85 8.676-12.814 7.27Zm15.345 11.769c-1.527-.602-.282-7.471 2.852-15.304 3.093-7.833 6.868-13.698 8.435-13.095 1.526.602.281 7.471-2.852 15.304s-6.909 13.698-8.435 13.095Z" fill="#9CD137"/><path d="M69.748 94.763c-1.004.603-2.25 1.005-3.454 1.005-2.812 0-3.455-1.728-3.133-3.656.401-2.209 2.008-4.057 4.94-4.057.924 0 2.25.241 2.812.804l-1.165 5.904Zm9.199-16.87H72.84l-1.365 7.31c-1.125-.482-2.531-.763-4.017-.763-5.865 0-9.922 3.655-10.726 8.154-.602 3.535 1.527 7.311 7.07 7.311a11.768 11.768 0 0 0 5.383-1.567l-.16 1.045h5.984l3.937-21.49Zm10.885 17.795c-.04.32-1.446.964-2.69.964-1.005 0-2.13-.482-1.97-1.447.282-1.606 2.451-2.249 4.058-2.33.522-.04.843-.08 1.125-.12l-.523 2.933Zm-6.226-6.066c1.768-.643 3.615-1.567 5.544-1.567 1.204 0 1.928.563 1.727 1.688l-.08.562c-1.728.12-3.535.361-4.7.562-4.057.804-6.347 1.928-6.87 4.9-.441 2.612 1.688 4.178 5.022 4.178 1.928 0 4.017-.682 5.583-1.566.08 1.044 1.125 1.566 2.852 1.566 1.085 0 4.097-.361 5.021-.883l-.2-2.732c-.201.12-.523.16-.804.16-.803 0-.964-.441-.884-.963l1.206-6.99c.481-2.731-1.487-4.056-4.86-4.056-3.737 0-6.71.883-10.164 2.41l1.607 2.731Zm19.802-6.99h6.307l.723-4.137h-6.307l-.723 4.137Zm-3.053 16.75h6.307l2.691-14.46h-6.306l-2.692 14.46Zm9.803-.44c.804.361 3.776.964 6.508.964 4.418 0 8.716-1.165 9.399-4.901.562-3.214-1.888-4.137-5.342-4.7-1.928-.321-2.21-.683-2.089-1.285.161-.844 1.526-1.165 2.53-1.165 1.768 0 3.174.361 4.339.602l1.687-3.093c-.643-.361-3.214-.964-6.347-.964-3.856 0-8.234 1.326-8.837 4.78-.482 2.692 1.205 3.857 4.178 4.54 3.052.723 3.374.964 3.253 1.566-.12.723-1.406 1.165-2.289 1.165-1.567 0-3.776-.402-5.021-.803l-1.969 3.294Zm22.577 1.445c-.201.562-1.085 1.566-1.607 2.048-.763.643-1.808.764-2.772.764a8.942 8.942 0 0 1-1.486-.121l-.602 3.455c1.044.08 2.128.08 3.253.08 4.901 0 6.508-1.366 8.717-4.74l10.604-16.951h-6.507l-4.941 8.957h-.08l-1.366-8.957h-6.668l3.455 15.465Zm30.565-5.262c-1.084.402-2.37.844-3.575.844-2.691 0-4.418-1.647-4.057-3.696.402-2.37 2.772-3.856 5.945-3.856 1.005 0 1.969.241 2.892.562l2.611-3.253c-1.285-.723-3.816-1.245-5.985-1.245-6.226 0-10.926 3.213-11.809 8.073-.844 4.74 2.892 7.391 8.676 7.391 2.089 0 5.102-.642 6.99-1.486l-1.688-3.334Zm11.208-2.972c.321-1.888 1.607-3.937 4.619-3.937 3.013 0 3.575 2.049 3.214 3.937-.322 1.888-1.607 3.936-4.62 3.936-2.972.04-3.535-2.048-3.213-3.936Zm-6.307 0c-.763 4.338 2.129 7.752 8.878 7.752 6.748 0 10.845-3.374 11.608-7.752.764-4.338-2.129-7.753-8.877-7.753-6.748.04-10.845 3.415-11.609 7.753Zm22.977 7.229h6.306l1.768-9.359c.964-.642 2.53-1.325 3.535-1.325 1.887 0 2.128.924 1.928 2.088a716.084 716.084 0 0 1-1.567 8.556h6.307c.602-3.173 1.205-6.346 1.687-9.319.682-3.936-1.125-5.664-4.981-5.664-2.25 0-4.62.964-6.267 2.09l.282-1.567h-6.307l-2.691 14.5Z" fill="#000"/></svg>