<svg width="228" height="77" fill="none" xmlns="http://www.w3.org/2000/svg"><g clip-path="url(#a)"><path d="M0 4a4 4 0 0 1 4-4h219.614a4 4 0 0 1 4 4v68.302a4 4 0 0 1-4 4H4a4 4 0 0 1-4-4V4Z" fill="#fff"/><path fill="#34A853" d="M0 0h227.614v2.838H0z"/><path d="M58.716 40.033c0-1.442-.13-2.828-.37-4.158H39.204v7.872h10.94c-.481 2.531-1.922 4.675-4.084 6.116v5.119h6.596c3.844-3.548 6.061-8.76 6.061-14.95Z" fill="#4285F4"/><path d="M39.202 59.897c5.488 0 10.09-1.811 13.453-4.915l-6.597-5.119c-1.811 1.22-4.12 1.959-6.856 1.959-5.285 0-9.775-3.567-11.382-8.37h-6.763v5.247c3.344 6.634 10.2 11.198 18.145 11.198Z" fill="#34A853"/><path d="M27.82 43.433a12.18 12.18 0 0 1-.646-3.862c0-1.35.24-2.643.646-3.862V30.46h-6.763a20.075 20.075 0 0 0-2.18 9.11c0 3.289.795 6.375 2.18 9.11l5.267-4.103 1.496-1.145Z" fill="#FBBC05"/><path d="M39.202 27.338c2.994 0 5.655 1.034 7.78 3.03l5.82-5.82c-3.529-3.29-8.112-5.304-13.6-5.304-7.945 0-14.8 4.564-18.145 11.216l6.763 5.248c1.607-4.804 6.097-8.37 11.382-8.37Z" fill="#EA4335"/><path d="M74.776 24.328c-.606 0-1.166-.11-1.68-.33a4.156 4.156 0 0 1-1.352-.92 4.314 4.314 0 0 1-.908-1.384 4.636 4.636 0 0 1-.318-1.737c0-.629.103-1.207.307-1.737a4.01 4.01 0 0 1 2.237-2.293 4.239 4.239 0 0 1 1.68-.33c.605 0 1.146.102 1.623.307.485.204.893.477 1.226.817.333.333.572.7.716 1.101l-1.374.659a2.215 2.215 0 0 0-.806-1.067c-.379-.273-.84-.41-1.385-.41-.53 0-1 .126-1.408.376a2.59 2.59 0 0 0-.942 1.033c-.22.439-.33.953-.33 1.544 0 .59.114 1.108.34 1.555.236.44.557.783.966 1.033.409.25.878.375 1.408.375a2.82 2.82 0 0 0 1.192-.25c.363-.174.654-.416.874-.727.22-.317.33-.692.33-1.123v-.648l.703.613h-3.133V19.48h3.973v.851c0 .651-.11 1.227-.329 1.726-.22.5-.518.92-.897 1.26a3.9 3.9 0 0 1-1.26.76c-.47.167-.954.25-1.453.25Zm8.056 0a3.33 3.33 0 0 1-1.657-.42 3.236 3.236 0 0 1-1.181-1.147c-.288-.485-.432-1.037-.432-1.658 0-.62.144-1.173.432-1.657a3.235 3.235 0 0 1 1.18-1.147 3.29 3.29 0 0 1 1.658-.42c.606 0 1.154.14 1.646.42.492.28.882.662 1.17 1.147.295.477.442 1.03.442 1.657 0 .621-.147 1.173-.442 1.658a3.237 3.237 0 0 1-2.816 1.567Zm0-1.363c.333 0 .625-.08.874-.238a1.64 1.64 0 0 0 .602-.659 2.04 2.04 0 0 0 .227-.965c0-.363-.076-.68-.227-.953-.144-.28-.344-.5-.602-.659a1.539 1.539 0 0 0-.874-.25c-.34 0-.64.084-.897.25a1.716 1.716 0 0 0-.613.659c-.144.272-.216.59-.216.953 0 .356.072.678.216.965.151.28.356.5.613.659.257.159.556.238.897.238Zm7.406 1.363a3.33 3.33 0 0 1-1.657-.42A3.236 3.236 0 0 1 87.4 22.76c-.288-.485-.431-1.037-.431-1.658 0-.62.143-1.173.43-1.657a3.235 3.235 0 0 1 1.182-1.147 3.29 3.29 0 0 1 1.657-.42c.606 0 1.154.14 1.646.42.492.28.882.662 1.17 1.147.295.477.442 1.03.442 1.657 0 .621-.147 1.173-.442 1.658a3.237 3.237 0 0 1-2.816 1.567Zm0-1.363c.333 0 .625-.08.874-.238a1.64 1.64 0 0 0 .602-.659 2.04 2.04 0 0 0 .227-.965c0-.363-.076-.68-.227-.953-.144-.28-.344-.5-.602-.659a1.539 1.539 0 0 0-.874-.25c-.34 0-.64.084-.897.25a1.716 1.716 0 0 0-.613.659c-.144.272-.215.59-.215.953 0 .356.071.678.215.965.152.28.356.5.613.659.258.159.557.238.897.238Zm7.383 3.724c-.461 0-.889-.076-1.282-.227a3.07 3.07 0 0 1-1.022-.636 2.367 2.367 0 0 1-.613-.942l1.385-.522c.09.287.269.518.534.692.272.182.605.273.998.273.303 0 .568-.057.795-.17.235-.114.416-.28.545-.5a1.46 1.46 0 0 0 .193-.772v-1.408l.284.34a2.099 2.099 0 0 1-.852.84c-.355.19-.76.285-1.214.285-.576 0-1.09-.133-1.544-.398a2.838 2.838 0 0 1-1.067-1.09 3.14 3.14 0 0 1-.386-1.555c0-.583.128-1.101.386-1.555a2.81 2.81 0 0 1 1.055-1.068 2.925 2.925 0 0 1 1.522-.397c.461 0 .866.098 1.215.295.355.19.65.466.885.83l-.204.374v-1.363h1.407v5.87c0 .537-.132 1.018-.397 1.442a2.716 2.716 0 0 1-1.067.999c-.447.242-.965.363-1.556.363Zm-.068-4.121c.318 0 .595-.068.83-.204a1.52 1.52 0 0 0 .567-.59 1.78 1.78 0 0 0 .204-.864c0-.317-.072-.601-.215-.851a1.5 1.5 0 0 0-.568-.602 1.533 1.533 0 0 0-.818-.216c-.31 0-.59.072-.84.216-.25.144-.446.345-.59.602a1.75 1.75 0 0 0-.204.851c0 .318.068.602.204.852.144.25.337.446.579.59.25.144.534.216.851.216Zm4.477 1.623v-8.594h1.488v8.594h-1.488Zm5.79.137c-.636 0-1.192-.144-1.669-.432a3.006 3.006 0 0 1-1.113-1.17 3.403 3.403 0 0 1-.397-1.634c0-.62.133-1.17.397-1.646.273-.485.64-.867 1.102-1.147.469-.28.991-.42 1.566-.42.485 0 .909.08 1.272.238.371.16.685.379.942.659.258.28.454.602.591.965.136.356.204.742.204 1.158 0 .106-.008.216-.023.33a1.066 1.066 0 0 1-.056.294h-4.769v-1.135h3.928l-.703.534c.068-.348.049-.659-.057-.931a1.293 1.293 0 0 0-.5-.647c-.227-.16-.503-.239-.829-.239-.31 0-.586.08-.828.239a1.435 1.435 0 0 0-.557.68c-.121.296-.166.655-.136 1.08-.03.378.019.715.148 1.01.136.287.333.51.59.67.265.159.568.238.908.238.341 0 .629-.072.863-.216a1.54 1.54 0 0 0 .568-.579l1.203.59a2.1 2.1 0 0 1-.567.784 2.83 2.83 0 0 1-.92.534 3.317 3.317 0 0 1-1.158.193Zm6.165-.137v-8.458h3.145c.575 0 1.082.106 1.521.318.447.205.795.507 1.045.909.249.393.374.874.374 1.441 0 .583-.14 1.079-.42 1.488a2.433 2.433 0 0 1-1.112.908l1.941 3.394h-1.748l-2.078-3.712.999.59h-2.123v3.122h-1.544Zm1.544-4.484h1.624c.28 0 .522-.053.726-.159a1.22 1.22 0 0 0 .477-.465c.114-.197.17-.424.17-.682 0-.265-.056-.492-.17-.68a1.143 1.143 0 0 0-.477-.455 1.47 1.47 0 0 0-.726-.17h-1.624v2.61Zm7.71 4.62c-.431 0-.806-.071-1.124-.215a1.702 1.702 0 0 1-.738-.613 1.713 1.713 0 0 1-.261-.942c0-.341.076-.644.227-.909.152-.272.386-.5.704-.68.318-.183.719-.311 1.204-.387l2.021-.33v1.136l-1.737.295c-.296.053-.515.148-.659.284a.7.7 0 0 0-.216.534c0 .212.08.382.239.51.166.122.371.182.613.182.31 0 .583-.064.817-.193a1.41 1.41 0 0 0 .557-.556c.136-.235.204-.492.204-.772v-1.59a.817.817 0 0 0-.318-.658c-.204-.181-.477-.272-.817-.272-.318 0-.602.087-.852.26-.242.167-.42.39-.533.67l-1.215-.59a2.13 2.13 0 0 1 .567-.84 2.91 2.91 0 0 1 .931-.567 3.212 3.212 0 0 1 1.158-.205c.507 0 .954.095 1.34.284.386.182.685.439.897.772.219.325.329.708.329 1.147v4.11h-1.408v-1.056l.318-.023a2.596 2.596 0 0 1-.567.67c-.22.174-.47.31-.75.408-.28.091-.59.137-.931.137Zm7.417-.068c-.696 0-1.237-.189-1.623-.567-.378-.386-.568-.927-.568-1.624v-2.724h-1.067v-1.329h.114c.302 0 .537-.08.704-.238.166-.159.249-.39.249-.693v-.476h1.488v1.407h1.419v1.329h-1.419v2.645c0 .204.034.378.102.522a.752.752 0 0 0 .34.33c.159.075.36.113.602.113.053 0 .114-.004.182-.011a24.5 24.5 0 0 0 .215-.023v1.271c-.106.015-.227.03-.363.046a3.394 3.394 0 0 1-.375.023Zm1.875-.068v-6.176h1.487v6.176h-1.487Zm0-6.868v-1.59h1.487v1.59h-1.487Zm2.86 6.868v-6.176h1.397v1.215l-.114-.216c.144-.37.378-.65.704-.84a2.233 2.233 0 0 1 1.158-.295 2.4 2.4 0 0 1 1.203.295c.356.197.632.473.829.83.197.347.295.752.295 1.214v3.973h-1.487V20.57c0-.273-.053-.507-.159-.704a1.108 1.108 0 0 0-.443-.454 1.193 1.193 0 0 0-.647-.17c-.242 0-.458.056-.647.17a1.115 1.115 0 0 0-.443.454 1.464 1.464 0 0 0-.159.704v3.621h-1.487Zm9.727 2.498c-.462 0-.889-.076-1.283-.227a3.08 3.08 0 0 1-1.022-.636 2.371 2.371 0 0 1-.613-.942l1.385-.522c.091.287.269.518.534.692.273.182.606.273.999.273.303 0 .568-.057.795-.17a1.25 1.25 0 0 0 .545-.5 1.47 1.47 0 0 0 .193-.772v-1.408l.284.34a2.099 2.099 0 0 1-.852.84 2.54 2.54 0 0 1-1.215.285c-.575 0-1.09-.133-1.544-.398a2.844 2.844 0 0 1-1.067-1.09 3.143 3.143 0 0 1-.386-1.555c0-.583.129-1.101.386-1.555.258-.454.609-.81 1.056-1.068a2.926 2.926 0 0 1 1.521-.397c.462 0 .867.098 1.215.295.356.19.651.466.886.83l-.205.374v-1.363h1.408v5.87c0 .537-.132 1.018-.397 1.442a2.721 2.721 0 0 1-1.067.999c-.447.242-.965.363-1.556.363Zm-.068-4.121c.318 0 .594-.068.829-.204.242-.144.431-.341.567-.59.137-.25.205-.538.205-.864 0-.317-.072-.601-.216-.851a1.53 1.53 0 0 0-1.385-.817c-.31 0-.59.071-.84.215-.25.144-.447.345-.59.602-.137.25-.205.534-.205.851 0 .318.068.602.205.852.143.25.336.446.579.59.249.144.533.216.851.216Z" fill="#6A6A6A"/><path d="M76.306 46.07v-2.724h-5.62v-2.214l5.45-7.749h2.81v7.749h1.958v2.214h-1.958v2.724h-2.64Zm-3.695-3.985-.494-.953h4.19v-5.705l.663.204-4.36 6.454Zm11.003 3.985v-2.554h2.554v2.554h-2.554Zm10.92 0v-2.724h-5.62v-2.214l5.449-7.749h2.81v7.749h1.958v2.214h-1.958v2.724h-2.64Zm-3.696-3.985-.494-.953h4.19v-5.705l.663.204-4.36 6.454Zm29.707-10.669a.709.709 0 0 1 1.27 0l2.131 4.288a.711.711 0 0 0 .532.386l4.737.702a.71.71 0 0 1 .393 1.209l-3.421 3.351a.714.714 0 0 0-.203.625l.797 4.722a.71.71 0 0 1-1.028.747l-4.244-2.217a.71.71 0 0 0-.657 0l-4.245 2.217a.71.71 0 0 1-1.028-.747l.797-4.722a.714.714 0 0 0-.203-.625l-3.421-3.351a.71.71 0 0 1 .393-1.21l4.737-.7a.711.711 0 0 0 .532-.387l2.131-4.288Zm19.868 0a.71.71 0 0 1 1.271 0l2.13 4.288a.711.711 0 0 0 .532.386l4.737.702a.71.71 0 0 1 .393 1.209l-3.42 3.351a.708.708 0 0 0-.203.625l.797 4.722a.71.71 0 0 1-1.029.747l-4.244-2.217a.71.71 0 0 0-.657 0l-4.245 2.217a.71.71 0 0 1-1.028-.747l.797-4.722a.71.71 0 0 0-.203-.625l-3.421-3.351a.71.71 0 0 1 .393-1.21l4.737-.7a.71.71 0 0 0 .532-.387l2.131-4.288Zm19.867 0a.71.71 0 0 1 1.271 0l2.131 4.288a.708.708 0 0 0 .531.386l4.737.702a.71.71 0 0 1 .393 1.209l-3.42 3.351a.708.708 0 0 0-.203.625l.797 4.722a.71.71 0 0 1-1.028.747l-4.245-2.217a.71.71 0 0 0-.657 0l-4.245 2.217a.71.71 0 0 1-1.028-.747l.797-4.722a.708.708 0 0 0-.203-.625l-3.42-3.351a.71.71 0 0 1 .392-1.21l4.738-.7a.71.71 0 0 0 .531-.387l2.131-4.288Zm19.868 0a.71.71 0 0 1 1.271 0l2.131 4.288a.71.71 0 0 0 .531.386l4.738.702a.71.71 0 0 1 .392 1.209l-3.42 3.351a.708.708 0 0 0-.203.625l.797 4.722a.71.71 0 0 1-1.028.747l-4.245-2.217a.71.71 0 0 0-.657 0l-4.245 2.217a.71.71 0 0 1-1.028-.747l.797-4.722a.708.708 0 0 0-.203-.625l-3.42-3.351a.71.71 0 0 1 .393-1.21l4.737-.7a.71.71 0 0 0 .531-.387l2.131-4.288Zm19.868 0a.71.71 0 0 1 1.271 0l2.131 4.288a.71.71 0 0 0 .532.386l4.737.702a.71.71 0 0 1 .392 1.209l-3.42 3.351a.708.708 0 0 0-.203.625l.797 4.722a.71.71 0 0 1-1.028.747l-4.245-2.217a.71.71 0 0 0-.657 0l-4.244 2.217a.71.71 0 0 1-1.029-.747l.797-4.722a.708.708 0 0 0-.203-.625l-3.42-3.351a.71.71 0 0 1 .393-1.21l4.737-.7a.708.708 0 0 0 .531-.387l2.131-4.288Z" fill="#FEA500"/><path d="M73.2 63.051a2.57 2.57 0 0 1-1.098-.23 2.528 2.528 0 0 1-.835-.613 2.368 2.368 0 0 1-.485-.86l.613-.23c.148.432.378.761.69.988.312.222.684.332 1.115.332.273 0 .511-.042.716-.127.21-.091.371-.216.485-.375a.928.928 0 0 0 .17-.553c0-.313-.085-.554-.255-.724-.17-.17-.415-.301-.732-.392l-1.141-.34c-.449-.131-.795-.35-1.04-.656a1.66 1.66 0 0 1-.357-1.047c0-.335.082-.63.247-.886.165-.261.389-.465.673-.613.29-.148.616-.221.979-.221.38 0 .72.07 1.022.212.306.137.564.318.775.545.21.227.36.48.45.758l-.595.239c-.136-.375-.35-.659-.639-.852a1.743 1.743 0 0 0-1.004-.29c-.245 0-.46.043-.648.128a.996.996 0 0 0-.425.366 1.017 1.017 0 0 0-.154.562c0 .262.083.497.247.707.165.205.417.358.758.46l1.005.298c.5.148.877.36 1.132.639.256.278.383.627.383 1.047 0 .34-.087.641-.263.902-.17.256-.412.457-.724.605a2.426 2.426 0 0 1-1.065.221Zm5.352 0c-.426 0-.812-.102-1.158-.306a2.27 2.27 0 0 1-.81-.86 2.53 2.53 0 0 1-.297-1.235c0-.46.096-.865.29-1.217.192-.358.454-.639.783-.843.335-.205.71-.307 1.124-.307.329 0 .621.063.877.187.26.12.482.284.664.494.181.205.32.437.417.699a2.223 2.223 0 0 1 .136.987c-.005.068-.014.14-.025.213h-3.857v-.596h3.49l-.306.255a1.32 1.32 0 0 0-.11-.834 1.375 1.375 0 0 0-.52-.588 1.375 1.375 0 0 0-.766-.22c-.284 0-.548.073-.792.22a1.532 1.532 0 0 0-.562.622c-.136.261-.19.573-.162.937-.028.363.028.68.17.953.148.267.347.474.596.622.256.148.528.221.818.221.335 0 .616-.08.843-.238a1.92 1.92 0 0 0 .553-.596l.545.29c-.09.204-.23.394-.417.57-.187.17-.412.31-.673.417a2.274 2.274 0 0 1-.851.153Zm5.238 0c-.425 0-.811-.102-1.158-.306a2.27 2.27 0 0 1-.809-.86 2.53 2.53 0 0 1-.297-1.235c0-.46.096-.865.289-1.217.193-.358.454-.639.783-.843.335-.205.71-.307 1.124-.307.33 0 .622.063.877.187.261.12.483.284.664.494.182.205.321.437.418.699a2.223 2.223 0 0 1 .136.987c-.006.068-.014.14-.026.213h-3.857v-.596h3.491l-.306.255a1.32 1.32 0 0 0-.111-.834 1.375 1.375 0 0 0-.52-.588 1.375 1.375 0 0 0-.766-.22c-.283 0-.547.073-.792.22a1.532 1.532 0 0 0-.562.622c-.136.261-.19.573-.161.937-.029.363.028.68.17.953.148.267.346.474.596.622.255.148.528.221.817.221.335 0 .616-.08.843-.238.227-.159.412-.358.554-.596l.545.29c-.091.204-.23.394-.418.57-.187.17-.411.31-.672.417-.256.102-.54.153-.852.153Zm5.928 0c-.29 0-.548-.053-.775-.161a1.373 1.373 0 0 1-.536-.46 1.157 1.157 0 0 1-.196-.664 1.298 1.298 0 0 1 .63-1.15c.216-.136.491-.233.826-.29l1.788-.297v.579l-1.635.272c-.329.057-.567.162-.715.315a.775.775 0 0 0-.213.545c0 .204.08.378.239.52a.93.93 0 0 0 .63.212c.312 0 .584-.065.817-.196a1.475 1.475 0 0 0 .74-1.302v-1.158a.833.833 0 0 0-.297-.664c-.199-.17-.457-.256-.775-.256-.278 0-.522.071-.732.213-.21.136-.367.315-.469.536l-.579-.315c.086-.193.219-.368.4-.527.188-.16.4-.284.64-.375a1.94 1.94 0 0 1 .74-.145c.335 0 .63.065.886.196.26.13.462.312.604.545.148.227.221.49.221.792v3.133h-.638v-.91l.093.093c-.079.17-.204.326-.374.468a2.028 2.028 0 0 1-1.32.452Zm3.553-.102v-6.445h.639v6.445h-.639Zm1.946 0v-6.445h.638v6.445h-.638Zm5.53.102c-.432 0-.823-.102-1.175-.306a2.378 2.378 0 0 1-.844-.852 2.475 2.475 0 0 1-.306-1.234c0-.454.102-.86.306-1.218a2.281 2.281 0 0 1 2.019-1.158c.442 0 .837.102 1.183.307.352.204.627.485.826.843.204.357.307.766.307 1.226 0 .465-.105.88-.315 1.243-.21.358-.491.639-.843.843a2.24 2.24 0 0 1-1.158.306Zm0-.638c.306 0 .581-.077.825-.23.25-.153.446-.363.588-.63.148-.267.221-.565.221-.894 0-.33-.073-.625-.221-.886a1.628 1.628 0 0 0-.588-.621 1.52 1.52 0 0 0-.825-.23c-.307 0-.585.076-.835.23a1.71 1.71 0 0 0-.587.621 1.768 1.768 0 0 0-.222.886c0 .329.074.627.222.894a1.7 1.7 0 0 0 .587.63c.25.153.528.23.835.23Zm5.06.638a1.73 1.73 0 0 1-.869-.221 1.695 1.695 0 0 1-.621-.63 1.931 1.931 0 0 1-.222-.937v-2.878h.639v2.802c0 .244.048.46.145.647.102.181.241.323.417.425.181.103.389.154.621.154.233 0 .44-.051.622-.153.182-.108.324-.259.426-.452.102-.198.153-.434.153-.706v-2.717h.639v4.564h-.639v-.885l.145.034a1.378 1.378 0 0 1-.554.698c-.261.17-.562.255-.902.255Zm3.263-.102v-4.564h.639v.75l-.086-.111c.108-.216.27-.386.486-.511.221-.125.488-.187.8-.187h.29v.638h-.401c-.329 0-.593.102-.791.307-.199.204-.298.494-.298.868v2.81h-.639Zm4.324 0v-4.564h.638v.75l-.085-.111c.108-.216.27-.386.486-.511.221-.125.488-.187.8-.187h.29v.638h-.401c-.329 0-.593.102-.792.307-.198.204-.298.494-.298.868v2.81h-.638Zm4.955.102a2.24 2.24 0 0 1-1.159-.306c-.34-.21-.61-.497-.808-.86a2.527 2.527 0 0 1-.298-1.235c0-.46.096-.865.289-1.217.193-.358.454-.639.783-.843.335-.205.71-.307 1.124-.307.33 0 .622.063.877.187.262.12.483.284.665.494.181.205.32.437.417.699a2.234 2.234 0 0 1 .136.987c-.006.068-.014.14-.026.213h-3.857v-.596h3.491l-.306.255a1.32 1.32 0 0 0-.111-.834 1.373 1.373 0 0 0-.519-.588 1.377 1.377 0 0 0-.767-.22c-.283 0-.547.073-.791.22a1.526 1.526 0 0 0-.562.622c-.137.261-.191.573-.162.937-.029.363.028.68.17.953.148.267.346.474.596.622.256.148.528.221.818.221.334 0 .615-.08.842-.238.228-.159.412-.358.554-.596l.545.29c-.091.204-.23.394-.417.57-.188.17-.412.31-.673.417a2.27 2.27 0 0 1-.851.153Zm4.295-.102-1.78-4.564h.716l1.498 4.002h-.23l1.507-4.002h.724l-1.796 4.564h-.639Zm3.181 0v-4.564h.639v4.564h-.639Zm0-5.407v-.936h.639v.936h-.639Zm4.023 5.51a2.24 2.24 0 0 1-1.158-.307c-.34-.21-.61-.497-.808-.86a2.527 2.527 0 0 1-.298-1.235c0-.46.096-.865.289-1.217.193-.358.454-.639.783-.843.335-.205.71-.307 1.124-.307.33 0 .622.063.877.187.261.12.483.284.665.494.181.205.32.437.417.699a2.234 2.234 0 0 1 .136.987c-.006.068-.014.14-.026.213h-3.857v-.596h3.491l-.306.255a1.32 1.32 0 0 0-.111-.834 1.373 1.373 0 0 0-.519-.588 1.377 1.377 0 0 0-.767-.22c-.283 0-.547.073-.792.22a1.53 1.53 0 0 0-.561.622c-.137.261-.191.573-.162.937-.029.363.028.68.17.953.148.267.346.474.596.622.255.148.528.221.817.221.335 0 .616-.08.843-.238.227-.159.412-.358.554-.596l.545.29c-.091.204-.23.394-.417.57-.188.17-.412.31-.673.417a2.272 2.272 0 0 1-.852.153Zm4.166-.103-1.567-4.564h.724l1.294 3.994h-.255l1.218-3.994h.638l1.218 3.994h-.256l1.303-3.994h.715l-1.566 4.564h-.639l-1.183-3.908h.178l-1.183 3.908h-.639Zm7.364.102c-.437 0-.82-.11-1.149-.332a1.876 1.876 0 0 1-.715-.902l.536-.256c.131.279.312.5.545.664.238.165.5.247.783.247.273 0 .503-.065.69-.196a.627.627 0 0 0 .281-.527.505.505 0 0 0-.136-.375.938.938 0 0 0-.315-.221 2.112 2.112 0 0 0-.315-.111l-.656-.187c-.42-.12-.724-.287-.911-.503a1.11 1.11 0 0 1-.281-.75c0-.266.068-.499.204-.697a1.34 1.34 0 0 1 .554-.46 1.82 1.82 0 0 1 .775-.162c.386 0 .735.102 1.047.307.318.198.542.476.673.834l-.545.255a1.35 1.35 0 0 0-.494-.596 1.201 1.201 0 0 0-.707-.22c-.255 0-.46.064-.613.195a.622.622 0 0 0-.23.494c0 .153.04.275.119.366.08.09.171.159.273.204.108.046.201.08.281.102l.758.222c.369.108.655.275.86.502.21.227.315.494.315.8 0 .25-.071.475-.213.673a1.37 1.37 0 0 1-.571.469 2.067 2.067 0 0 1-.843.161Z" fill="#868686"/></g><defs><clipPath id="a"><path d="M0 4a4 4 0 0 1 4-4h219.614a4 4 0 0 1 4 4v68.302a4 4 0 0 1-4 4H4a4 4 0 0 1-4-4V4Z" fill="#fff"/></clipPath></defs></svg>