<svg width="48" height="48" fill="none" xmlns="http://www.w3.org/2000/svg"><path d="M44.168.728H3.543C1.75.728.273 2.31.273 4.21v40.413c0 1.9 1.476 3.377 3.27 3.377h40.625c1.794 0 3.376-1.478 3.376-3.377V4.21c0-1.9-1.582-3.482-3.376-3.482Zm-29.65 40.518H7.552V18.771h6.964v22.475Zm-3.483-25.64c-2.321 0-4.115-1.794-4.115-4.01 0-2.216 1.794-4.115 4.115-4.115 2.216 0 4.01 1.899 4.01 4.115a4.008 4.008 0 0 1-4.01 4.01Zm29.756 25.64h-7.07V30.273c0-2.533 0-5.91-3.587-5.91-3.693 0-4.22 2.85-4.22 5.804v11.08h-6.965V18.77h6.647v3.06h.106c.95-1.794 3.271-3.693 6.648-3.693 7.07 0 8.441 4.748 8.441 10.763v12.345Z" fill="#577590"/></svg>