<svg width="130" height="26" fill="none" xmlns="http://www.w3.org/2000/svg"><g clip-path="url(#a)"><path d="M26.552 25.059V6.69h-7.044v18.368h7.044Z" fill="#00B5AC"/><path d="M19.507 18.426H0v6.633h19.507v-6.633Z" fill="#F7981D"/><path d="M0 18.426V5.9L7.044.06v18.367H0Z" fill="#E51F37"/><path d="M7.044.059h13.305L26.55 6.69H7.044V.059Z" fill="#007DC2"/><path d="M39.886 20.696c-2.824 0-4.44-1.575-4.456-1.592l-.03-.03 1.355-1.957.048.046c.012.011 1.255 1.161 3.061 1.161.717 0 1.44-.283 1.44-.915 0-.631-.906-.96-1.954-1.365-1.594-.615-3.578-1.381-3.578-3.465 0-1.914 1.77-3.201 4.405-3.201 2.634 0 3.84 1.22 3.852 1.233l.028.026-1.098 2.068-.054-.047c-.01-.01-1.055-.91-2.75-.91-.644 0-1.396.239-1.396.914 0 .567.882.9 1.901 1.287 1.617.612 3.63 1.374 3.63 3.48 0 1.922-1.81 3.265-4.404 3.265v.002Zm16.324-.252h-2.92V14.05c0-1.514-.508-2.132-1.752-2.132-1.405 0-2.592.86-3.025 2.189-.12.377-.177.812-.177 1.37v4.966h-2.942V5.431h2.942v5.217a9 9 0 0 1-.03.752c.583-.96 1.917-2.021 3.9-2.021 2.657 0 4.003 1.388 4.003 4.125v6.94Zm7.18.252c-3.605 0-6.322-2.433-6.322-5.66 0-3.226 2.709-5.658 6.3-5.658 3.59 0 6.32 2.432 6.32 5.659 0 3.226-2.708 5.659-6.299 5.659Zm0-8.947c-1.902 0-3.336 1.413-3.336 3.288 0 1.874 1.434 3.287 3.335 3.287 1.902 0 3.313-1.413 3.313-3.287 0-1.875-1.424-3.288-3.313-3.288Zm10.255 12.895h-2.942V9.63h2.696v.828c0 .24-.016.46-.03.598.277-.394 1.354-1.678 3.633-1.678 3.047 0 5.095 2.273 5.095 5.659 0 3.385-2.16 5.659-5.251 5.659-1.179 0-2.013-.406-2.506-.745a3.492 3.492 0 0 1-.73-.66c.014.155.034.446.034.807v4.546-.001Zm2.71-12.874c-1.353 0-2.799.874-2.799 3.33 0 2.23 1.44 3.245 2.778 3.245 1.337 0 2.8-1.01 2.8-3.267 0-1.978-1.117-3.308-2.778-3.308Zm10.362 8.926c-1.048 0-2.016-.312-2.726-.879-.777-.619-1.187-1.488-1.187-2.512 0-3.205 4.254-3.684 6.79-3.684h.325v-.095c0-1.22-.717-1.838-2.13-1.838-1.591 0-3.076 1.008-3.09 1.018l-.052.035-1.122-2.001.035-.027c.018-.013 1.808-1.334 4.495-1.334 3.04 0 4.782 1.573 4.782 4.314v6.751h-2.72v-.933c0-.23.014-.438.027-.577a3.342 3.342 0 0 1-.704.822c-.5.429-1.381.94-2.724.94h.001Zm2.788-5.145c-1.705 0-3.737.283-3.737 1.628 0 .665.514 1.335 1.663 1.335 1.437 0 2.51-1.458 2.51-2.762v-.2h-.436v-.001Zm8.351 4.893h-2.942V9.63h2.83v1.9c0 .188-.01.367-.02.504.612-1.536 2.022-2.55 3.578-2.55.27 0 .513.041.523.042l.045.008v2.728l-.063-.009s-.291-.041-.661-.041c-1.115 0-2.502.58-3.049 2.21-.163.481-.242 1.046-.242 1.728v4.294h.001Zm8.508 0h-2.942V9.63h2.942v10.814Zm-.022-12.537h-2.92V5.43h2.92v2.476Zm11.764 12.537h-10.168v-1.498l.013-.014 5.106-6.028c.396-.47.756-.806.899-.935-.151.013-.46.032-.946.032h-4.849v-2.37h9.788v1.518l-.012.014-5.106 6.028a8.74 8.74 0 0 1-.911.929 8.12 8.12 0 0 1 .957-.047h5.228v2.371h.001Zm6.502.252c-3.572 0-6.165-2.38-6.165-5.66 0-3.278 2.398-5.658 5.831-5.658 3.096 0 5.095 2.014 5.095 5.133 0 .314-.065 1.005-.067 1.034l-.004.047h-7.841c.21 1.887 1.828 2.732 3.352 2.732 1.788 0 3.228-1.152 3.242-1.163l.052-.043 1.145 2.003-.03.027c-.018.015-1.788 1.547-4.61 1.547Zm-3.056-7.033h4.851c-.062-1.31-.899-2.123-2.196-2.123-1.384 0-2.373.792-2.655 2.123Z" fill="#fff"/></g><defs><clipPath id="a"><path fill="#fff" transform="translate(0 .059)" d="M0 0h130v25H0z"/></clipPath></defs></svg>