<svg width="70" height="70" fill="none" xmlns="http://www.w3.org/2000/svg"><rect width="70" height="70" rx="5.957" fill="#DAE8FF"/><path d="M10.39 21.328h4.522c.268 0 .497.195.54.46l4.782 29.618" stroke="#5292FB" stroke-width="3.281" stroke-linecap="round"/><path d="M41.927 4.375c-6.684 3.372-10.026 10.117-10.024 20.148 0 0-5.015-1.6-5.015-6.658-3.342 3.372-5.013 5.901-5.013 11.803a15.24 15.24 0 0 0 4.405 10.73 14.971 14.971 0 0 0 10.634 4.446 14.97 14.97 0 0 0 10.634-4.445 15.246 15.246 0 0 0 4.405-10.731c0-11.803-9.19-15.176-10.026-25.293Z" fill="#FB9A08"/><path opacity=".4" d="M44.844 34.28a7.921 7.921 0 0 1-2.243 5.536 7.57 7.57 0 0 1-5.413 2.293 7.57 7.57 0 0 1-5.414-2.293 7.921 7.921 0 0 1-2.243-5.537c0-2.918.85-4.423 2.552-6.09 0 3.48 2.552 4.35 2.552 4.35 0-4.96 1.702-7.903 5.105-9.57.425 5.002 5.104 6.635 5.104 11.31Z" fill="#fff"/><path d="M51.953 51.406h-32.74a3.876 3.876 0 0 0-2.838 1.236v0a3.404 3.404 0 0 0 0 4.637v0a3.876 3.876 0 0 0 2.839 1.237h32.74" stroke="#5292FB" stroke-width="3.281" stroke-linecap="round"/><g filter="url(#a)" fill="#fff"><mask id="b"><path fill-rule="evenodd" clip-rule="evenodd" d="M14.613 26.709h45.543l-5.913 26.338H18.76l-4.147-26.338Zm21.122 7.377c0-.786.712-1.424 1.59-1.424.879 0 1.591.638 1.591 1.424v11.867c0 .786-.712 1.424-1.59 1.424-.88 0-1.591-.638-1.591-1.424V34.086Zm-6.363 2.373c0-.786.712-1.423 1.59-1.423.879 0 1.591.637 1.591 1.423v7.12c0 .787-.712 1.424-1.59 1.424-.88 0-1.591-.637-1.591-1.424v-7.12Zm14.316-1.423c-.878 0-1.59.637-1.59 1.423v7.12c0 .787.712 1.424 1.59 1.424.879 0 1.591-.637 1.591-1.424v-7.12c0-.786-.712-1.423-1.59-1.423Z"/></mask><path fill-rule="evenodd" clip-rule="evenodd" d="M14.613 26.709h45.543l-5.913 26.338H18.76l-4.147-26.338Zm21.122 7.377c0-.786.712-1.424 1.59-1.424.879 0 1.591.638 1.591 1.424v11.867c0 .786-.712 1.424-1.59 1.424-.88 0-1.591-.638-1.591-1.424V34.086Zm-6.363 2.373c0-.786.712-1.423 1.59-1.423.879 0 1.591.637 1.591 1.423v7.12c0 .787-.712 1.424-1.59 1.424-.88 0-1.591-.637-1.591-1.424v-7.12Zm14.316-1.423c-.878 0-1.59.637-1.59 1.423v7.12c0 .787.712 1.424 1.59 1.424.879 0 1.591-.637 1.591-1.424v-7.12c0-.786-.712-1.423-1.59-1.423Z" fill-opacity=".8"/><path d="m60.156 26.709 1.464.329.41-1.829h-1.874v1.5Zm-45.543 0v-1.5h-1.755l.273 1.733 1.482-.233Zm39.63 26.338v1.5h1.2l.263-1.172-1.464-.328Zm-35.483 0-1.482.233.2 1.267h1.282v-1.5Zm41.396-27.838H14.613v3h45.543v-3Zm-4.45 28.166 5.914-26.337-2.927-.658-5.914 26.338 2.927.657ZM18.76 54.547h35.483v-3H18.76v3Zm-5.63-27.605 4.148 26.338 2.964-.467-4.148-26.337-2.963.466Zm24.195 4.22c-1.546 0-3.09 1.157-3.09 2.924h3a.209.209 0 0 1-.02.087c-.009.02-.017.027-.014.024.008-.007.048-.035.124-.035v-3Zm3.091 2.924c0-1.767-1.544-2.924-3.09-2.924v3c.076 0 .116.028.124.035.003.003-.005-.004-.015-.024a.209.209 0 0 1-.019-.087h3Zm0 11.867V34.086h-3v11.867h3Zm-3.09 2.924c1.546 0 3.09-1.158 3.09-2.924h-3c0-.034.008-.064.019-.087.01-.02.018-.027.015-.024-.008.007-.048.035-.125.035v3Zm-3.091-2.924c0 1.766 1.544 2.924 3.09 2.924v-3c-.076 0-.116-.028-.124-.035-.003-.003.005.004.015.024a.22.22 0 0 1 .019.087h-3Zm0-11.867v11.867h3V34.086h-3Zm-3.273-.55c-1.546 0-3.09 1.157-3.09 2.923h3a.209.209 0 0 1-.02.087c-.009.02-.017.027-.014.024.008-.007.048-.034.124-.034v-3Zm3.091 2.923c0-1.766-1.544-2.923-3.09-2.923v3c.076 0 .116.027.124.034.003.003-.005-.003-.015-.024a.209.209 0 0 1-.019-.087h3Zm0 7.12v-7.12h-3v7.12h3Zm-3.09 2.924c1.546 0 3.09-1.157 3.09-2.924h-3c0-.033.008-.064.019-.086.01-.02.018-.027.015-.024-.008.007-.048.034-.125.034v3Zm-3.091-2.924c0 1.767 1.544 2.924 3.09 2.924v-3c-.076 0-.116-.027-.124-.034-.003-.003.005.003.015.024.01.022.019.053.019.086h-3Zm0-7.12v7.12h3v-7.12h-3Zm15.726 0a.209.209 0 0 1-.02.087c-.009.02-.017.027-.014.024.008-.007.048-.034.124-.034v-3c-1.546 0-3.09 1.157-3.09 2.923h3Zm0 7.12v-7.12h-3v7.12h3Zm.09-.076c-.076 0-.116-.027-.124-.034-.003-.003.005.003.015.024.01.022.019.053.019.086h-3c0 1.767 1.544 2.924 3.09 2.924v-3Zm.091.076c0-.033.008-.064.019-.086.01-.02.018-.027.015-.024-.008.007-.048.034-.125.034v3c1.547 0 3.091-1.157 3.091-2.924h-3Zm0-7.12v7.12h3v-7.12h-3Zm-.09.077c.076 0 .116.027.124.034.003.003-.005-.003-.015-.024a.209.209 0 0 1-.019-.087h3c0-1.766-1.544-2.923-3.09-2.923v3Z" fill-opacity=".86" mask="url(#b)"/></g><g filter="url(#c)"><circle cx="23.789" cy="60.43" r="4.648" fill="#fff" fill-opacity=".8"/><circle cx="23.789" cy="60.43" r="3.898" stroke="#5292FB" stroke-width="1.5"/></g><g filter="url(#d)"><circle cx="49.853" cy="60.43" r="4.648" fill="#fff" fill-opacity=".8"/><circle cx="49.853" cy="60.43" r="3.898" stroke="#5292FB" stroke-width="1.5"/></g><defs><filter id="a" x="9.253" y="21.35" width="56.262" height="37.056" filterUnits="userSpaceOnUse" color-interpolation-filters="sRGB"><feFlood flood-opacity="0" result="BackgroundImageFix"/><feGaussianBlur in="BackgroundImageFix" stdDeviation="2.68"/><feComposite in2="SourceAlpha" operator="in" result="effect1_backgroundBlur_2093_100"/><feBlend in="SourceGraphic" in2="effect1_backgroundBlur_2093_100" result="shape"/></filter><filter id="c" x="13.781" y="50.422" width="20.016" height="20.016" filterUnits="userSpaceOnUse" color-interpolation-filters="sRGB"><feFlood flood-opacity="0" result="BackgroundImageFix"/><feGaussianBlur in="BackgroundImageFix" stdDeviation="2.68"/><feComposite in2="SourceAlpha" operator="in" result="effect1_backgroundBlur_2093_100"/><feBlend in="SourceGraphic" in2="effect1_backgroundBlur_2093_100" result="shape"/></filter><filter id="d" x="39.845" y="50.422" width="20.016" height="20.016" filterUnits="userSpaceOnUse" color-interpolation-filters="sRGB"><feFlood flood-opacity="0" result="BackgroundImageFix"/><feGaussianBlur in="BackgroundImageFix" stdDeviation="2.68"/><feComposite in2="SourceAlpha" operator="in" result="effect1_backgroundBlur_2093_100"/><feBlend in="SourceGraphic" in2="effect1_backgroundBlur_2093_100" result="shape"/></filter></defs></svg>