<svg width="120" height="97" fill="none" xmlns="http://www.w3.org/2000/svg"><path d="M117 39.995h-12v-12c0-1.5-1.5-3-3-3h-6c-1.688 0-3 1.5-3 3v12H81c-1.688 0-3 1.5-3 3v6c0 1.688 1.313 3 3 3h12v12c0 1.688 1.313 3 3 3h6c1.5 0 3-1.312 3-3v-12h12c1.5 0 3-1.312 3-3v-6c0-1.5-1.5-3-3-3Zm-75 9c13.125 0 24-10.687 24-24 0-13.125-10.875-24-24-24-13.313 0-24 10.875-24 24 0 13.313 10.688 24 24 24Zm16.688 6H55.5c-4.125 2.063-8.625 3-13.5 3s-9.563-.937-13.688-3h-3.187C11.25 54.995 0 66.433 0 80.308v7.687c0 5.063 3.938 9 9 9h66c4.875 0 9-3.937 9-9v-7.687c0-13.875-11.438-25.313-25.313-25.313Z" fill="#DFDDE3"/></svg>