<svg width="120" height="96" fill="none" xmlns="http://www.w3.org/2000/svg"><path d="M91.59 35.905h-28.5v10.5c0 7.5-6.187 13.5-13.5 13.5-7.5 0-13.5-6-13.5-13.5V23.717L23.903 31.03c-3.75 2.062-5.813 6-5.813 10.312v8.813l-15 8.625c-3 1.687-3.937 5.437-2.25 8.25l15 25.875c1.688 3 5.25 3.937 8.25 2.25l19.313-11.25H69.09c6.563 0 12-5.25 12-12h3c3.188 0 6-2.625 6-6v-12h1.5c2.438 0 4.5-1.875 4.5-4.5v-9c0-2.438-2.062-4.5-4.5-4.5Zm27.563-6.938-15-26.062C102.465.092 98.903-.845 96.09.842l-19.5 11.063H57.465c-2.25 0-4.5.75-6.375 1.875l-6.187 3.937c-1.875 1.125-2.813 3-2.813 5.063v23.625c0 4.312 3.188 7.5 7.5 7.5 4.125 0 7.5-3.188 7.5-7.5v-16.5h34.5c5.625 0 10.5 4.875 10.5 10.5v5.437l15-8.625c2.813-1.687 3.75-5.437 2.063-8.25Z" fill="#E51F37"/></svg>