<svg width="108" height="97" fill="none" xmlns="http://www.w3.org/2000/svg"><path d="M103.5 12.995H84v-7.5c0-2.437-2.063-4.5-4.5-4.5h-51c-2.625 0-4.5 2.063-4.5 4.5v7.5H4.5c-2.625 0-4.5 2.063-4.5 4.5v10.5c0 12.563 14.438 24.75 32.063 26.813C38.063 64.558 45 68.495 45 68.495v13.5h-9c-6.75 0-12 3.938-12 10.5v2.25c0 1.313.938 2.25 2.25 2.25h55.5c1.125 0 2.25-.937 2.25-2.25v-2.25c0-6.562-5.438-10.5-12-10.5h-9v-13.5s6.75-3.937 12.75-13.687C93.375 52.745 108 40.558 108 27.995v-10.5c0-2.437-2.062-4.5-4.5-4.5Zm-91.5 15v-3h12c.188 6.188 1.125 11.625 2.438 16.313C17.438 38.12 12 31.933 12 27.995Zm84 0c0 3.938-5.625 10.125-14.438 13.313 1.313-4.688 2.063-10.125 2.25-16.313H96v3Zm-24 .938-7.313 7.312 1.688 10.125c.375 1.875-1.688 3.375-3.188 2.438L54 43.933l-9.188 4.875c-1.687.937-3.562-.563-3.374-2.438l1.874-10.125-7.5-7.312c-1.312-1.313-.562-3.563 1.313-3.75l10.313-1.5 4.5-9.375c.75-1.688 3.187-1.688 4.124 0l4.5 9.375 10.313 1.5c1.688.187 2.438 2.437 1.125 3.75Z" fill="#DFDDE3"/></svg>