<svg width="96" height="84" fill="none" xmlns="http://www.w3.org/2000/svg"><path d="m94.547 61.401-15-15c-2.813-2.812-7.5-.937-7.5 3.188V56.9h-6l-9.938-10.5-10.125 10.69 13.313 14.25c.375.375.937.562 1.687.562h11.063v7.5c0 4.125 4.687 6 7.5 3.188l15-15c1.875-1.688 1.875-4.5 0-6.188Zm-92.25-34.5h15.75l9.75 10.688L37.922 26.9 24.609 12.65c-.375-.375-.937-.75-1.687-.75H2.297c-1.313 0-2.25 1.125-2.25 2.25v10.5c0 1.313.937 2.25 2.25 2.25Zm69.75 0v7.5c0 4.125 4.687 6 7.5 3.188l15-15c1.875-1.688 1.875-4.5 0-6.188l-15-15c-2.813-2.812-7.5-.937-7.5 3.188V11.9H60.984c-.75 0-1.312.375-1.687.75L18.047 56.9H2.297c-1.313 0-2.25 1.125-2.25 2.25v10.5c0 1.313.937 2.25 2.25 2.25h20.625c.75 0 1.312-.187 1.687-.562L66.047 26.9h6Z" fill="#DFDDE3"/></svg>