<svg width="195" height="24" fill="none" xmlns="http://www.w3.org/2000/svg"><g clip-path="url(#a)" fill="#8529CD"><path d="M63.952 20.099H15.934l3.825 3.88 44.193-3.88ZM20.381 4.406v.587c-.892-.576-1.69-.911-2.786-.911-3.364 0-5.92 3.111-5.92 6.933 0 3.822 2.556 6.932 5.92 6.932 1.095 0 1.895-.334 2.786-.91v.585h2.957V4.406h-2.957Zm-2.786 10.358c-1.659 0-2.873-1.656-2.873-3.75 0-2.093 1.214-3.748 2.873-3.748 1.66 0 2.832 1.657 2.832 3.748 0 2.092-1.17 3.75-2.832 3.75ZM44.07 4.407v7.764c0 1.456-.986 2.686-2.422 2.686-1.437 0-2.423-1.23-2.423-2.686V4.407h-2.957v7.764c0 3.185 2.148 5.777 5.289 5.777 1.454 0 2.514-.816 2.514-.816v.491h2.957V4.407H44.07Zm27.555 13.215V9.86c0-1.456.986-2.686 2.423-2.686s2.423 1.23 2.423 2.686v7.763h2.957V9.86c0-3.185-2.148-5.777-5.289-5.777-1.454 0-2.514.816-2.514.816v-.492h-2.957v13.216h2.957Z"/><path d="M3.153 17.622v-5.12h2.188l3.787 5.12h3.871l-4.575-6.178a5.73 5.73 0 0 0 2.363-4.639c0-3.14-2.519-5.692-5.615-5.692H.06v16.51h3.092Zm0-13.374h2.019c1.389 0 2.524 1.146 2.524 2.557 0 1.412-1.136 2.56-2.524 2.56H3.153V4.249Zm51.845 10.247c-.265.183-.6.325-.989.325-.483 0-1.394-.375-1.394-1.622V7.543h2.529V4.406h-2.529V1.113h-2.957v3.293h-1.564v3.137h1.564v5.702c0 2.951 2.192 4.713 4.397 4.713.822 0 1.962-.272 2.892-.831l-1.949-2.632Zm-24.307-3.893 5.072-6.195H31.62L28.07 9.01V.021h-3.045v17.601h3.046v-5.428l4.361 5.428h4.143l-5.884-7.02Z"/><path d="M61.83 4.071c-3.424 0-5.879 3.05-5.879 6.943 0 4.093 3.081 6.944 6.172 6.944 1.56 0 3.558-.542 5.237-2.958l-2.612-1.53c-2.02 3.02-5.386 1.487-5.775-1.533l8.518.002c.728-4.747-2.297-7.869-5.662-7.869v.001Zm2.58 5.237h-5.325c.622-3.095 4.75-3.273 5.326 0Zm19.575 8.315L89.729 1.94h2.326l5.744 15.684H95.69l-1.38-3.908h-6.957l-1.357 3.908h-2.012.001Zm4.023-5.777h5.648L90.82 3.807l-2.81 8.04h-.002Zm15.124 6.023a4.818 4.818 0 0 1-2.763-.836c-.824-.557-1.475-1.328-1.95-2.311-.477-.984-.716-2.106-.716-3.368 0-1.263.239-2.405.715-3.38.477-.975 1.127-1.741 1.951-2.298a4.828 4.828 0 0 1 2.763-.837c.937 0 1.77.234 2.497.701a4.453 4.453 0 0 1 1.648 1.881V.17h1.938v17.454h-1.671l-.219-2.36a4.47 4.47 0 0 1-1.672 1.893c-.743.475-1.584.713-2.521.713Zm.364-1.918a3.42 3.42 0 0 0 1.951-.577c.573-.385 1.026-.926 1.357-1.623.331-.696.497-1.496.497-2.397 0-.902-.166-1.72-.497-2.408-.331-.69-.784-1.226-1.357-1.611a3.426 3.426 0 0 0-1.951-.577c-.727 0-1.378.192-1.951.577-.574.385-1.026.922-1.357 1.61-.331.689-.496 1.492-.496 2.409 0 .917.165 1.7.496 2.397.331.697.783 1.238 1.357 1.623a3.415 3.415 0 0 0 1.951.577Zm11.729 1.672-4.75-12.537h2.181l3.781 10.374 3.757-10.374h2.036l-4.75 12.537h-2.255Zm12.626.296c-1.179 0-2.205-.275-3.077-.824-.872-.549-1.547-1.315-2.024-2.298-.476-.983-.715-2.123-.715-3.417 0-1.294.239-2.433.715-3.417.477-.983 1.131-1.758 1.963-2.323.833-.566 1.79-.848 2.873-.848 1.082 0 2.036.282 2.859.848.825.565 1.471 1.34 1.939 2.323.468.984.703 2.123.703 3.417v.491h-9.065c.081 1.377.477 2.422 1.188 3.135.711.712 1.64 1.069 2.787 1.069 1.47 0 2.698-.745 3.684-2.237l1.26 1.426a5.902 5.902 0 0 1-2.193 1.954 6.18 6.18 0 0 1-2.897.701Zm-.266-11.284c-.954 0-1.737.316-2.351.946-.614.631-1.002 1.512-1.163 2.643h7.004c-.161-1.13-.545-2.012-1.151-2.643-.606-.63-1.385-.946-2.339-.946Zm7.026 10.988V5.086h1.672l.218 2.384c.323-.803.784-1.442 1.382-1.917.597-.475 1.26-.713 1.987-.713.808 0 1.535.27 2.181.812l-.678 1.966c-.549-.475-1.123-.713-1.721-.713-.598 0-1.107.193-1.575.578-.469.385-.841.905-1.115 1.56-.275.656-.412 1.394-.412 2.213v6.367h-1.939Zm14.251.245c-2.391 0-3.586-1.409-3.586-4.228V6.905h-2.157v-1.82h2.157V1.84h1.938v3.245h4.315v1.82h-4.315v6.636c0 1.607.606 2.41 1.818 2.41.371 0 .723-.07 1.054-.21.331-.139.699-.364 1.103-.676l.558 1.917c-.792.59-1.754.885-2.885.885Zm5.598-14.676c-.404 0-.739-.143-1.005-.43a1.415 1.415 0 0 1-.4-.995c0-.378.133-.71.4-.995a1.314 1.314 0 0 1 1.005-.431c.405 0 .74.144 1.006.43.266.287.4.62.4.996 0 .375-.134.709-.4.995-.267.287-.602.43-1.006.43Zm-.969 14.43V5.085h1.939v12.537h-1.939Zm8.264.296a6.03 6.03 0 0 1-2.811-.663 5.91 5.91 0 0 1-2.157-1.917l1.26-1.451c.921 1.458 2.149 2.188 3.684 2.188.792 0 1.406-.152 1.842-.455.436-.303.654-.734.654-1.29 0-.984-.711-1.656-2.132-2.017l-1.431-.368c-1.002-.263-1.785-.701-2.35-1.316-.566-.614-.849-1.348-.849-2.2 0-.705.182-1.331.546-1.88.364-.55.86-.98 1.49-1.291.63-.31 1.341-.467 2.132-.467.872 0 1.685.184 2.436.553a4.2 4.2 0 0 1 1.757 1.56l-1.211 1.475c-.436-.622-.885-1.069-1.345-1.339-.461-.27-1.006-.405-1.637-.405-.63 0-1.179.156-1.599.466-.421.312-.63.721-.63 1.23 0 .459.161.827.484 1.106.323.278.872.525 1.649.738l1.356.368c1.05.296 1.862.759 2.436 1.39.573.63.86 1.388.86 2.273 0 1.098-.403 1.991-1.211 2.68-.808.688-1.883 1.032-3.223 1.032Zm6.957-14.726c-.404 0-.739-.143-1.005-.43a1.415 1.415 0 0 1-.4-.995c0-.378.133-.71.4-.995a1.314 1.314 0 0 1 1.005-.431c.405 0 .74.144 1.006.43.266.287.4.62.4.996 0 .375-.134.709-.4.995-.267.287-.602.43-1.006.43Zm-.969 14.43V5.085h1.939v12.537h-1.939Zm4.071.001V5.086h1.673l.218 2.336c.404-.803.958-1.434 1.66-1.893.703-.459 1.499-.688 2.388-.688 1.341 0 2.407.475 3.199 1.426.791.95 1.187 2.327 1.187 4.13v7.227H180.2v-7.129c0-1.213-.262-2.139-.787-2.778-.525-.639-1.232-.958-2.12-.958-.696 0-1.309.192-1.842.577a3.88 3.88 0 0 0-1.248 1.536 4.856 4.856 0 0 0-.449 2.09v6.662h-1.939l-.001-.001Zm17.425 4.965a8.307 8.307 0 0 1-2.932-.515c-.921-.346-1.705-.837-2.351-1.476l.751-1.794a6.474 6.474 0 0 0 2.073 1.389c.767.32 1.571.48 2.412.48 2.633 0 3.95-1.59 3.95-4.77v-.91a5.077 5.077 0 0 1-1.66 1.845 4.214 4.214 0 0 1-2.437.737c-1.017 0-1.93-.27-2.738-.812-.808-.54-1.447-1.29-1.914-2.248-.47-.959-.704-2.045-.704-3.258s.231-2.326.691-3.293c.461-.967 1.095-1.73 1.903-2.287.808-.556 1.729-.836 2.763-.836.905 0 1.725.238 2.46.713a4.808 4.808 0 0 1 1.684 1.819l.194-2.286h1.673v10.816c0 2.196-.509 3.86-1.527 4.99-1.019 1.13-2.448 1.696-4.29 1.696h-.001Zm.145-6.907c.744 0 1.398-.193 1.964-.578.565-.385 1.01-.913 1.333-1.585.323-.672.485-1.442.485-2.311 0-.87-.162-1.663-.485-2.336-.323-.672-.768-1.196-1.333-1.573-.566-.377-1.22-.566-1.964-.566s-1.369.189-1.927.566c-.557.377-.997.901-1.32 1.573-.324.673-.485 1.45-.485 2.336 0 .885.161 1.663.485 2.335.323.673.763 1.197 1.32 1.574.558.377 1.201.566 1.927.566Z"/></g><defs><clipPath id="a"><path fill="#fff" d="M0 0h195v24H0z"/></clipPath></defs></svg>