<svg width="228" height="180" fill="none" xmlns="http://www.w3.org/2000/svg"><rect width="228" height="180" rx="18" fill="#fff"/><g fill="#09C"><path d="M16.788 110.394H9V107h19.368v3.394h-7.754v20.124h-3.826v-20.124Z"/><path d="m29.413 113.829.246 2.2c1-1.717 2.686-2.573 5.057-2.573 1.745 0 3.164.474 4.258 1.421l-1.64 3.046c-.863-.678-1.873-1.014-3.037-1.014-1.325 0-2.43.396-3.316 1.185-.883.79-1.326 1.918-1.326 3.386v9.038h-3.593v-16.689h3.351Zm24.127-.003h3.419v16.713h-3.352l-.17-2.711c-.501 1.016-1.309 1.796-2.428 2.337-1.116.542-2.246.814-3.385.814-2.555 0-4.634-.773-6.238-2.32-1.608-1.548-2.412-3.714-2.412-6.492s.824-4.843 2.48-6.39c1.652-1.547 3.73-2.321 6.238-2.321 1.23 0 2.364.266 3.402.797 1.038.531 1.818 1.271 2.34 2.22l.102-2.644.003-.003Zm-5.574 2.815c-1.55 0-2.849.508-3.897 1.527-1.048 1.016-1.574 2.351-1.574 3.999 0 1.648.526 3.017 1.574 4.033 1.048 1.016 2.347 1.527 3.897 1.527 1.734 0 3.077-.548 4.033-1.645.957-1.096 1.435-2.401 1.435-3.915 0-1.513-.478-2.785-1.435-3.881-.956-1.097-2.303-1.645-4.033-1.645ZM77.71 107v23.64h-3.317l-.204-2.637c-1.231 1.983-3.178 2.976-5.848 2.976-2.53 0-4.6-.772-6.204-2.315-1.608-1.544-2.412-3.671-2.412-6.376 0-2.704.79-4.886 2.375-6.409 1.584-1.523 3.64-2.282 6.17-2.282 1.14 0 2.286.265 3.436.795 1.15.531 1.977 1.259 2.48 2.182v-9.571h3.52l.004-.003Zm-9.128 9.876c-1.55 0-2.826.49-3.83 1.469-1.004.98-1.502 2.296-1.502 3.94 0 1.644.502 2.966 1.502 3.956 1.004.993 2.28 1.49 3.83 1.49 1.55 0 2.748-.507 3.796-1.523 1.048-1.014 1.573-2.323 1.573-3.923 0-1.601-.525-2.876-1.573-3.889-1.049-1.014-2.314-1.524-3.796-1.524v.004Zm15.116 6.66c.16 1.286.734 2.306 1.721 3.061.988.755 2.262 1.134 3.823 1.134a8.54 8.54 0 0 0 2.787-.473c.919-.316 1.63-.755 2.135-1.319l2.306 2.198c-.85.926-1.934 1.631-3.252 2.114a11.681 11.681 0 0 1-4.045.728c-2.777 0-4.997-.798-6.66-2.402-1.664-1.601-2.498-3.742-2.498-6.426 0-2.685.827-4.635 2.48-6.259 1.654-1.624 3.799-2.436 6.44-2.436 2.64 0 4.703.731 6.264 2.198 1.561 1.466 2.34 3.597 2.34 6.392 0 .316-.024.813-.068 1.487H83.698v.003Zm10.364-2.943c-.117-1.308-.615-2.305-1.5-2.993-.885-.688-2.06-1.03-3.529-1.03-1.356 0-2.503.346-3.443 1.03-.943.688-1.55 1.685-1.824 2.993h10.295ZM117.829 107v23.64h-3.317l-.204-2.637c-1.231 1.983-3.178 2.976-5.848 2.976-2.53 0-4.599-.772-6.204-2.315-1.608-1.544-2.411-3.671-2.411-6.376 0-2.704.79-4.886 2.374-6.409 1.584-1.523 3.64-2.282 6.17-2.282 1.14 0 2.283.265 3.436.795 1.15.531 1.978 1.259 2.48 2.182v-9.571h3.521l.003-.003Zm-9.128 9.876c-1.55 0-2.825.49-3.829 1.469-1.005.98-1.503 2.296-1.503 3.94 0 1.644.502 2.966 1.503 3.956 1.004.993 2.279 1.49 3.829 1.49 1.55 0 2.748-.507 3.796-1.523 1.048-1.014 1.574-2.323 1.574-3.923 0-1.601-.526-2.876-1.574-3.889-1.048-1.014-2.314-1.524-3.796-1.524v.004Zm14.254-.914c1.573-1.671 3.617-2.506 6.139-2.506 2.522 0 4.576.835 6.172 2.506 1.592 1.67 2.392 3.753 2.392 6.256 0 2.502-.786 4.643-2.359 6.289-1.573 1.647-3.64 2.472-6.205 2.472s-4.622-.821-6.172-2.472c-1.55-1.646-2.326-3.743-2.326-6.289 0-2.547.786-4.586 2.359-6.256Zm6.139.733c-1.517 0-2.738.535-3.664 1.603-.925 1.069-1.387 2.374-1.387 3.92 0 1.545.462 2.847 1.387 3.902.926 1.055 2.147 1.586 3.664 1.586 1.516 0 2.77-.528 3.696-1.586.926-1.055 1.387-2.357 1.387-3.902 0-1.546-.474-2.824-1.42-3.903-.949-1.078-2.17-1.62-3.663-1.62Zm14.813-2.778v9.021c0 1.47.393 2.641 1.185 3.509.789.872 1.907 1.306 3.351 1.306 1.353 0 2.464-.485 3.334-1.457.869-.973 1.303-2.171 1.303-3.594v-8.782h3.485v16.686h-3.146l-.202-2.339c-1.558 1.811-3.475 2.712-5.751 2.712-2.099 0-3.798-.713-5.094-2.136-1.296-1.424-1.947-3.378-1.947-5.868v-9.055h3.485l-.003-.003Zm18.946 2.657c.502-.923 1.326-1.651 2.479-2.182 1.15-.53 2.296-.795 3.436-.795 2.507 0 4.559.762 6.153 2.282 1.595 1.523 2.395 3.658 2.395 6.409 0 2.752-.804 4.832-2.412 6.376-1.607 1.543-3.677 2.315-6.204 2.315-2.666 0-4.616-.993-5.847-2.976l-.204 2.637h-3.317V107h3.521v9.574Zm9.402 1.778c-1.024-.98-2.289-1.47-3.795-1.47-1.507 0-2.782.507-3.83 1.524-1.048 1.013-1.574 2.312-1.574 3.889s.519 2.909 1.557 3.923c1.038 1.013 2.32 1.523 3.847 1.523 1.526 0 2.767-.497 3.795-1.49 1.025-.993 1.537-2.312 1.537-3.956 0-1.644-.512-2.96-1.537-3.94v-.003ZM183.772 107v23.518h-3.689V107h3.689Zm6.352 16.536c.157 1.286.715 2.306 1.677 3.061.961.755 2.201 1.134 3.721 1.134.915 0 1.82-.158 2.714-.473.895-.316 1.587-.755 2.079-1.319l2.245 2.198c-.828.926-1.882 1.631-3.166 2.114a11.11 11.11 0 0 1-3.938.728c-2.704 0-4.866-.798-6.486-2.402-1.62-1.601-2.431-3.742-2.431-6.426 0-2.685.805-4.635 2.415-6.259 1.609-1.624 3.698-2.436 6.269-2.436s4.58.731 6.1 2.198c1.52 1.466 2.278 3.597 2.278 6.392 0 .316-.023.813-.066 1.487h-13.411v.003Zm10.091-2.943c-.113-1.308-.598-2.305-1.46-2.993-.861-.688-2.005-1.03-3.436-1.03-1.32 0-2.438.346-3.352 1.03-.918.688-1.51 1.685-1.776 2.993h10.024Zm9.843-6.764.237 2.2c.965-1.717 2.591-2.573 4.878-2.573 1.683 0 3.052.474 4.107 1.421l-1.583 3.046c-.831-.678-1.806-1.014-2.928-1.014-1.279 0-2.344.396-3.195 1.185-.852.79-1.279 1.918-1.279 3.386v9.038h-3.466v-16.689h3.232-.003Z"/></g><path d="M105.704 84h8.222V58.327h8.907c1.645 0 4.797.925 6.167 1.387 0-6.106-5.025-9.02-7.537-9.714H92v8.327h13.704V84Z" fill="#09C"/><path d="M105 94v-8.25h18.107c6.268 0 12.536-6.188 12.536-13.75 0-6.05-3.25-9.854-4.875-11 0-6.05-3.25-9.854-4.875-11 6.036.458 18.107 5.5 18.107 22s-13.929 21.542-20.893 22H105Z" fill="#2B3E44"/></svg>