<svg width="178" height="76" fill="none" xmlns="http://www.w3.org/2000/svg"><path d="M0 4a4 4 0 0 1 4-4h170a4 4 0 0 1 4 4v68a4 4 0 0 1-4 4H4a4 4 0 0 1-4-4V4Z" fill="#fff"/><path fill="#00B67A" d="M27.598 47.753h15.744v15.744H27.598z"/><path d="m35.47 58.518 2.394-.64 1 3.257-3.395-2.617Zm5.51-4.21h-4.215l-1.296-4.194-1.295 4.194h-4.215l3.411 2.599-1.295 4.193 3.41-2.599 2.1-1.594 3.395-2.6Z" fill="#fff"/><path fill="#00B67A" d="M46.49 47.753h15.744v15.744H46.49z"/><path d="m54.362 58.518 2.394-.64 1 3.257-3.394-2.617Zm5.51-4.21h-4.215l-1.295-4.194-1.296 4.194h-4.214l3.41 2.599-1.295 4.193 3.411-2.599 2.1-1.594 3.394-2.6Z" fill="#fff"/><path fill="#00B67A" d="M65.383 47.753h15.744v15.744H65.383z"/><path d="m73.254 58.518 2.395-.64 1 3.257-3.395-2.617Zm5.51-4.21H74.55l-1.296-4.194-1.295 4.194h-4.215l3.411 2.599L69.86 61.1l3.41-2.599 2.1-1.594 3.395-2.6Z" fill="#fff"/><path fill="#00B67A" d="M84.275 47.753h15.744v15.744H84.275z"/><path d="m92.147 58.518 2.394-.64 1 3.257-3.394-2.617Zm5.51-4.21h-4.214l-1.296-4.194-1.296 4.194h-4.214l3.41 2.599-1.295 4.193 3.411-2.599 2.1-1.594 3.394-2.6Z" fill="#fff"/><path transform="translate(103.168 47.753)" fill="url(#a)" d="M0 0h15.744v15.744H0z"/><path d="m111.04 58.518 2.394-.64 1 3.257-3.394-2.617Zm5.51-4.21h-4.215l-1.295-4.194-1.296 4.194h-4.215l3.411 2.599-1.295 4.193 3.411-2.599 2.099-1.594 3.395-2.6Z" fill="#fff"/><g clip-path="url(#b)"><path d="M58.175 18.498h13.163v2.456h-5.176V34.76h-2.846V20.954h-5.153v-2.456h.012Zm12.6 4.487h2.433v2.272h.046c.08-.32.23-.63.448-.93a4.14 4.14 0 0 1 .791-.825 4.22 4.22 0 0 1 1.033-.609 3.17 3.17 0 0 1 1.16-.23c.298 0 .516.012.63.024.115.011.23.034.356.046v2.501a8.333 8.333 0 0 0-.562-.08 4.776 4.776 0 0 0-.562-.034c-.436 0-.85.091-1.24.264-.39.172-.723.436-1.01.768a3.904 3.904 0 0 0-.688 1.263c-.172.505-.253 1.079-.253 1.733v5.6h-2.593V22.985h.011Zm18.82 11.775h-2.547v-1.642h-.046c-.321.597-.792 1.068-1.423 1.423-.631.356-1.274.54-1.928.54-1.549 0-2.674-.379-3.362-1.148-.689-.769-1.033-1.928-1.033-3.477v-7.47h2.594v7.217c0 1.033.195 1.768.596 2.192.39.425.953.643 1.664.643.551 0 .999-.08 1.366-.252.367-.172.665-.39.884-.677a2.6 2.6 0 0 0 .493-1.01c.103-.39.15-.815.15-1.274v-6.828h2.593V34.76Zm4.42-3.776c.08.757.366 1.285.86 1.595.505.298 1.102.46 1.802.46.24 0 .516-.024.826-.058a3.47 3.47 0 0 0 .872-.218c.275-.104.493-.264.677-.47.172-.207.252-.471.241-.804a1.108 1.108 0 0 0-.367-.815c-.23-.218-.517-.379-.872-.516a8.757 8.757 0 0 0-1.217-.333c-.459-.092-.918-.195-1.388-.299a13.183 13.183 0 0 1-1.4-.39 4.276 4.276 0 0 1-1.206-.62 2.726 2.726 0 0 1-.849-.986c-.218-.402-.321-.896-.321-1.492 0-.643.16-1.17.47-1.607.31-.436.712-.78 1.183-1.044a5.48 5.48 0 0 1 1.595-.563 9.71 9.71 0 0 1 1.675-.16c.608 0 1.194.069 1.745.195.55.126 1.055.333 1.503.631.447.287.815.666 1.113 1.125.298.459.482 1.021.562 1.675h-2.708c-.126-.62-.402-1.044-.85-1.25-.447-.219-.963-.322-1.537-.322a4.89 4.89 0 0 0-.654.046 3.58 3.58 0 0 0-.712.172 1.54 1.54 0 0 0-.562.367.888.888 0 0 0-.23.631c0 .322.115.574.333.77.218.194.505.355.861.493.356.126.758.24 1.217.333.458.091.93.195 1.411.298.47.103.93.241 1.389.39.459.15.86.356 1.216.62s.643.585.861.975c.218.39.333.884.333 1.458 0 .7-.161 1.285-.482 1.779a3.823 3.823 0 0 1-1.24 1.182 5.822 5.822 0 0 1-1.698.665c-.62.138-1.24.207-1.848.207-.746 0-1.434-.08-2.066-.253-.63-.172-1.182-.424-1.64-.757a3.755 3.755 0 0 1-1.09-1.274c-.265-.505-.402-1.113-.425-1.813h2.616v-.023Zm8.56-7.999h1.963v-3.534h2.593v3.534h2.341v1.94h-2.341v6.288c0 .276.012.505.035.712.023.195.08.367.16.505a.74.74 0 0 0 .379.31c.172.069.39.103.688.103.184 0 .368 0 .551-.012a3.02 3.02 0 0 0 .551-.08v2.009c-.287.034-.574.057-.838.091-.275.035-.55.046-.837.046-.689 0-1.24-.069-1.653-.195-.413-.126-.746-.321-.975-.574-.241-.252-.39-.562-.482-.94a6.978 6.978 0 0 1-.149-1.298v-6.942h-1.963v-1.963h-.023Zm8.733 0h2.456v1.595h.046c.367-.688.872-1.17 1.526-1.469a5.036 5.036 0 0 1 2.124-.447c.929 0 1.732.16 2.421.493a4.727 4.727 0 0 1 1.721 1.343c.459.574.792 1.24 1.022 1.997.229.757.344 1.572.344 2.433a8.44 8.44 0 0 1-.31 2.295 6.134 6.134 0 0 1-.929 1.974 4.57 4.57 0 0 1-1.584 1.365c-.643.345-1.389.517-2.261.517-.379 0-.757-.035-1.136-.103a4.997 4.997 0 0 1-1.09-.333 3.944 3.944 0 0 1-.964-.586 3.607 3.607 0 0 1-.746-.826h-.046v5.876h-2.594V22.985Zm9.066 5.899a5.86 5.86 0 0 0-.206-1.55 4.172 4.172 0 0 0-.62-1.33 3.16 3.16 0 0 0-1.021-.93 2.865 2.865 0 0 0-1.412-.356c-1.09 0-1.916.379-2.467 1.136-.551.758-.826 1.768-.826 3.03 0 .597.068 1.147.218 1.652.149.505.355.941.654 1.309.287.367.631.654 1.033.86.401.218.872.322 1.4.322.596 0 1.09-.127 1.503-.368a3.177 3.177 0 0 0 1.01-.94c.264-.39.459-.827.574-1.32.103-.494.16-.999.16-1.515Zm4.579-10.386h2.594v2.456h-2.594v-2.456Zm0 4.487h2.594V34.76h-2.594V22.985Zm4.912-4.487h2.594V34.76h-2.594V18.498Zm10.546 16.583c-.941 0-1.778-.16-2.513-.47a5.546 5.546 0 0 1-1.87-1.286 5.596 5.596 0 0 1-1.159-1.962 7.573 7.573 0 0 1-.402-2.502c0-.895.138-1.721.402-2.479a5.596 5.596 0 0 1 1.159-1.962c.505-.551 1.136-.976 1.87-1.286.735-.31 1.572-.47 2.513-.47.942 0 1.779.16 2.514.47.734.31 1.354.746 1.87 1.286a5.59 5.59 0 0 1 1.159 1.962c.264.758.402 1.584.402 2.479a7.58 7.58 0 0 1-.402 2.502 5.596 5.596 0 0 1-1.159 1.962c-.505.55-1.136.975-1.87 1.285-.735.31-1.572.47-2.514.47Zm0-2.054c.574 0 1.079-.127 1.504-.368a3.2 3.2 0 0 0 1.044-.952c.276-.39.471-.838.608-1.331.127-.494.195-.999.195-1.515 0-.505-.068-.999-.195-1.503a3.91 3.91 0 0 0-.608-1.332c-.275-.39-.62-.7-1.044-.94-.425-.242-.93-.368-1.504-.368-.573 0-1.078.126-1.503.367a3.297 3.297 0 0 0-1.044.941c-.276.39-.471.827-.608 1.332a6.105 6.105 0 0 0-.195 1.503c0 .516.068 1.021.195 1.515.126.493.332.94.608 1.33a3.2 3.2 0 0 0 1.044.953c.425.253.93.368 1.503.368Zm6.702-10.042h1.963v-3.534h2.593v3.534h2.342v1.94h-2.342v6.288c0 .276.012.505.035.712a1.3 1.3 0 0 0 .161.505c.08.138.206.24.378.31.172.069.39.103.689.103.183 0 .367 0 .551-.012.183-.01.367-.034.551-.08v2.009c-.287.034-.574.057-.838.091a6.724 6.724 0 0 1-.838.046c-.689 0-1.239-.069-1.653-.195-.413-.126-.745-.321-.975-.574-.241-.252-.39-.562-.482-.94a7.064 7.064 0 0 1-.149-1.298v-6.942h-1.963v-1.963h-.023Z" fill="#20262F"/><path d="M55.145 18.498H43.256L39.584 7.183 35.9 18.498l-11.89-.012 9.63 7-3.685 11.305 9.629-6.99 9.616 6.99-3.672-11.304 9.617-6.99Z" fill="#00B67A"/><path d="m46.355 28.046-.826-2.56-5.945 4.315 6.77-1.755Z" fill="#007B52"/></g><path d="M127.995 59.335v-1.571l5.562-8.786h1.238v2.313h-.786l-3.978 6.297v.1h7.623v1.647h-9.659Zm6.102 2.514v-2.992l.013-.716v-9.163h1.841v12.87h-1.854Zm6.527.119c-.344 0-.639-.122-.886-.365a1.217 1.217 0 0 1-.371-.892c0-.343.124-.637.371-.88.247-.247.542-.37.886-.37.343 0 .639.123.886.37.247.243.371.537.371.88a1.2 1.2 0 0 1-.176.635 1.29 1.29 0 0 1-.453.452c-.188.113-.398.17-.628.17Zm7.79.057c-.788 0-1.496-.151-2.125-.453a3.86 3.86 0 0 1-1.495-1.257 3.317 3.317 0 0 1-.597-1.822h1.885c.046.553.291 1.007.735 1.363.444.357.976.535 1.597.535.494 0 .932-.113 1.313-.34a2.44 2.44 0 0 0 .905-.949 2.8 2.8 0 0 0 .333-1.376c0-.524-.113-.99-.339-1.401a2.513 2.513 0 0 0-.937-.968 2.644 2.644 0 0 0-1.357-.358c-.39 0-.782.066-1.175.2-.394.135-.713.31-.956.529l-1.778-.264.723-6.486h7.076v1.665h-5.461l-.409 3.601h.076c.251-.243.584-.446.999-.61a3.668 3.668 0 0 1 1.345-.244c.783 0 1.481.186 2.093.559a3.982 3.982 0 0 1 1.451 1.527c.356.641.532 1.379.528 2.212.004.834-.184 1.578-.565 2.231a4.1 4.1 0 0 1-1.572 1.546c-.666.373-1.43.56-2.293.56Z" fill="#20262F"/><defs><linearGradient id="a" x1="0" y1="7.872" x2="15.744" y2="7.872" gradientUnits="userSpaceOnUse"><stop stop-color="#00B67A"/><stop offset=".5" stop-color="#00B67A"/><stop offset=".5" stop-color="#00B67A" stop-opacity="0"/><stop offset=".5" stop-color="#D9D9D9"/><stop offset="1" stop-color="#D9D9D9"/><stop offset="1" stop-color="#219653" stop-opacity="0"/><stop offset="1" stop-color="#D9D9D9"/></linearGradient><clipPath id="b"><path fill="#fff" transform="translate(24.01 7.183)" d="M0 0h130v31.926H0z"/></clipPath></defs></svg>