<svg width="48" height="48" fill="none" xmlns="http://www.w3.org/2000/svg"><path d="M42.207.728H5.065C2.215.728 0 3.048 0 5.792v37.143C0 45.784 2.216 48 5.065 48h37.142c2.744 0 5.065-2.216 5.065-5.065V5.792c0-2.743-2.321-5.064-5.065-5.064Zm-5.17 16.777v.95c0 9.074-6.964 19.626-19.732 19.626-3.904 0-7.492-1.055-10.552-3.06.528.105 1.055.105 1.583.105 3.271 0 6.226-1.16 8.652-2.954-3.06-.106-5.592-2.11-6.542-4.854 1.161.211 2.11.211 3.166-.105-3.166-.634-5.487-3.377-5.487-6.754v-.105c.844.527 1.9.844 3.06.844-1.688-1.16-3.06-3.693-3.06-5.698 0-1.372.316-2.532.95-3.588 3.376 4.221 8.547 6.965 14.245 7.281-.95-4.643 2.532-8.547 6.753-8.547a6.85 6.85 0 0 1 5.065 2.216c1.582-.316 3.06-.844 4.431-1.688-.527 1.688-1.688 2.954-3.06 3.799 1.372-.106 2.744-.528 4.01-1.056-.95 1.372-2.216 2.638-3.482 3.588Z" fill="#577590"/></svg>