<svg width="106" height="106" fill="none" xmlns="http://www.w3.org/2000/svg"><g fill="#E51C71" clip-path="url(#a)"><path d="M82.531 15.465h6.998l2.12-2.928h-9.817c-.994 0-2.12.32-2.8.85-.844.657-1.27 1.568-1.27 2.67 0 .617.107 1.147.339 1.615.232.443.53.803.89 1.035.34.236.72.406 1.122.555.257.082 2.186.505 2.505.571.274.062.51.15.654.273.386.298.108.638.021.7-.062.066-.232.128-.571.128h-5.83l-.634 2.99h7.25s.911-.041 1.185-.149c.509-.15.679-.083 1.337-.613.849-.658 1.168-1.656 1.168-2.758 0-.612-.108-1.142-.34-1.61-.236-.447-.53-.808-.89-1.04a5.118 5.118 0 0 0-1.126-.55c-.253-.087-2.182-.51-2.501-.572-.273-.066-.489-.149-.658-.277a.345.345 0 0 1-.145-.298c0-.083 0-.211.19-.381.19-.232.803-.211.803-.211Zm-62.138 5.619h5.408l-.572 2.778h-8.5l2.33-11.325h8.501l-.55 2.779h-5.387l-.274 1.528h4.323l-.53 2.712h-4.45l-.299 1.528Zm16.095-.617c-.195 1.039-.659 1.867-1.425 2.48-.741.617-1.61.915-2.604.915h-5.851l2.352-11.325h5.11c1.018 0 1.8.278 2.31.828.51.551.658 1.292.468 2.249-.15.803-.766 1.503-1.806 2.1v.061c1.21.55 1.698 1.441 1.446 2.692Zm-3.035-.315c.066-.319.02-.576-.125-.808a.706.706 0 0 0-.637-.339H30.72l-.468 2.29h2.016c.253 0 .51-.129.742-.36.231-.212.38-.49.443-.783Zm-1.885-5.068-.318 1.801h1.61c.19 0 .381-.108.551-.298.19-.19.298-.402.34-.613a.831.831 0 0 0-.108-.592c-.104-.195-.253-.298-.443-.298h-1.632Zm11.975 4.492.53-2.604h5.536l-1.4 6.91h-2.67l.273-1.295-.062-.042c-.55.51-.658.659-1.23.932-.55.277-1.337.426-2.202.426-1.487 0-3.035-.319-3.88-1.42-.849-1.101-1.126-2.526-.808-4.26.19-1.106.68-2.1 1.42-3.01.742-.916 1.4-1.487 2.46-2.017 1.06-.51 2.331-.68 3.458-.68 1.354 0 2.815.36 3.39.829.87.7 1.334 1.631 1.38 2.84h-3.18c-.257-.782-.957-1.163-2.1-1.163-.828 0-1.59.314-2.29.973-.7.637-1.126 1.379-1.295 2.227-.17.845-.021 1.59.426 2.203.443.617 1.08.932 1.884.932.679 0 1.296-.17 1.805-.485.53-.34.89-.766 1.122-1.275h-2.567v-.02Zm13.275 4.348-.19-1.677h-3.5l-.827 1.677h-3.118l6.087-11.32h3.072l1.59 11.32h-3.114Zm-.468-4.157-.17-3.685h-.149l-1.652 3.685h1.971Zm4.518 4.157 2.351-11.32h3.073l-2.352 11.32h-3.072Zm14.115 0h-2.965l-2.186-5.747h-.103l-1.23 5.747H65.38l2.31-11.32h3.118l2.27 5.598h.103l1.06-5.598h3.01l-2.269 11.32ZM14.562 12.645l-1.205 5.557h-.107l-2.162-5.726h-.02l-.067.401-.02.025.087-.426-4.009 5.279 1.081-5.11H4.98l-2.248 11.28h3.139l3.987-5.599h.19l1.889 5.598h3.114l2.331-11.279h-2.82Z"/><path d="M105.959 12.538h-9.01s.679 7.93-2.547 14.078c-5.362 10.24-37.671 53.617-37.671 53.617l-5.342-7.378 11.743-16.517c2.65-3.561.108-8.605-4.323-8.605H39.601l5.47 8.99h5.68l-5.784 7.693-13.084-17.979c-2.095-2.881-.294-6.633 3.267-6.591h39.982l6.086-8.44h-49.63c-9.477 0-14.819 10.497-9.245 18.15l16.666 22.959-5.681 7.698s-19.25-26.269-20.906-29.088c-1.59-2.758-2.414-4.05-3.222-7.358-1.358-5.851.85-12.34.85-12.34H1.291s-.845 2.65-1.25 7.806c-.423 5.445 1.146 10.343 3.478 14.815 1.188 2.248 17.51 25.635 26.288 37.61 1.78 2.438 5.404 2.438 7.21.02l7.924-10.642 1.657 2.398 6 8.269c1.693 2.372 5.212 2.414 6.972.082l27.67-38.752c3.18-4.285 9.453-12.508 14.583-21.605 4.559-8.075 4.199-18.505 4.137-18.89Z"/></g><defs><clipPath id="a"><path fill="#fff" d="M0 0h106v106H0z"/></clipPath></defs></svg>