<svg width="114" height="114" fill="none" xmlns="http://www.w3.org/2000/svg"><path d="M41.693 22.609c1.33 1.331 1.33 3.771 0 5.102l-7.1 7.1c-1.33 1.33-3.77 1.33-5.102 0-1.331-1.332-1.331-3.772 0-5.103l7.1-7.1c1.33-1.33 3.77-1.33 5.102 0ZM.207 56.995C.207 25.715 25.497.202 57 .202c31.28 0 56.793 25.513 56.793 56.793 0 31.502-25.513 56.793-56.793 56.793A56.62 56.62 0 0 1 .207 56.995Zm105.821 7.1c.444-2.22.666-4.66.666-7.1 0-25.29-19.08-46.144-43.482-49.25l-1.11 3.993c3.328-.887 6.878.444 8.874 3.328 2.884 4.215 1.331 9.983-3.106 12.202L54.781 33.7c-.887.444-1.33 1.331-1.33 2.219 0 1.996-.888 3.993-2.22 5.324l-4.214 3.993c-.444.666-.666 1.331-.666 1.997v.444c0 1.33.888 2.218 2.219 2.218.887 0 1.553-.222 1.996-.887l2.219-3.106c1.553-1.997 3.771-3.106 5.99-3.106 1.996 0 3.993.887 5.324 2.218l.666.666c.443.665 1.552.665 1.996 0l7.1-7.1c2.883-2.883 7.986-.887 7.986 3.328v1.997a2.462 2.462 0 0 0 2.44 2.44h.887c5.103 0 7.987 6.212 4.66 10.205-.666.888-.666 2.44.443 3.328l3.55 2.884a6.025 6.025 0 0 0 3.77 1.331h8.431Zm-1.553 7.098h-6.877c-3.106 0-5.99-.887-8.43-2.884l-3.328-2.884c-3.55-3.106-4.437-7.986-2.44-11.98-3.772-.221-6.878-2.662-8.209-6.211l-3.327 3.55c-3.328 3.327-8.874 3.327-12.202 0l-.665-.666s0-.222-.222-.222l-.222.222-2.44 3.106c-1.775 2.44-4.437 3.771-7.543 3.771-5.103 0-9.318-4.215-9.318-9.317v-.444c0-2.662.888-5.103 2.662-6.877l4.215-4.215s.222 0 .222-.222c0-3.55 1.997-6.878 5.103-8.43l13.31-6.656c.444-.222.666-1.11.444-1.775-.443-.443-1.109-.665-1.553-.443l-1.774.887c-3.994 1.997-8.652-1.553-7.543-5.99l1.553-5.99C28.826 7.967 7.306 29.93 7.306 56.995c0 27.287 21.741 49.472 48.807 49.694-1.11-1.997-3.106-3.55-5.768-3.55-3.55 0-7.1-1.331-9.54-3.771l-3.55-3.55c-3.327-3.328-5.102-7.986-5.102-12.645v-.666c0-5.99 2.884-11.536 7.765-14.863l6.212-3.994c2.883-1.996 6.211-3.105 9.76-3.105h4.66c4.215 0 8.208 1.552 11.535 4.436l5.769 4.881a6.025 6.025 0 0 0 3.77 1.331c3.329 0 6.434 1.331 8.875 3.772l.887.887c1.553 1.553 3.772 2.44 5.99 2.44h4.437c1.109-2.218 1.997-4.659 2.662-7.099Zm-6.877 14.198h-.222c-4.215 0-8.208-1.553-11.092-4.437l-.888-.887c-1.109-1.11-2.44-1.775-3.771-1.775-3.106 0-5.99-.887-8.208-2.884l-5.99-5.102c-1.997-1.553-4.437-2.662-6.878-2.662h-4.658c-2.219 0-4.215.665-5.99 1.996l-5.99 3.993a10.837 10.837 0 0 0-4.659 8.874v.666c0 2.884 1.11 5.546 3.106 7.543l3.55 3.55c1.109 1.108 2.662 1.774 4.437 1.774 6.433 0 11.757 4.437 13.31 10.205 13.977-1.775 26.178-9.54 33.943-20.854Z" fill="#fff"/></svg>