<svg width="144" height="114" fill="none" xmlns="http://www.w3.org/2000/svg"><path d="M47.22 49.896c-2.663 0-4.438 1.997-4.438 4.437 0 2.662 1.775 4.437 4.437 4.437 2.44 0 4.437-1.775 4.437-4.437a4.45 4.45 0 0 0-4.437-4.437Zm3.549-31.946h-7.987c-5.546 0-9.761 4.437-9.761 9.983 0 1.997 1.553 3.55 3.55 3.55 1.774 0 3.549-1.553 3.549-3.55 0-1.553 1.11-2.884 2.662-2.884h7.987c1.996 0 3.55 1.553 3.55 3.55 0 1.33-.888 2.44-1.998 3.106l-6.877 3.55c-1.109.443-1.775 1.774-1.775 3.105v4.437c0 1.997 1.553 3.55 3.55 3.55 1.775 0 3.55-1.553 3.55-3.55v-2.219l4.658-2.662c3.55-1.774 5.99-5.324 5.99-9.317 0-5.768-4.88-10.649-10.648-10.649Zm42.594 21.297C93.363 17.728 72.51.202 47.22.202 21.707.202 1.075 17.728 1.075 39.247c0 9.318 3.771 17.748 9.983 24.404-3.328 7.098-8.652 12.866-8.652 12.866-1.553 1.553-1.775 3.773-1.11 5.77.888 1.996 2.885 3.105 4.881 3.105 11.98 0 21.741-4.437 27.953-8.652 4.215 1.11 8.43 1.553 13.09 1.553 25.29 0 46.143-17.304 46.143-39.045ZM47.22 71.193c-3.771 0-7.765-.444-11.314-1.33l-3.106-.666-2.44 1.774c-4.659 2.884-11.536 6.434-19.966 7.321 1.996-2.884 4.88-6.877 7.099-11.536l1.996-4.437-3.327-3.55c-5.325-5.545-7.987-12.423-7.987-19.522 0-17.526 17.304-31.946 39.045-31.946 21.52 0 39.045 14.42 39.045 31.946 0 17.748-17.526 31.946-39.045 31.946Zm88.295 25.734c4.659-6.211 7.543-13.976 7.543-22.184 0-21.52-19.079-39.045-42.595-39.045-.222 0-.222.222-.222.222 0 1.109.222 2.218.222 3.327 0 1.331-.222 2.44-.222 3.772 0 0 0-.222.222-.222 19.523 0 35.496 14.42 35.496 31.946 0 6.433-2.219 12.645-6.212 17.97l-2.884 3.77 2.662 4.216c1.331 2.218 2.884 4.437 3.993 5.99-3.993-.444-7.986-1.553-11.979-3.328l-2.884-1.109-2.663 1.331c-5.102 1.996-10.204 3.106-15.529 3.106-16.86 0-30.615-10.205-34.386-24.182-2.218.666-4.659 1.331-7.1 1.775 4.66 17.082 21.298 29.506 41.486 29.506 6.434 0 12.645-1.331 18.413-3.772 5.325 2.219 11.536 3.772 18.857 3.772 1.997 0 3.994-1.109 4.881-3.106.666-1.997.222-4.215-1.109-5.546 0-.222-3.106-3.55-5.99-8.209Zm-48.363-21.74c-1.33 1.552-1.33 3.77 0 5.102l8.43 8.208c.666.666 1.553 1.11 2.44 1.11.888 0 1.776-.444 2.441-1.11l18.413-18.191c1.332-1.331 1.332-3.772 0-5.103-1.331-1.33-3.771-1.33-5.102 0L98.022 81.176l-5.768-5.768c-1.331-1.553-3.772-1.553-5.103-.222Z" fill="#fff"/></svg>