<svg width="104" height="114" fill="none" xmlns="http://www.w3.org/2000/svg"><path d="M20.054 3.752c0-1.775-1.775-3.55-3.55-3.55-1.996 0-3.549 1.775-3.549 3.55v12.423h7.1V3.752Zm-3.55 12.423C7.632 16.175.533 23.496.533 32.148c0 7.765 5.102 13.977 12.423 15.751v62.339c0 1.997 1.553 3.55 3.55 3.55 1.774 0 3.55-1.553 3.55-3.55V47.899c7.098-1.774 12.423-7.986 12.423-15.75 0-8.653-7.321-15.974-15.973-15.974Zm0 24.847c-5.102 0-8.873-3.771-8.873-8.874 0-4.88 3.771-8.874 8.874-8.874 4.88 0 8.873 3.994 8.873 8.874 0 5.103-3.993 8.874-8.873 8.874Zm74.541-10.205V3.752c0-1.775-1.775-3.55-3.55-3.55-1.996 0-3.549 1.775-3.549 3.55v27.065c-7.32 1.775-12.423 7.987-12.423 15.53 0 7.764 5.102 13.976 12.423 15.75v48.141c0 1.997 1.553 3.55 3.55 3.55 1.774 0 3.55-1.553 3.55-3.55v-48.14c7.098-1.775 12.422-7.987 12.422-15.752 0-7.542-5.324-13.754-12.423-15.529Zm-3.55 24.403c-5.102 0-8.873-3.771-8.873-8.874 0-4.88 3.771-8.873 8.874-8.873 4.88 0 8.873 3.993 8.873 8.873 0 5.103-3.993 8.874-8.873 8.874ZM52 58.77c-8.874 0-15.973 7.32-15.973 15.973 0 7.764 5.103 13.976 12.424 15.75v19.745c0 1.997 1.553 3.55 3.55 3.55 1.774 0 3.549-1.553 3.549-3.55V90.494c7.099-1.775 12.423-7.987 12.423-15.751 0-8.652-7.32-15.973-15.973-15.973Zm0 24.847c-5.102 0-8.874-3.772-8.874-8.874 0-4.88 3.772-8.874 8.874-8.874 4.88 0 8.874 3.993 8.874 8.874 0 5.102-3.993 8.874-8.874 8.874Zm3.55-79.865c0-1.775-1.775-3.55-3.55-3.55-1.996 0-3.55 1.775-3.55 3.55V58.77h7.1V3.752Z" fill="#fff"/></svg>