<svg width="200" height="39" fill="none" xmlns="http://www.w3.org/2000/svg"><g clip-path="url(#a)"><path d="M40.849 39V10.346H30.012V39H40.85Z" fill="#00B5AC"/><path d="M30.01 28.654H0V39h30.01V28.654Z" fill="#F7981D"/><path d="M0 28.654V9.111L10.836 0v28.654H0Z" fill="#E51F37"/><path d="M10.836 0h20.47l9.541 10.347h-30.01V0Z" fill="#007DC2"/><path d="M61.363 32.194c-4.344 0-6.83-2.457-6.855-2.483l-.045-.046 2.082-3.053.075.07c.018.018 1.93 1.812 4.71 1.812 1.102 0 2.214-.441 2.214-1.427 0-.985-1.393-1.499-3.005-2.13-2.452-.96-5.505-2.154-5.505-5.405 0-2.987 2.724-4.994 6.776-4.994s5.91 1.904 5.928 1.924l.042.04-1.69 3.227-.083-.075c-.015-.014-1.622-1.42-4.23-1.42-.99 0-2.147.374-2.147 1.427 0 .886 1.355 1.406 2.924 2.008 2.487.955 5.585 2.143 5.585 5.429 0 2.998-2.786 5.093-6.776 5.093v.003Zm25.114-.393h-4.493v-9.974c0-2.362-.78-3.327-2.695-3.327-2.162 0-3.988 1.341-4.654 3.415-.186.588-.272 1.267-.272 2.138V31.8h-4.526V8.38h4.526v8.14c0 .502-.025.922-.045 1.172.895-1.497 2.948-3.153 6-3.153 4.086 0 6.157 2.166 6.157 6.436V31.8h.002Zm11.045.393c-5.545 0-9.725-3.795-9.725-8.828 0-5.033 4.167-8.828 9.691-8.828 5.525 0 9.726 3.795 9.726 8.828 0 5.033-4.167 8.828-9.692 8.828Zm0-13.956c-2.926 0-5.132 2.204-5.132 5.128s2.206 5.128 5.132 5.128c2.926 0 5.096-2.204 5.096-5.128s-2.19-5.128-5.096-5.128ZM113.3 38.353h-4.526v-23.42h4.148v1.292c0 .375-.025.718-.046.932.425-.615 2.083-2.618 5.589-2.618 4.688 0 7.838 3.547 7.838 8.829 0 5.28-3.322 8.828-8.079 8.828-1.813 0-3.096-.633-3.855-1.163a5.435 5.435 0 0 1-1.122-1.029c.021.242.051.696.051 1.26v7.09l.002-.001Zm4.17-20.083c-2.083 0-4.307 1.364-4.307 5.194 0 3.478 2.216 5.062 4.273 5.062 2.058 0 4.307-1.576 4.307-5.096 0-3.086-1.716-5.16-4.273-5.16Zm15.941 13.924c-1.612 0-3.101-.486-4.194-1.37-1.195-.966-1.826-2.322-1.826-3.92 0-5 6.545-5.747 10.447-5.747h.499v-.148c0-1.903-1.103-2.868-3.278-2.868-2.447 0-4.73 1.573-4.754 1.59l-.079.054-1.726-3.122.054-.042c.027-.02 2.781-2.082 6.915-2.082 4.676 0 7.357 2.454 7.357 6.73v10.532h-4.184v-1.455c0-.36.02-.683.041-.9a5.19 5.19 0 0 1-1.083 1.281c-.771.67-2.125 1.469-4.191 1.469l.002-.002Zm4.289-8.026c-2.623 0-5.749.44-5.749 2.54 0 1.037.791 2.082 2.558 2.082 2.211 0 3.862-2.275 3.862-4.308v-.313h-.671v-.001Zm12.848 7.633h-4.526V14.932h4.354v2.964c0 .293-.015.572-.032.786.943-2.396 3.111-3.978 5.506-3.978.415 0 .789.064.804.066l.069.013v4.255l-.097-.015s-.447-.064-1.017-.064c-1.715 0-3.848.907-4.69 3.449-.251.75-.373 1.631-.373 2.695v6.698h.002Zm13.09 0h-4.527V14.932h4.527v16.87Zm-.034-19.558h-4.493V8.381h4.493v3.862Zm18.098 19.558h-15.643v-2.336l.019-.023 7.856-9.403a15.11 15.11 0 0 1 1.383-1.458c-.233.019-.708.05-1.455.05h-7.461v-3.699h15.06v2.369l-.019.022-7.857 9.403a13.36 13.36 0 0 1-1.401 1.45c.243-.03.722-.073 1.472-.073h8.044V31.8h.002Zm10.003.393c-5.496 0-9.486-3.713-9.486-8.828 0-5.116 3.69-8.828 8.972-8.828 4.762 0 7.838 3.142 7.838 8.008 0 .49-.099 1.567-.103 1.612l-.007.074h-12.062c.324 2.943 2.813 4.262 5.157 4.262 2.75 0 4.966-1.797 4.988-1.815l.079-.066 1.763 3.124-.048.042c-.027.024-2.75 2.413-7.091 2.413v.002Zm-4.701-10.971h7.462c-.095-2.045-1.383-3.312-3.378-3.312-2.13 0-3.651 1.235-4.084 3.312Z" fill="#1B2328"/></g><defs><clipPath id="a"><path fill="#fff" d="M0 0h200v39H0z"/></clipPath></defs></svg>